Kaputa-Regular.ufo
<glyph name="exclam" format="1">
  <advance width="201"/>
  <unicode hex="0021"/>
  <note>
    exclam
  </note>
  <outline>
    <contour>
      <point x="115" y="151" type="line"/>
      <point x="124" y="406" type="line"/>
      <point x="124" y="667" type="line"/>
      <point x="76" y="667" type="line"/>
      <point x="76" y="406" type="line"/>
      <point x="85" y="151" type="line"/>
    </contour>
    <contour>
      <point x="121" y="-5"/>
      <point x="136" y="9"/>
      <point x="136" y="31" type="curve" smooth="yes"/>
      <point x="136" y="52"/>
      <point x="121" y="67"/>
      <point x="100" y="67" type="curve" smooth="yes"/>
      <point x="78" y="67"/>
      <point x="63" y="52"/>
      <point x="63" y="31" type="curve" smooth="yes"/>
      <point x="63" y="9"/>
      <point x="78" y="-5"/>
      <point x="100" y="-5" type="curve" smooth="yes"/>
    </contour>
  </outline>
</glyph>
<glyph name="quotedbl" format="2">
  <advance width="299"/>
  <unicode hex="0022"/>
  <note>
    quotedbl
  </note>
  <outline>
    <contour>
      <point x="227" y="425" type="line"/>
      <point x="238" y="729" type="line"/>
      <point x="188" y="729" type="line"/>
      <point x="200" y="425" type="line"/>
    </contour>
    <contour>
      <point x="98" y="425" type="line"/>
      <point x="110" y="729" type="line"/>
      <point x="60" y="729" type="line"/>
      <point x="71" y="425" type="line"/>
    </contour>
  </outline>
</glyph>
<glyph name="numbersign" format="2">
  <advance width="484"/>
  <unicode hex="0023"/>
  <note>
    numbersign
  </note>
  <outline>
    <contour>
      <point x="307" y="0" type="line"/>
      <point x="370" y="667" type="line"/>
      <point x="330" y="667" type="line"/>
      <point x="267" y="0" type="line"/>
    </contour>
    <contour>
      <point x="440" y="217" type="line"/>
      <point x="440" y="257" type="line"/>
      <point x="43" y="257" type="line"/>
      <point x="43" y="217" type="line"/>
    </contour>
    <contour>
      <point x="153" y="0" type="line"/>
      <point x="215" y="667" type="line"/>
      <point x="175" y="667" type="line"/>
      <point x="113" y="0" type="line"/>
    </contour>
    <contour>
      <point x="440" y="410" type="line"/>
      <point x="440" y="450" type="line"/>
      <point x="43" y="450" type="line"/>
      <point x="43" y="410" type="line"/>
    </contour>
  </outline>
</glyph>
<glyph name="percent" format="2">
  <advance width="756"/>
  <unicode hex="0025"/>
  <note>
    percent
  </note>
  <outline>
    <contour>
      <point x="266" y="0" type="line"/>
      <point x="532" y="667" type="line"/>
      <point x="489" y="667" type="line"/>
      <point x="224" y="0" type="line"/>
    </contour>
    <contour>
      <point x="264" y="260"/>
      <point x="321" y="315"/>
      <point x="321" y="468" type="curve" smooth="yes"/>
      <point x="321" y="620"/>
      <point x="265" y="675"/>
      <point x="183" y="675" type="curve" smooth="yes"/>
      <point x="101" y="675"/>
      <point x="46" y="620"/>
      <point x="46" y="468" type="curve" smooth="yes"/>
      <point x="46" y="315"/>
      <point x="102" y="260"/>
      <point x="183" y="260" type="curve" smooth="yes"/>
    </contour>
    <contour>
      <point x="125" y="296"/>
      <point x="87" y="338"/>
      <point x="87" y="468" type="curve" smooth="yes"/>
      <point x="87" y="598"/>
      <point x="125" y="639"/>
      <point x="183" y="639" type="curve" smooth="yes"/>
      <point x="241" y="639"/>
      <point x="280" y="598"/>
      <point x="280" y="467" type="curve" smooth="yes"/>
      <point x="280" y="337"/>
      <point x="241" y="296"/>
      <point x="183" y="296" type="curve" smooth="yes"/>
    </contour>
    <contour>
      <point x="654" y="-8"/>
      <point x="710" y="47"/>
      <point x="710" y="200" type="curve" smooth="yes"/>
      <point x="710" y="352"/>
      <point x="654" y="407"/>
      <point x="573" y="407" type="curve" smooth="yes"/>
      <point x="491" y="407"/>
      <point x="435" y="352"/>
      <point x="435" y="200" type="curve" smooth="yes"/>
      <point x="435" y="47"/>
      <point x="491" y="-8"/>
      <point x="573" y="-8" type="curve" smooth="yes"/>
    </contour>
    <contour>
      <point x="515" y="28"/>
      <point x="476" y="69"/>
      <point x="476" y="201" type="curve" smooth="yes"/>
      <point x="476" y="330"/>
      <point x="515" y="371"/>
      <point x="573" y="371" type="curve" smooth="yes"/>
      <point x="630" y="371"/>
      <point x="669" y="330"/>
      <point x="669" y="199" type="curve" smooth="yes"/>
      <point x="669" y="69"/>
      <point x="630" y="28"/>
      <point x="573" y="28" type="curve" smooth="yes"/>
    </contour>
  </outline>
</glyph>
<glyph name="ampersand" format="2">
  <advance width="614"/>
  <unicode hex="0026"/>
  <note>
    ampersand
  </note>
  <outline>
    <contour>
      <point x="615" y="25" type="line"/>
      <point x="292" y="301" type="line" smooth="yes"/>
      <point x="201" y="381"/>
      <point x="178" y="426"/>
      <point x="178" y="491" type="curve" smooth="yes"/>
      <point x="178" y="585"/>
      <point x="229" y="634"/>
      <point x="343" y="634" type="curve" smooth="yes"/>
      <point x="374" y="634"/>
      <point x="404" y="631"/>
      <point x="438" y="622" type="curve"/>
      <point x="438" y="664" type="line"/>
      <point x="409" y="671"/>
      <point x="377" y="675"/>
      <point x="342" y="675" type="curve" smooth="yes"/>
      <point x="202" y="675"/>
      <point x="131" y="609"/>
      <point x="131" y="491" type="curve" smooth="yes"/>
      <point x="131" y="412"/>
      <point x="163" y="356"/>
      <point x="266" y="267" type="curve" smooth="yes"/>
      <point x="589" y="-9" type="line"/>
    </contour>
    <contour>
      <point x="427" y="-8"/>
      <point x="515" y="71"/>
      <point x="515" y="226" type="curve" smooth="yes"/>
      <point x="515" y="265"/>
      <point x="510" y="309"/>
      <point x="498" y="349" type="curve"/>
      <point x="456" y="349" type="line"/>
      <point x="468" y="309"/>
      <point x="474" y="264"/>
      <point x="474" y="225" type="curve" smooth="yes"/>
      <point x="474" y="89"/>
      <point x="403" y="32"/>
      <point x="286" y="32" type="curve" smooth="yes"/>
      <point x="170" y="32"/>
      <point x="110" y="92"/>
      <point x="110" y="186" type="curve" smooth="yes"/>
      <point x="110" y="255"/>
      <point x="142" y="306"/>
      <point x="204" y="338" type="curve"/>
      <point x="180" y="368" type="line"/>
      <point x="106" y="331"/>
      <point x="64" y="266"/>
      <point x="64" y="182" type="curve" smooth="yes"/>
      <point x="64" y="68"/>
      <point x="142" y="-8"/>
      <point x="283" y="-8" type="curve" smooth="yes"/>
    </contour>
  </outline>
</glyph>
<glyph name="quotesingle" format="1">
  <advance width="171"/>
  <unicode hex="0027"/>
  <note>
    quotesingle
  </note>
  <outline>
    <contour>
      <point x="71" y="425" type="line"/>
      <point x="98" y="425" type="line"/>
      <point x="110" y="729" type="line"/>
      <point x="60" y="729" type="line"/>
    </contour>
  </outline>
</glyph>
<glyph name="parenleft" format="2">
	<unicode hex="0028"/>
	<advance width="269"/>
	<outline>
		<contour>
			<point x="247" y="-198" type="line"/>
			<point x="147" y="-59"/>
			<point x="103" y="97"/>
			<point x="103" y="265" type="curve" smooth="yes"/>
			<point x="103" y="433"/>
			<point x="147" y="589"/>
			<point x="247" y="729" type="curve"/>
			<point x="200" y="729" type="line"/>
			<point x="100" y="593"/>
			<point x="56" y="436"/>
			<point x="56" y="265" type="curve" smooth="yes"/>
			<point x="56" y="94"/>
			<point x="100" y="-63"/>
			<point x="200" y="-198" type="curve"/>
		</contour>
	</outline>
	<note>
		parenleft
	</note>
</glyph>
<glyph name="parenright" format="2">
	<advance width="269"/>
	<unicode hex="0029"/>
	<note>
		parenright
  </note>
	<outline>
		<contour>
			<point x="70" y="-198" type="line"/>
			<point x="170" y="-63"/>
			<point x="214" y="94"/>
			<point x="214" y="265" type="curve" smooth="yes"/>
			<point x="214" y="436"/>
			<point x="170" y="593"/>
			<point x="70" y="729" type="curve"/>
			<point x="22" y="729" type="line"/>
			<point x="123" y="589"/>
			<point x="167" y="433"/>
			<point x="167" y="265" type="curve" smooth="yes"/>
			<point x="167" y="97"/>
			<point x="123" y="-59"/>
			<point x="22" y="-198" type="curve"/>
		</contour>
	</outline>
</glyph>
<glyph name="asterisk" format="2">
  <advance width="391"/>
  <unicode hex="002A"/>
  <note>
    asterisk
  </note>
  <outline>
    <contour>
      <point x="149" y="450" type="line"/>
      <point x="195" y="529" type="line"/>
      <point x="242" y="450" type="line"/>
      <point x="288" y="388" type="line"/>
      <point x="318" y="410" type="line"/>
      <point x="272" y="472" type="line"/>
      <point x="212" y="541" type="line"/>
      <point x="301" y="562" type="line"/>
      <point x="377" y="587" type="line"/>
      <point x="365" y="622" type="line"/>
      <point x="290" y="597" type="line"/>
      <point x="206" y="561" type="line"/>
      <point x="214" y="653" type="line"/>
      <point x="214" y="729" type="line"/>
      <point x="176" y="729" type="line"/>
      <point x="176" y="653" type="line"/>
      <point x="185" y="561" type="line"/>
      <point x="100" y="597" type="line"/>
      <point x="25" y="622" type="line"/>
      <point x="14" y="587" type="line"/>
      <point x="89" y="562" type="line"/>
      <point x="178" y="541" type="line"/>
      <point x="118" y="472" type="line"/>
      <point x="72" y="410" type="line"/>
      <point x="103" y="388" type="line"/>
    </contour>
  </outline>
</glyph>
<glyph name="plus" format="2">
	<unicode hex="002B"/>
	<advance width="472"/>
	<outline>
		<contour>
			<point x="256" y="167" type="line"/>
			<point x="256" y="323" type="line"/>
			<point x="403" y="323" type="line"/>
			<point x="403" y="362" type="line"/>
			<point x="256" y="362" type="line"/>
			<point x="256" y="518" type="line"/>
			<point x="214" y="518" type="line"/>
			<point x="214" y="362" type="line"/>
			<point x="67" y="362" type="line"/>
			<point x="67" y="323" type="line"/>
			<point x="214" y="323" type="line"/>
			<point x="214" y="167" type="line"/>
		</contour>
	</outline>
	<note>
		plus
	</note>
</glyph>
<glyph name="comma" format="1">
  <advance width="183"/>
  <unicode hex="002C"/>
  <note>
    comma
  </note>
  <outline>
    <contour>
      <point x="91" y="-138" type="line"/>
      <point x="111" y="-93"/>
      <point x="127" y="-39"/>
      <point x="127" y="19" type="curve" smooth="yes"/>
      <point x="127" y="53"/>
      <point x="112" y="68"/>
      <point x="90" y="68" type="curve" smooth="yes"/>
      <point x="69" y="68"/>
      <point x="54" y="53"/>
      <point x="54" y="32" type="curve" smooth="yes"/>
      <point x="54" y="9"/>
      <point x="69" y="-5"/>
      <point x="91" y="-5" type="curve" smooth="yes"/>
      <point x="98" y="-5" type="line"/>
      <point x="92" y="7" type="line"/>
      <point x="92" y="-40"/>
      <point x="81" y="-85"/>
      <point x="63" y="-138" type="curve"/>
    </contour>
  </outline>
</glyph>
<glyph name="hyphen" format="2">
	<advance width="338"/>
	<unicode hex="002D"/>
	<note>
		hyphen
  </note>
	<outline>
		<contour>
			<point x="270" y="233" type="line"/>
			<point x="270" y="273" type="line"/>
			<point x="67" y="273" type="line"/>
			<point x="67" y="233" type="line"/>
		</contour>
	</outline>
</glyph>
<glyph name="period" format="2">
	<advance width="183"/>
	<unicode hex="002E"/>
	<note>
		period
  </note>
	<outline>
		<contour>
			<point x="112" y="-5"/>
			<point x="127" y="9"/>
			<point x="127" y="31" type="curve" smooth="yes"/>
			<point x="127" y="53"/>
			<point x="112" y="68"/>
			<point x="91" y="68" type="curve" smooth="yes"/>
			<point x="69" y="68"/>
			<point x="54" y="53"/>
			<point x="54" y="31" type="curve" smooth="yes"/>
			<point x="54" y="9"/>
			<point x="69" y="-5"/>
			<point x="91" y="-5" type="curve" smooth="yes"/>
		</contour>
	</outline>
</glyph>
<glyph name="slash" format="2">
	<unicode hex="002F"/>
	<advance width="225"/>
	<outline>
		<contour>
			<point x="45" y="-108" type="line"/>
			<point x="226" y="729" type="line"/>
			<point x="181" y="729" type="line"/>
			<point x="0" y="-108" type="line"/>
		</contour>
	</outline>
	<note>
		slash
	</note>
</glyph>
<glyph name="zero" format="1">
  <advance width="513"/>
  <unicode hex="0030"/>
  <note>
    zero
  </note>
  <outline>
    <contour>
      <point x="324" y="1"/>
      <point x="390" y="75"/>
      <point x="390" y="284" type="curve" smooth="yes"/>
      <point x="390" y="492"/>
      <point x="325" y="566"/>
      <point x="220" y="566" type="curve" smooth="yes"/>
      <point x="116" y="566"/>
      <point x="51" y="492"/>
      <point x="51" y="284" type="curve" smooth="yes"/>
      <point x="51" y="75"/>
      <point x="117" y="1"/>
      <point x="220" y="1" type="curve" smooth="yes"/>
    </contour>
    <contour>
      <point x="141" y="35"/>
      <point x="90" y="92"/>
      <point x="90" y="285" type="curve" smooth="yes"/>
      <point x="90" y="475"/>
      <point x="141" y="532"/>
      <point x="220" y="532" type="curve" smooth="yes"/>
      <point x="300" y="532"/>
      <point x="351" y="475"/>
      <point x="351" y="282" type="curve" smooth="yes"/>
      <point x="351" y="92"/>
      <point x="300" y="35"/>
      <point x="220" y="35" type="curve" smooth="yes"/>
    </contour>
  </outline>
</glyph>
<glyph name="one" format="1">
  <advance width="286"/>
  <unicode hex="0031"/>
  <note>
    one
  </note>
  <outline>
    <contour>
      <point x="132" y="1" type="line"/>
      <point x="170" y="1" type="line"/>
      <point x="170" y="554" type="line"/>
      <point x="147" y="554" type="line"/>
      <point x="9" y="451" type="line"/>
      <point x="9" y="413" type="line"/>
      <point x="147" y="515" type="line"/>
      <point x="132" y="516" type="line"/>
    </contour>
  </outline>
</glyph>
<glyph name="two" format="2">
	<advance width="402"/>
	<unicode hex="0032"/>
	<note>
		two
  </note>
	<outline>
		<contour>
			<point x="340" y="-26" type="line"/>
			<point x="340" y="10" type="line"/>
			<point x="64" y="10" type="line"/>
			<point x="72" y="-2" type="line"/>
			<point x="224" y="222" type="line" smooth="yes"/>
			<point x="286" y="314"/>
			<point x="308" y="370"/>
			<point x="309" y="434" type="curve" smooth="yes"/>
			<point x="312" y="542"/>
			<point x="246" y="587"/>
			<point x="141" y="587" type="curve" smooth="yes"/>
			<point x="97" y="587"/>
			<point x="50" y="579"/>
			<point x="18" y="566" type="curve"/>
			<point x="18" y="527" type="line"/>
			<point x="56" y="543"/>
			<point x="94" y="551"/>
			<point x="138" y="551" type="curve" smooth="yes"/>
			<point x="223" y="551"/>
			<point x="268" y="519"/>
			<point x="268" y="432" type="curve" smooth="yes"/>
			<point x="268" y="378"/>
			<point x="246" y="324"/>
			<point x="190" y="241" type="curve" smooth="yes"/>
			<point x="26" y="-3" type="line"/>
			<point x="26" y="-26" type="line"/>
		</contour>
	</outline>
</glyph>
<glyph name="three" format="1">
  <advance width="420"/>
  <unicode hex="0033"/>
  <note>
    three
  </note>
  <outline>
    <contour>
      <point x="258" y="1"/>
      <point x="322" y="57"/>
      <point x="322" y="153" type="curve" smooth="yes"/>
      <point x="322" y="234"/>
      <point x="273" y="286"/>
      <point x="182" y="299" type="curve"/>
      <point x="182" y="290" type="line"/>
      <point x="259" y="306"/>
      <point x="304" y="358"/>
      <point x="304" y="430" type="curve" smooth="yes"/>
      <point x="304" y="517"/>
      <point x="249" y="566"/>
      <point x="147" y="566" type="curve" smooth="yes"/>
      <point x="107" y="566"/>
      <point x="65" y="559"/>
      <point x="35" y="546" type="curve"/>
      <point x="35" y="512" type="line"/>
      <point x="70" y="526"/>
      <point x="106" y="533"/>
      <point x="145" y="533" type="curve" smooth="yes"/>
      <point x="225" y="533"/>
      <point x="267" y="497"/>
      <point x="267" y="429" type="curve" smooth="yes"/>
      <point x="267" y="353"/>
      <point x="213" y="308"/>
      <point x="111" y="308" type="curve" smooth="yes"/>
      <point x="89" y="308" type="line"/>
      <point x="89" y="274" type="line"/>
      <point x="140" y="274" type="line" smooth="yes"/>
      <point x="240" y="274"/>
      <point x="284" y="229"/>
      <point x="284" y="154" type="curve" smooth="yes"/>
      <point x="284" y="75"/>
      <point x="234" y="34"/>
      <point x="144" y="34" type="curve" smooth="yes"/>
      <point x="106" y="34"/>
      <point x="63" y="42"/>
      <point x="23" y="56" type="curve"/>
      <point x="23" y="22" type="line"/>
      <point x="60" y="8"/>
      <point x="102" y="1"/>
      <point x="144" y="1" type="curve" smooth="yes"/>
    </contour>
  </outline>
</glyph>
<glyph name="four" format="1">
  <advance width="488"/>
  <unicode hex="0034"/>
  <note>
    four
  </note>
  <outline>
    <contour>
      <point x="23" y="143" type="line"/>
      <point x="390" y="143" type="line"/>
      <point x="390" y="175" type="line"/>
      <point x="54" y="175" type="line"/>
      <point x="61" y="163" type="line"/>
      <point x="268" y="554" type="line"/>
      <point x="230" y="554" type="line"/>
      <point x="23" y="164" type="line"/>
    </contour>
    <contour>
      <point x="278" y="3" type="line"/>
      <point x="314" y="3" type="line"/>
      <point x="314" y="368" type="line"/>
      <point x="284" y="368" type="line"/>
      <point x="278" y="175" type="line"/>
    </contour>
  </outline>
</glyph>
<glyph name="five" format="1">
  <advance width="423"/>
  <unicode hex="0035"/>
  <note>
    five
  </note>
  <outline>
    <contour>
      <point x="271" y="-1"/>
      <point x="333" y="54"/>
      <point x="333" y="156" type="curve" smooth="yes"/>
      <point x="333" y="257"/>
      <point x="270" y="307"/>
      <point x="131" y="316" type="curve" smooth="yes"/>
      <point x="66" y="320" type="line"/>
      <point x="91" y="299" type="line"/>
      <point x="108" y="539" type="line"/>
      <point x="89" y="523" type="line"/>
      <point x="310" y="523" type="line"/>
      <point x="310" y="556" type="line"/>
      <point x="72" y="556" type="line"/>
      <point x="55" y="287" type="line"/>
      <point x="119" y="283" type="line" smooth="yes"/>
      <point x="246" y="275"/>
      <point x="296" y="237"/>
      <point x="296" y="156" type="curve" smooth="yes"/>
      <point x="296" y="73"/>
      <point x="248" y="32"/>
      <point x="155" y="32" type="curve" smooth="yes"/>
      <point x="116" y="32"/>
      <point x="74" y="39"/>
      <point x="34" y="53" type="curve"/>
      <point x="34" y="19" type="line"/>
      <point x="70" y="5"/>
      <point x="113" y="-1"/>
      <point x="156" y="-1" type="curve" smooth="yes"/>
    </contour>
  </outline>
</glyph>
<glyph name="six" format="1">
  <advance width="472"/>
  <unicode hex="0036"/>
  <note>
    six
  </note>
  <outline>
    <contour>
      <point x="313" y="0"/>
      <point x="378" y="52"/>
      <point x="378" y="161" type="curve" smooth="yes"/>
      <point x="378" y="268"/>
      <point x="311" y="318"/>
      <point x="221" y="318" type="curve" smooth="yes"/>
      <point x="165" y="318"/>
      <point x="112" y="297"/>
      <point x="84" y="261" type="curve"/>
      <point x="84" y="222" type="line"/>
      <point x="114" y="268"/>
      <point x="169" y="285"/>
      <point x="217" y="285" type="curve" smooth="yes"/>
      <point x="289" y="285"/>
      <point x="341" y="249"/>
      <point x="341" y="158" type="curve" smooth="yes"/>
      <point x="341" y="70"/>
      <point x="291" y="33"/>
      <point x="230" y="33" type="curve" smooth="yes"/>
      <point x="150" y="33"/>
      <point x="95" y="84"/>
      <point x="95" y="262" type="curve" smooth="yes"/>
      <point x="95" y="272" type="line" smooth="yes"/>
      <point x="95" y="461"/>
      <point x="155" y="532"/>
      <point x="266" y="532" type="curve" smooth="yes"/>
      <point x="297" y="532"/>
      <point x="328" y="527"/>
      <point x="355" y="515" type="curve"/>
      <point x="355" y="550" type="line"/>
      <point x="328" y="561"/>
      <point x="297" y="565"/>
      <point x="266" y="565" type="curve" smooth="yes"/>
      <point x="131" y="565"/>
      <point x="57" y="479"/>
      <point x="57" y="265" type="curve" smooth="yes"/>
      <point x="57" y="65"/>
      <point x="129" y="0"/>
      <point x="229" y="0" type="curve" smooth="yes"/>
    </contour>
  </outline>
</glyph>
<glyph name="seven" format="1">
  <advance width="385"/>
  <unicode hex="0037"/>
  <note>
    seven
  </note>
  <outline>
    <contour>
      <point x="62" y="1" type="line"/>
      <point x="101" y="1" type="line"/>
      <point x="298" y="531" type="line"/>
      <point x="298" y="552" type="line"/>
      <point x="5" y="552" type="line"/>
      <point x="5" y="518" type="line"/>
      <point x="269" y="518" type="line"/>
      <point x="260" y="531" type="line"/>
    </contour>
  </outline>
</glyph>
<glyph name="eight" format="1">
  <advance width="513"/>
  <unicode hex="0038"/>
  <note>
    eight
  </note>
  <outline>
    <contour>
      <point x="331" y="0"/>
      <point x="394" y="57"/>
      <point x="394" y="144" type="curve" smooth="yes"/>
      <point x="394" y="223"/>
      <point x="351" y="267"/>
      <point x="232" y="299" type="curve" smooth="yes"/>
      <point x="129" y="327"/>
      <point x="98" y="363"/>
      <point x="98" y="428" type="curve" smooth="yes"/>
      <point x="98" y="492"/>
      <point x="141" y="533"/>
      <point x="218" y="533" type="curve" smooth="yes"/>
      <point x="295" y="533"/>
      <point x="341" y="495"/>
      <point x="341" y="425" type="curve" smooth="yes"/>
      <point x="341" y="361"/>
      <point x="311" y="325"/>
      <point x="241" y="294" type="curve"/>
      <point x="273" y="280" type="line"/>
      <point x="341" y="309"/>
      <point x="377" y="359"/>
      <point x="377" y="427" type="curve" smooth="yes"/>
      <point x="377" y="512"/>
      <point x="317" y="565"/>
      <point x="218" y="565" type="curve" smooth="yes"/>
      <point x="121" y="565"/>
      <point x="60" y="511"/>
      <point x="60" y="426" type="curve" smooth="yes"/>
      <point x="60" y="346"/>
      <point x="105" y="299"/>
      <point x="222" y="267" type="curve" smooth="yes"/>
      <point x="323" y="239"/>
      <point x="356" y="209"/>
      <point x="356" y="142" type="curve" smooth="yes"/>
      <point x="356" y="72"/>
      <point x="307" y="32"/>
      <point x="223" y="32" type="curve" smooth="yes"/>
      <point x="129" y="32"/>
      <point x="81" y="73"/>
      <point x="81" y="147" type="curve" smooth="yes"/>
      <point x="81" y="212"/>
      <point x="121" y="261"/>
      <point x="190" y="282" type="curve"/>
      <point x="158" y="297" type="line"/>
      <point x="87" y="272"/>
      <point x="43" y="216"/>
      <point x="43" y="144" type="curve" smooth="yes"/>
      <point x="43" y="53"/>
      <point x="107" y="0"/>
      <point x="223" y="0" type="curve" smooth="yes"/>
    </contour>
  </outline>
</glyph>
<glyph name="nine" format="1">
  <advance width="472"/>
  <unicode hex="0039"/>
  <note>
    nine
  </note>
  <outline>
    <contour>
      <point x="90" y="565"/>
      <point x="25" y="513"/>
      <point x="25" y="404" type="curve" smooth="yes"/>
      <point x="25" y="298"/>
      <point x="92" y="247"/>
      <point x="182" y="247" type="curve" smooth="yes"/>
      <point x="237" y="247"/>
      <point x="290" y="268"/>
      <point x="318" y="304" type="curve"/>
      <point x="318" y="343" type="line"/>
      <point x="289" y="298"/>
      <point x="233" y="280"/>
      <point x="186" y="280" type="curve" smooth="yes"/>
      <point x="114" y="280"/>
      <point x="61" y="317"/>
      <point x="61" y="407" type="curve" smooth="yes"/>
      <point x="61" y="495"/>
      <point x="112" y="533"/>
      <point x="174" y="533" type="curve" smooth="yes"/>
      <point x="252" y="533"/>
      <point x="308" y="481"/>
      <point x="308" y="303" type="curve" smooth="yes"/>
      <point x="308" y="293" type="line" smooth="yes"/>
      <point x="308" y="104"/>
      <point x="248" y="33"/>
      <point x="137" y="33" type="curve" smooth="yes"/>
      <point x="107" y="33"/>
      <point x="75" y="38"/>
      <point x="49" y="50" type="curve"/>
      <point x="49" y="15" type="line"/>
      <point x="75" y="4"/>
      <point x="107" y="0"/>
      <point x="137" y="0" type="curve" smooth="yes"/>
      <point x="271" y="0"/>
      <point x="346" y="86"/>
      <point x="346" y="300" type="curve" smooth="yes"/>
      <point x="346" y="500"/>
      <point x="274" y="565"/>
      <point x="175" y="565" type="curve" smooth="yes"/>
    </contour>
  </outline>
</glyph>
<glyph name="colon" format="2">
  <advance width="183"/>
  <unicode hex="003A"/>
  <note>
    colon
  </note>
  <outline>
    <contour>
      <point x="112" y="420"/>
      <point x="127" y="434"/>
      <point x="127" y="456" type="curve" smooth="yes"/>
      <point x="127" y="478"/>
      <point x="112" y="493"/>
      <point x="91" y="493" type="curve" smooth="yes"/>
      <point x="69" y="493"/>
      <point x="54" y="478"/>
      <point x="54" y="456" type="curve" smooth="yes"/>
      <point x="54" y="434"/>
      <point x="69" y="420"/>
      <point x="91" y="420" type="curve" smooth="yes"/>
    </contour>
    <contour>
      <point x="112" y="-5"/>
      <point x="127" y="9"/>
      <point x="127" y="31" type="curve" smooth="yes"/>
      <point x="127" y="53"/>
      <point x="112" y="68"/>
      <point x="91" y="68" type="curve" smooth="yes"/>
      <point x="69" y="68"/>
      <point x="54" y="53"/>
      <point x="54" y="31" type="curve" smooth="yes"/>
      <point x="54" y="9"/>
      <point x="69" y="-5"/>
      <point x="91" y="-5" type="curve" smooth="yes"/>
    </contour>
  </outline>
</glyph>
<glyph name="less" format="2">
	<unicode hex="003C"/>
	<advance width="472"/>
	<outline>
		<contour>
			<point x="403" y="218" type="line"/>
			<point x="103" y="348" type="line"/>
			<point x="103" y="337" type="line"/>
			<point x="403" y="467" type="line"/>
			<point x="403" y="510" type="line"/>
			<point x="67" y="362" type="line"/>
			<point x="67" y="324" type="line"/>
			<point x="403" y="175" type="line"/>
		</contour>
	</outline>
	<note>
		less
	</note>
</glyph>
<glyph name="equal" format="2">
	<unicode hex="003D"/>
	<advance width="472"/>
	<outline>
		<contour>
			<point x="403" y="407" type="line"/>
			<point x="403" y="447" type="line"/>
			<point x="67" y="447" type="line"/>
			<point x="67" y="407" type="line"/>
		</contour>
		<contour>
			<point x="403" y="238" type="line"/>
			<point x="403" y="278" type="line"/>
			<point x="67" y="278" type="line"/>
			<point x="67" y="238" type="line"/>
		</contour>
	</outline>
	<note>
		equal
	</note>
</glyph>
<glyph name="greater" format="1">
  <advance width="472"/>
  <unicode hex="003E"/>
  <note>
    greater
  </note>
  <outline>
    <contour>
      <point x="67" y="175" type="line"/>
      <point x="403" y="324" type="line"/>
      <point x="403" y="362" type="line"/>
      <point x="67" y="510" type="line"/>
      <point x="67" y="467" type="line"/>
      <point x="367" y="337" type="line"/>
      <point x="367" y="348" type="line"/>
      <point x="67" y="218" type="line"/>
    </contour>
  </outline>
</glyph>
<glyph name="at" format="2">
	<advance width="775"/>
	<unicode hex="0040"/>
	<note>
		at
  </note>
	<outline>
		<contour>
			<point x="465" y="-207"/>
			<point x="520" y="-197"/>
			<point x="564" y="-182" type="curve"/>
			<point x="564" y="-143" type="line"/>
			<point x="511" y="-160"/>
			<point x="462" y="-170"/>
			<point x="408" y="-170" type="curve" smooth="yes"/>
			<point x="201" y="-170"/>
			<point x="89" y="-66"/>
			<point x="89" y="236" type="curve" smooth="yes"/>
			<point x="89" y="533"/>
			<point x="200" y="637"/>
			<point x="390" y="637" type="curve" smooth="yes"/>
			<point x="580" y="637"/>
			<point x="689" y="535"/>
			<point x="689" y="251" type="curve" smooth="yes"/>
			<point x="689" y="84"/>
			<point x="643" y="30"/>
			<point x="598" y="30" type="curve" smooth="yes"/>
			<point x="560" y="30"/>
			<point x="545" y="53"/>
			<point x="545" y="103" type="curve" smooth="yes"/>
			<point x="545" y="335" type="line" smooth="yes"/>
			<point x="545" y="454"/>
			<point x="486" y="494"/>
			<point x="382" y="494" type="curve" smooth="yes"/>
			<point x="343" y="494"/>
			<point x="293" y="486"/>
			<point x="257" y="473" type="curve"/>
			<point x="257" y="432" type="line"/>
			<point x="300" y="448"/>
			<point x="345" y="454"/>
			<point x="378" y="454" type="curve" smooth="yes"/>
			<point x="457" y="454"/>
			<point x="500" y="428"/>
			<point x="500" y="335" type="curve" smooth="yes"/>
			<point x="500" y="103" type="line"/>
			<point x="464" y="50"/>
			<point x="416" y="32"/>
			<point x="372" y="32" type="curve" smooth="yes"/>
			<point x="309" y="32"/>
			<point x="275" y="63"/>
			<point x="275" y="127" type="curve" smooth="yes"/>
			<point x="275" y="186"/>
			<point x="309" y="218"/>
			<point x="387" y="227" type="curve" smooth="yes"/>
			<point x="522" y="242" type="line"/>
			<point x="518" y="278" type="line"/>
			<point x="385" y="263" type="line" smooth="yes"/>
			<point x="277" y="251"/>
			<point x="227" y="206"/>
			<point x="227" y="122" type="curve" smooth="yes"/>
			<point x="227" y="38"/>
			<point x="282" y="-8"/>
			<point x="364" y="-8" type="curve" smooth="yes"/>
			<point x="419" y="-8"/>
			<point x="469" y="14"/>
			<point x="500" y="56" type="curve"/>
			<point x="504" y="56" type="line"/>
			<point x="514" y="18"/>
			<point x="543" y="-8"/>
			<point x="592" y="-8" type="curve" smooth="yes"/>
			<point x="668" y="-8"/>
			<point x="729" y="66"/>
			<point x="729" y="254" type="curve" smooth="yes"/>
			<point x="729" y="550"/>
			<point x="606" y="675"/>
			<point x="390" y="675" type="curve" smooth="yes"/>
			<point x="174" y="675"/>
			<point x="47" y="550"/>
			<point x="47" y="234" type="curve" smooth="yes"/>
			<point x="47" y="-84"/>
			<point x="176" y="-207"/>
			<point x="408" y="-207" type="curve" smooth="yes"/>
		</contour>
	</outline>
</glyph>
<glyph name="A" format="2">
	<advance width="553"/>
	<unicode hex="0041"/>
	<note>
		A
  </note>
	<outline>
		<contour>
			<point x="60" y="0" type="line"/>
			<point x="282" y="643" type="line"/>
			<point x="270" y="643" type="line"/>
			<point x="493" y="0" type="line"/>
			<point x="541" y="0" type="line"/>
			<point x="307" y="667" type="line"/>
			<point x="246" y="667" type="line"/>
			<point x="13" y="0" type="line"/>
		</contour>
		<contour>
			<point x="432" y="230" type="line"/>
			<point x="420" y="271" type="line"/>
			<point x="133" y="271" type="line"/>
			<point x="121" y="230" type="line"/>
		</contour>
	</outline>
</glyph>
<glyph name="C" format="2">
  <advance width="467"/>
  <unicode hex="0043"/>
  <note>
    C
  </note>
  <outline>
    <contour>
      <point x="366" y="-8"/>
      <point x="412" y="1"/>
      <point x="453" y="16" type="curve"/>
      <point x="453" y="58" type="line"/>
      <point x="403" y="41"/>
      <point x="362" y="33"/>
      <point x="316" y="33" type="curve" smooth="yes"/>
      <point x="179" y="33"/>
      <point x="95" y="102"/>
      <point x="95" y="335" type="curve" smooth="yes"/>
      <point x="95" y="559"/>
      <point x="176" y="634"/>
      <point x="320" y="634" type="curve" smooth="yes"/>
      <point x="365" y="634"/>
      <point x="407" y="629"/>
      <point x="453" y="614" type="curve"/>
      <point x="453" y="656" type="line"/>
      <point x="410" y="669"/>
      <point x="366" y="675"/>
      <point x="321" y="675" type="curve" smooth="yes"/>
      <point x="149" y="675"/>
      <point x="47" y="582"/>
      <point x="47" y="333" type="curve" smooth="yes"/>
      <point x="47" y="77"/>
      <point x="152" y="-8"/>
      <point x="314" y="-8" type="curve" smooth="yes"/>
    </contour>
  </outline>
</glyph>
<glyph name="D" format="2">
	<advance width="571"/>
	<unicode hex="0044"/>
	<note>
		D
  </note>
	<outline>
		<contour>
			<point x="417" y="-5"/>
			<point x="525" y="96"/>
			<point x="525" y="334" type="curve" smooth="yes"/>
			<point x="525" y="566"/>
			<point x="423" y="674"/>
			<point x="223" y="674" type="curve" smooth="yes"/>
			<point x="174" y="674"/>
			<point x="123" y="668"/>
			<point x="77" y="660" type="curve"/>
			<point x="77" y="3" type="line"/>
			<point x="129" y="-3"/>
			<point x="168" y="-5"/>
			<point x="210" y="-5" type="curve" smooth="yes"/>
		</contour>
		<contour>
			<point x="181" y="37"/>
			<point x="153" y="38"/>
			<point x="122" y="42" type="curve"/>
			<point x="122" y="624" type="line"/>
			<point x="156" y="629"/>
			<point x="191" y="632"/>
			<point x="223" y="632" type="curve" smooth="yes"/>
			<point x="396" y="632"/>
			<point x="477" y="543"/>
			<point x="477" y="334" type="curve" smooth="yes"/>
			<point x="477" y="121"/>
			<point x="390" y="37"/>
			<point x="215" y="37" type="curve" smooth="yes"/>
		</contour>
	</outline>
</glyph>
<glyph name="E" format="2">
  <advance width="473"/>
  <unicode hex="0045"/>
  <note>
    E
  </note>
  <outline>
    <contour>
      <point x="449" y="0" type="line"/>
      <point x="449" y="41" type="line"/>
      <point x="122" y="41" type="line"/>
      <point x="122" y="626" type="line"/>
      <point x="444" y="626" type="line"/>
      <point x="444" y="667" type="line"/>
      <point x="77" y="667" type="line"/>
      <point x="77" y="0" type="line"/>
    </contour>
    <contour>
      <point x="402" y="322" type="line"/>
      <point x="402" y="363" type="line"/>
      <point x="110" y="363" type="line"/>
      <point x="110" y="322" type="line"/>
    </contour>
  </outline>
</glyph>
<glyph name="F" format="1">
  <advance width="455"/>
  <unicode hex="0046"/>
  <note>
    F
  </note>
  <outline>
    <contour>
      <point x="122" y="0" type="line"/>
      <point x="122" y="626" type="line"/>
      <point x="440" y="626" type="line"/>
      <point x="440" y="667" type="line"/>
      <point x="77" y="667" type="line"/>
      <point x="77" y="0" type="line"/>
    </contour>
    <contour>
      <point x="398" y="320" type="line"/>
      <point x="398" y="362" type="line"/>
      <point x="113" y="362" type="line"/>
      <point x="113" y="320" type="line"/>
    </contour>
  </outline>
</glyph>
<glyph name="G" format="2">
	<unicode hex="0047"/>
	<advance width="551"/>
	<outline>
		<contour>
			<point x="399" y="-5"/>
			<point x="435" y="-2"/>
			<point x="486" y="7" type="curve"/>
			<point x="486" y="325" type="line"/>
			<point x="442" y="325" type="line"/>
			<point x="442" y="26" type="line"/>
			<point x="458" y="46" type="line"/>
			<point x="426" y="40"/>
			<point x="393" y="37"/>
			<point x="355" y="37" type="curve" smooth="yes"/>
			<point x="182" y="37"/>
			<point x="95" y="114"/>
			<point x="95" y="333" type="curve"/>
			<point x="94" y="560"/>
			<point x="188" y="634"/>
			<point x="338" y="634" type="curve" smooth="yes"/>
			<point x="381" y="634"/>
			<point x="424" y="629"/>
			<point x="475" y="614" type="curve"/>
			<point x="475" y="656" type="line"/>
			<point x="430" y="669"/>
			<point x="384" y="675"/>
			<point x="337" y="675" type="curve" smooth="yes"/>
			<point x="160" y="675"/>
			<point x="46" y="583"/>
			<point x="47" y="333" type="curve" smooth="yes"/>
			<point x="47" y="89"/>
			<point x="154" y="-5"/>
			<point x="357" y="-5" type="curve" smooth="yes"/>
		</contour>
	</outline>
	<note>
		G
	</note>
</glyph>
<glyph name="H" format="2">
	<unicode hex="0048"/>
	<advance width="600"/>
	<outline>
		<contour>
			<point x="122" y="0" type="line"/>
			<point x="122" y="321" type="line"/>
			<point x="475" y="321" type="line"/>
			<point x="475" y="0" type="line"/>
			<point x="521" y="0" type="line"/>
			<point x="521" y="667" type="line"/>
			<point x="475" y="667" type="line"/>
			<point x="475" y="364" type="line"/>
			<point x="122" y="364" type="line"/>
			<point x="122" y="667" type="line"/>
			<point x="77" y="667" type="line"/>
			<point x="77" y="0" type="line"/>
		</contour>
	</outline>
	<note>
		H
	</note>
</glyph>
<glyph name="I" format="2">
	<advance width="200"/>
	<unicode hex="0049"/>
	<note>
		I
  </note>
	<outline>
		<contour>
			<point x="122" y="0" type="line"/>
			<point x="122" y="667" type="line"/>
			<point x="77" y="667" type="line"/>
			<point x="77" y="0" type="line"/>
		</contour>
	</outline>
</glyph>
<glyph name="J" format="2">
	<unicode hex="004A"/>
	<advance width="200"/>
	<outline>
		<contour>
			<point x="94" y="-63"/>
			<point x="118" y="12"/>
			<point x="122" y="118" type="curve"/>
			<point x="122" y="667" type="line"/>
			<point x="77" y="667" type="line"/>
			<point x="77" y="130" type="line" smooth="yes"/>
			<point x="77" y="21"/>
			<point x="53" y="-50"/>
			<point x="-3" y="-132" type="curve"/>
			<point x="28" y="-154" type="line"/>
		</contour>
	</outline>
	<note>
		J
	</note>
</glyph>
<glyph name="K" format="2">
	<advance width="510"/>
	<unicode hex="004B"/>
	<note>
		K
  </note>
	<outline>
		<contour>
			<point x="522" y="0" type="line"/>
			<point x="249" y="351" type="line"/>
			<point x="249" y="336" type="line"/>
			<point x="504" y="667" type="line"/>
			<point x="452" y="667" type="line"/>
			<point x="202" y="341" type="line"/>
			<point x="469" y="0" type="line"/>
		</contour>
		<contour>
			<point x="122" y="0" type="line"/>
			<point x="122" y="667" type="line"/>
			<point x="77" y="667" type="line"/>
			<point x="77" y="0" type="line"/>
		</contour>
		<contour>
			<point x="226" y="321" type="line"/>
			<point x="226" y="363" type="line"/>
			<point x="113" y="363" type="line"/>
			<point x="113" y="321" type="line"/>
		</contour>
	</outline>
</glyph>
<glyph name="L" format="2">
	<advance width="439"/>
	<unicode hex="004C"/>
	<note>
		L
  </note>
	<outline>
		<contour>
			<point x="435" y="0" type="line"/>
			<point x="435" y="42" type="line"/>
			<point x="122" y="42" type="line"/>
			<point x="122" y="667" type="line"/>
			<point x="77" y="667" type="line"/>
			<point x="77" y="0" type="line"/>
		</contour>
	</outline>
</glyph>
<glyph name="M" format="2">
	<advance width="733"/>
	<unicode hex="004D"/>
	<note>
		M
  </note>
	<outline>
		<contour>
			<point x="122" y="0" type="line"/>
			<point x="122" y="627" type="line"/>
			<point x="103" y="627" type="line"/>
			<point x="344" y="91" type="line"/>
			<point x="389" y="91" type="line"/>
			<point x="629" y="627" type="line"/>
			<point x="612" y="627" type="line"/>
			<point x="612" y="0" type="line"/>
			<point x="655" y="0" type="line"/>
			<point x="655" y="667" type="line"/>
			<point x="603" y="667" type="line"/>
			<point x="361" y="121" type="line"/>
			<point x="375" y="121" type="line"/>
			<point x="131" y="667" type="line"/>
			<point x="78" y="667" type="line"/>
			<point x="78" y="0" type="line"/>
		</contour>
	</outline>
</glyph>
<glyph name="N" format="2">
  <advance width="610"/>
  <unicode hex="004E"/>
  <note>
    N
  </note>
  <outline>
    <contour>
      <point x="120" y="0" type="line"/>
      <point x="120" y="619" type="line"/>
      <point x="105" y="619" type="line"/>
      <point x="485" y="0" type="line"/>
      <point x="533" y="0" type="line"/>
      <point x="533" y="667" type="line"/>
      <point x="490" y="667" type="line"/>
      <point x="490" y="48" type="line"/>
      <point x="505" y="48" type="line"/>
      <point x="125" y="667" type="line"/>
      <point x="77" y="667" type="line"/>
      <point x="77" y="0" type="line"/>
    </contour>
  </outline>
</glyph>
<glyph name="O" format="1">
  <advance width="583"/>
  <unicode hex="004F"/>
  <note>
    O
  </note>
  <outline>
    <contour>
      <point x="438" y="-8"/>
      <point x="535" y="87"/>
      <point x="535" y="334" type="curve" smooth="yes"/>
      <point x="535" y="581"/>
      <point x="438" y="675"/>
      <point x="291" y="675" type="curve" smooth="yes"/>
      <point x="144" y="675"/>
      <point x="47" y="581"/>
      <point x="47" y="334" type="curve" smooth="yes"/>
      <point x="47" y="87"/>
      <point x="143" y="-8"/>
      <point x="291" y="-8" type="curve" smooth="yes"/>
    </contour>
    <contour>
      <point x="173" y="33"/>
      <point x="94" y="106"/>
      <point x="94" y="335" type="curve" smooth="yes"/>
      <point x="94" y="561"/>
      <point x="173" y="634"/>
      <point x="291" y="634" type="curve" smooth="yes"/>
      <point x="409" y="634"/>
      <point x="487" y="561"/>
      <point x="487" y="332" type="curve" smooth="yes"/>
      <point x="487" y="106"/>
      <point x="409" y="33"/>
      <point x="291" y="33" type="curve" smooth="yes"/>
    </contour>
  </outline>
</glyph>
<glyph name="P" format="2">
	<advance width="513"/>
	<unicode hex="0050"/>
	<note>
		P
  </note>
	<outline>
		<contour>
			<point x="122" y="0" type="line"/>
			<point x="122" y="232" type="line"/>
			<point x="151" y="229"/>
			<point x="177" y="228"/>
			<point x="208" y="228" type="curve" smooth="yes"/>
			<point x="389" y="228"/>
			<point x="471" y="306"/>
			<point x="471" y="451" type="curve" smooth="yes"/>
			<point x="471" y="604"/>
			<point x="387" y="674"/>
			<point x="224" y="674" type="curve" smooth="yes"/>
			<point x="171" y="674"/>
			<point x="123" y="668"/>
			<point x="77" y="660" type="curve"/>
			<point x="77" y="0" type="line"/>
		</contour>
		<contour>
			<point x="179" y="269"/>
			<point x="151" y="270"/>
			<point x="122" y="274" type="curve"/>
			<point x="122" y="625" type="line"/>
			<point x="154" y="630"/>
			<point x="188" y="633"/>
			<point x="226" y="633" type="curve" smooth="yes"/>
			<point x="360" y="633"/>
			<point x="424" y="578"/>
			<point x="424" y="449" type="curve" smooth="yes"/>
			<point x="424" y="327"/>
			<point x="359" y="269"/>
			<point x="210" y="269" type="curve" smooth="yes"/>
		</contour>
	</outline>
</glyph>
<glyph name="Q" format="2">
	<advance width="583"/>
	<unicode hex="0051"/>
	<note>
		Q
  </note>
	<outline>
		<contour>
			<point x="524" y="-48" type="line"/>
			<point x="434" y="-40"/>
			<point x="331" y="-22"/>
			<point x="256" y="14" type="curve"/>
			<point x="255" y="-2" type="line"/>
			<point x="440" y="-26"/>
			<point x="535" y="92"/>
			<point x="535" y="334" type="curve" smooth="yes"/>
			<point x="535" y="582"/>
			<point x="438" y="675"/>
			<point x="291" y="675" type="curve" smooth="yes"/>
			<point x="144" y="675"/>
			<point x="47" y="581"/>
			<point x="47" y="334" type="curve" smooth="yes"/>
			<point x="47" y="56"/>
			<point x="155" y="-46"/>
			<point x="517" y="-89" type="curve"/>
		</contour>
		<contour>
			<point x="173" y="33"/>
			<point x="94" y="106"/>
			<point x="94" y="335" type="curve" smooth="yes"/>
			<point x="94" y="561"/>
			<point x="173" y="634"/>
			<point x="291" y="634" type="curve" smooth="yes"/>
			<point x="409" y="634"/>
			<point x="487" y="561"/>
			<point x="487" y="332" type="curve" smooth="yes"/>
			<point x="487" y="106"/>
			<point x="409" y="33"/>
			<point x="291" y="33" type="curve" smooth="yes"/>
		</contour>
	</outline>
</glyph>
<glyph name="R" format="2">
	<advance width="548"/>
	<unicode hex="0052"/>
	<note>
		R
  </note>
	<outline>
		<contour>
			<point x="122" y="0" type="line"/>
			<point x="122" y="291" type="line"/>
			<point x="126" y="291" type="line"/>
			<point x="150" y="289"/>
			<point x="174" y="287"/>
			<point x="210" y="287" type="curve" smooth="yes"/>
			<point x="382" y="287"/>
			<point x="472" y="353"/>
			<point x="470" y="483" type="curve"/>
			<point x="470" y="612"/>
			<point x="393" y="674"/>
			<point x="231" y="674" type="curve" smooth="yes"/>
			<point x="170" y="674"/>
			<point x="121" y="667"/>
			<point x="77" y="660" type="curve"/>
			<point x="77" y="0" type="line"/>
		</contour>
		<contour>
			<point x="522" y="0" type="line"/>
			<point x="289" y="315" type="line"/>
			<point x="238" y="315" type="line"/>
			<point x="470" y="0" type="line"/>
		</contour>
		<contour>
			<point x="175" y="327"/>
			<point x="155" y="328"/>
			<point x="122" y="330" type="curve"/>
			<point x="122" y="625" type="line"/>
			<point x="156" y="630"/>
			<point x="187" y="634"/>
			<point x="232" y="634" type="curve" smooth="yes"/>
			<point x="370" y="634"/>
			<point x="426" y="587"/>
			<point x="426" y="482" type="curve" smooth="yes"/>
			<point x="426" y="377"/>
			<point x="362" y="327"/>
			<point x="208" y="327" type="curve" smooth="yes"/>
		</contour>
	</outline>
</glyph>
<glyph name="S" format="2">
	<unicode hex="0053"/>
	<advance width="433"/>
	<outline>
		<contour>
			<point x="321" y="-8"/>
			<point x="399" y="57"/>
			<point x="399" y="174" type="curve" smooth="yes"/>
			<point x="399" y="268"/>
			<point x="345" y="323"/>
			<point x="236" y="355" type="curve" smooth="yes"/>
			<point x="208" y="363" type="line" smooth="yes"/>
			<point x="115" y="392"/>
			<point x="79" y="427"/>
			<point x="79" y="502" type="curve" smooth="yes"/>
			<point x="79" y="587"/>
			<point x="133" y="634"/>
			<point x="245" y="634" type="curve" smooth="yes"/>
			<point x="288" y="634"/>
			<point x="330" y="628"/>
			<point x="372" y="615" type="curve"/>
			<point x="372" y="657" type="line"/>
			<point x="336" y="669"/>
			<point x="287" y="675"/>
			<point x="245" y="675" type="curve" smooth="yes"/>
			<point x="105" y="675"/>
			<point x="32" y="609"/>
			<point x="32" y="499" type="curve" smooth="yes"/>
			<point x="32" y="406"/>
			<point x="86" y="352"/>
			<point x="188" y="321" type="curve" smooth="yes"/>
			<point x="216" y="313" type="line" smooth="yes"/>
			<point x="313" y="284"/>
			<point x="352" y="248"/>
			<point x="352" y="171" type="curve" smooth="yes"/>
			<point x="352" y="80"/>
			<point x="296" y="33"/>
			<point x="186" y="33" type="curve" smooth="yes"/>
			<point x="141" y="33"/>
			<point x="92" y="41"/>
			<point x="41" y="59" type="curve"/>
			<point x="41" y="16" type="line"/>
			<point x="87" y="0"/>
			<point x="140" y="-8"/>
			<point x="184" y="-8" type="curve" smooth="yes"/>
		</contour>
	</outline>
	<note>
		S
	</note>
</glyph>
<glyph name="T" format="2">
  <advance width="481"/>
  <unicode hex="0054"/>
  <note>
    T
  </note>
  <outline>
    <contour>
      <point x="263" y="0" type="line"/>
      <point x="263" y="625" type="line"/>
      <point x="477" y="625" type="line"/>
      <point x="477" y="667" type="line"/>
      <point x="5" y="667" type="line"/>
      <point x="5" y="625" type="line"/>
      <point x="218" y="625" type="line"/>
      <point x="218" y="0" type="line"/>
    </contour>
  </outline>
</glyph>
<glyph name="U" format="2">
	<unicode hex="0055"/>
	<advance width="588"/>
	<outline>
		<contour>
			<point x="446" y="-8"/>
			<point x="513" y="68"/>
			<point x="513" y="235" type="curve" smooth="yes"/>
			<point x="513" y="667" type="line"/>
			<point x="469" y="667" type="line"/>
			<point x="469" y="229" type="line" smooth="yes"/>
			<point x="469" y="95"/>
			<point x="417" y="33"/>
			<point x="293" y="33" type="curve" smooth="yes"/>
			<point x="170" y="33"/>
			<point x="118" y="95"/>
			<point x="118" y="229" type="curve" smooth="yes"/>
			<point x="118" y="667" type="line"/>
			<point x="73" y="667" type="line"/>
			<point x="73" y="235" type="line" smooth="yes"/>
			<point x="73" y="68"/>
			<point x="141" y="-8"/>
			<point x="293" y="-8" type="curve" smooth="yes"/>
		</contour>
	</outline>
	<note>
		U
	</note>
</glyph>
<glyph name="V" format="2">
  <advance width="539"/>
  <unicode hex="0056"/>
  <note>
    V
  </note>
  <outline>
    <contour>
      <point x="302" y="0" type="line"/>
      <point x="533" y="667" type="line"/>
      <point x="487" y="667" type="line"/>
      <point x="265" y="23" type="line"/>
      <point x="275" y="23" type="line"/>
      <point x="54" y="667" type="line"/>
      <point x="5" y="667" type="line"/>
      <point x="237" y="0" type="line"/>
    </contour>
  </outline>
</glyph>
<glyph name="W" format="2">
	<advance width="869"/>
	<unicode hex="0057"/>
	<note>
		W
  </note>
	<outline>
		<contour>
			<point x="267" y="0" type="line"/>
			<point x="440" y="636" type="line"/>
			<point x="429" y="636" type="line"/>
			<point x="601" y="0" type="line"/>
			<point x="662" y="0" type="line"/>
			<point x="842" y="667" type="line"/>
			<point x="797" y="667" type="line"/>
			<point x="626" y="23" type="line"/>
			<point x="637" y="23" type="line"/>
			<point x="464" y="667" type="line"/>
			<point x="406" y="667" type="line"/>
			<point x="233" y="23" type="line"/>
			<point x="244" y="23" type="line"/>
			<point x="73" y="667" type="line"/>
			<point x="26" y="667" type="line"/>
			<point x="206" y="0" type="line"/>
		</contour>
	</outline>
</glyph>
<glyph name="X" format="1">
  <advance width="527"/>
  <unicode hex="0058"/>
  <note>
    X
  </note>
  <outline>
    <contour>
      <point x="515" y="0" type="line"/>
      <point x="290" y="339" type="line"/>
      <point x="264" y="376" type="line"/>
      <point x="70" y="667" type="line"/>
      <point x="17" y="667" type="line"/>
      <point x="237" y="338" type="line"/>
      <point x="263" y="300" type="line"/>
      <point x="462" y="0" type="line"/>
    </contour>
    <contour>
      <point x="64" y="0" type="line"/>
      <point x="263" y="300" type="line"/>
      <point x="290" y="339" type="line"/>
      <point x="509" y="667" type="line"/>
      <point x="457" y="667" type="line"/>
      <point x="264" y="376" type="line"/>
      <point x="237" y="338" type="line"/>
      <point x="11" y="0" type="line"/>
    </contour>
  </outline>
</glyph>
<glyph name="Y" format="2">
	<unicode hex="0059"/>
	<advance width="481"/>
	<outline>
		<contour>
			<point x="263" y="0" type="line"/>
			<point x="263" y="322" type="line"/>
			<point x="253" y="286" type="line"/>
			<point x="489" y="667" type="line"/>
			<point x="440" y="667" type="line"/>
			<point x="233" y="332" type="line"/>
			<point x="250" y="332" type="line"/>
			<point x="40" y="667" type="line"/>
			<point x="-11" y="667" type="line"/>
			<point x="229" y="286" type="line"/>
			<point x="218" y="322" type="line"/>
			<point x="218" y="0" type="line"/>
		</contour>
	</outline>
	<note>
		Y
	</note>
</glyph>
<glyph name="Z" format="2">
  <advance width="472"/>
  <unicode hex="005A"/>
  <note>
    Z
  </note>
  <outline>
    <contour>
      <point x="444" y="0" type="line"/>
      <point x="444" y="41" type="line"/>
      <point x="72" y="41" type="line"/>
      <point x="78" y="27" type="line"/>
      <point x="439" y="641" type="line"/>
      <point x="439" y="667" type="line"/>
      <point x="31" y="667" type="line"/>
      <point x="31" y="626" type="line"/>
      <point x="394" y="626" type="line"/>
      <point x="387" y="640" type="line"/>
      <point x="26" y="26" type="line"/>
      <point x="26" y="0" type="line"/>
    </contour>
  </outline>
</glyph>
<glyph name="bracketleft" format="2">
	<unicode hex="005B"/>
	<advance width="269"/>
	<outline>
		<contour>
			<point x="287" y="-198" type="line"/>
			<point x="287" y="-159" type="line"/>
			<point x="131" y="-159" type="line"/>
			<point x="131" y="689" type="line"/>
			<point x="287" y="689" type="line"/>
			<point x="287" y="729" type="line"/>
			<point x="86" y="729" type="line"/>
			<point x="86" y="-198" type="line"/>
		</contour>
	</outline>
	<note>
		bracketleft
	</note>
</glyph>
<glyph name="backslash" format="2">
  <advance width="228"/>
  <unicode hex="005C"/>
  <note>
    backslash
  </note>
  <outline>
    <contour>
      <point x="227" y="-108" type="line"/>
      <point x="46" y="729" type="line"/>
      <point x="0" y="729" type="line"/>
      <point x="181" y="-108" type="line"/>
    </contour>
  </outline>
</glyph>
<glyph name="bracketright" format="1">
  <advance width="269"/>
  <unicode hex="005D"/>
  <note>
    bracketright
  </note>
  <outline>
    <contour>
      <point x="-17" y="-198" type="line"/>
      <point x="184" y="-198" type="line"/>
      <point x="184" y="729" type="line"/>
      <point x="-18" y="729" type="line"/>
      <point x="-18" y="689" type="line"/>
      <point x="139" y="689" type="line"/>
      <point x="139" y="-159" type="line"/>
      <point x="-17" y="-159" type="line"/>
    </contour>
  </outline>
</glyph>
<glyph name="asciicircum" format="2">
  <advance width="484"/>
  <unicode hex="005E"/>
  <note>
    asciicircum
  </note>
  <outline>
    <contour>
      <point x="96" y="334" type="line"/>
      <point x="246" y="641" type="line"/>
      <point x="236" y="641" type="line"/>
      <point x="386" y="334" type="line"/>
      <point x="434" y="334" type="line"/>
      <point x="267" y="667" type="line"/>
      <point x="214" y="667" type="line"/>
      <point x="49" y="334" type="line"/>
    </contour>
  </outline>
</glyph>
<glyph name="underscore" format="1">
  <advance width="457"/>
  <unicode hex="005F"/>
  <note>
    underscore
  </note>
  <outline>
    <contour>
      <point x="41" y="-40" type="line"/>
      <point x="416" y="-40" type="line"/>
      <point x="416" y="0" type="line"/>
      <point x="41" y="0" type="line"/>
    </contour>
  </outline>
</glyph>
<glyph name="grave" format="1">
  <advance width="420"/>
  <unicode hex="0060"/>
  <note>
    grave
  </note>
  <outline>
    <contour>
      <point x="189" y="568" type="line"/>
      <point x="229" y="568" type="line"/>
      <point x="147" y="729" type="line"/>
      <point x="99" y="729" type="line"/>
    </contour>
  </outline>
</glyph>
<glyph name="a" format="1">
  <advance width="421"/>
  <unicode hex="0061"/>
  <note>
    a
  </note>
  <outline>
    <contour>
      <point x="232" y="-8"/>
      <point x="280" y="14"/>
      <point x="312" y="55" type="curve"/>
      <point x="315" y="55" type="line"/>
      <point x="319" y="0" type="line"/>
      <point x="357" y="0" type="line"/>
      <point x="357" y="323" type="line" smooth="yes"/>
      <point x="357" y="445"/>
      <point x="290" y="495"/>
      <point x="194" y="495" type="curve" smooth="yes"/>
      <point x="153" y="495"/>
      <point x="103" y="488"/>
      <point x="67" y="474" type="curve"/>
      <point x="67" y="433" type="line"/>
      <point x="110" y="449"/>
      <point x="156" y="455"/>
      <point x="190" y="455" type="curve" smooth="yes"/>
      <point x="250" y="455"/>
      <point x="313" y="429"/>
      <point x="313" y="325" type="curve" smooth="yes"/>
      <point x="313" y="102" type="line"/>
      <point x="277" y="50"/>
      <point x="229" y="32"/>
      <point x="185" y="32" type="curve" smooth="yes"/>
      <point x="121" y="32"/>
      <point x="82" y="63"/>
      <point x="82" y="121" type="curve" smooth="yes"/>
      <point x="82" y="186"/>
      <point x="132" y="219"/>
      <point x="202" y="227" type="curve" smooth="yes"/>
      <point x="335" y="242" type="line"/>
      <point x="330" y="278" type="line"/>
      <point x="201" y="263" type="line" smooth="yes"/>
      <point x="100" y="251"/>
      <point x="41" y="206"/>
      <point x="41" y="122" type="curve" smooth="yes"/>
      <point x="41" y="39"/>
      <point x="94" y="-8"/>
      <point x="177" y="-8" type="curve" smooth="yes"/>
    </contour>
  </outline>
</glyph>
<glyph name="b" format="2">
  <advance width="457"/>
  <unicode hex="0062"/>
  <note>
    b
  </note>
  <outline>
    <contour>
      <point x="335" y="-8"/>
      <point x="414" y="73"/>
      <point x="414" y="253" type="curve" smooth="yes"/>
      <point x="414" y="436"/>
      <point x="335" y="495"/>
      <point x="242" y="495" type="curve" smooth="yes"/>
      <point x="185" y="495"/>
      <point x="142" y="470"/>
      <point x="116" y="439" type="curve"/>
      <point x="113" y="439" type="line"/>
      <point x="113" y="729" type="line"/>
      <point x="68" y="729" type="line"/>
      <point x="68" y="10" type="line"/>
      <point x="103" y="-1"/>
      <point x="150" y="-8"/>
      <point x="191" y="-8" type="curve" smooth="yes"/>
    </contour>
    <contour>
      <point x="165" y="32"/>
      <point x="133" y="37"/>
      <point x="113" y="43" type="curve"/>
      <point x="113" y="388" type="line"/>
      <point x="140" y="432"/>
      <point x="187" y="454"/>
      <point x="233" y="454" type="curve" smooth="yes"/>
      <point x="308" y="454"/>
      <point x="367" y="412"/>
      <point x="367" y="248" type="curve" smooth="yes"/>
      <point x="367" y="92"/>
      <point x="306" y="32"/>
      <point x="193" y="32" type="curve" smooth="yes"/>
    </contour>
  </outline>
</glyph>
<glyph name="c" format="2">
	<advance width="353"/>
	<unicode hex="0063"/>
	<note>
		c
  </note>
	<outline>
		<contour>
			<point x="267" y="-8"/>
			<point x="303" y="-2"/>
			<point x="339" y="11" type="curve"/>
			<point x="339" y="53" type="line"/>
			<point x="299" y="38"/>
			<point x="267" y="33"/>
			<point x="238" y="33" type="curve" smooth="yes"/>
			<point x="141" y="33"/>
			<point x="89" y="85"/>
			<point x="89" y="246" type="curve" smooth="yes"/>
			<point x="89" y="403"/>
			<point x="144" y="454"/>
			<point x="256" y="454" type="curve" smooth="yes"/>
			<point x="280" y="454"/>
			<point x="309" y="450"/>
			<point x="339" y="442" type="curve"/>
			<point x="339" y="484" type="line"/>
			<point x="312" y="492"/>
			<point x="280" y="495"/>
			<point x="252" y="495" type="curve" smooth="yes"/>
			<point x="116" y="495"/>
			<point x="42" y="426"/>
			<point x="42" y="244" type="curve" smooth="yes"/>
			<point x="42" y="61"/>
			<point x="110" y="-8"/>
			<point x="232" y="-8" type="curve" smooth="yes"/>
		</contour>
	</outline>
</glyph>
<glyph name="d" format="1">
  <advance width="457"/>
  <unicode hex="0064"/>
  <note>
    d
  </note>
  <outline>
    <contour>
      <point x="273" y="-8"/>
      <point x="316" y="18"/>
      <point x="342" y="51" type="curve"/>
      <point x="346" y="51" type="line"/>
      <point x="349" y="0" type="line"/>
      <point x="389" y="0" type="line"/>
      <point x="389" y="729" type="line"/>
      <point x="344" y="729" type="line"/>
      <point x="344" y="489" type="line"/>
      <point x="321" y="493"/>
      <point x="293" y="495"/>
      <point x="268" y="495" type="curve" smooth="yes"/>
      <point x="131" y="495"/>
      <point x="42" y="414"/>
      <point x="42" y="234" type="curve" smooth="yes"/>
      <point x="42" y="52"/>
      <point x="121" y="-8"/>
      <point x="218" y="-8" type="curve" smooth="yes"/>
    </contour>
    <contour>
      <point x="147" y="33"/>
      <point x="89" y="75"/>
      <point x="89" y="238" type="curve" smooth="yes"/>
      <point x="89" y="394"/>
      <point x="161" y="455"/>
      <point x="266" y="455" type="curve" smooth="yes"/>
      <point x="292" y="455"/>
      <point x="323" y="452"/>
      <point x="344" y="447" type="curve"/>
      <point x="344" y="101" type="line"/>
      <point x="316" y="55"/>
      <point x="270" y="33"/>
      <point x="225" y="33" type="curve" smooth="yes"/>
    </contour>
  </outline>
</glyph>
<glyph name="e" format="2">
  <advance width="421"/>
  <unicode hex="0065"/>
  <note>
    e
  </note>
  <outline>
    <contour>
      <point x="283" y="-8"/>
      <point x="319" y="-3"/>
      <point x="362" y="11" type="curve"/>
      <point x="362" y="52" type="line"/>
      <point x="318" y="38"/>
      <point x="283" y="32"/>
      <point x="250" y="32" type="curve" smooth="yes"/>
      <point x="147" y="32"/>
      <point x="89" y="84"/>
      <point x="89" y="238" type="curve" smooth="yes"/>
      <point x="89" y="252" type="line" smooth="yes"/>
      <point x="89" y="409"/>
      <point x="151" y="457"/>
      <point x="217" y="457" type="curve" smooth="yes"/>
      <point x="282" y="457"/>
      <point x="339" y="409"/>
      <point x="339" y="252" type="curve"/>
      <point x="350" y="263" type="line"/>
      <point x="69" y="263" type="line"/>
      <point x="69" y="227" type="line"/>
      <point x="385" y="227" type="line"/>
      <point x="385" y="243" type="line" smooth="yes"/>
      <point x="385" y="425"/>
      <point x="311" y="495"/>
      <point x="217" y="495" type="curve" smooth="yes"/>
      <point x="117" y="495"/>
      <point x="42" y="424"/>
      <point x="42" y="244" type="curve" smooth="yes"/>
      <point x="42" y="61"/>
      <point x="121" y="-8"/>
      <point x="246" y="-8" type="curve" smooth="yes"/>
    </contour>
  </outline>
</glyph>
<glyph name="f" format="2">
  <advance width="286"/>
  <unicode hex="0066"/>
  <note>
    f
  </note>
  <outline>
    <contour>
      <point x="142" y="0" type="line"/>
      <point x="142" y="589" type="line" smooth="yes"/>
      <point x="142" y="667"/>
      <point x="178" y="697"/>
      <point x="248" y="697" type="curve" smooth="yes"/>
      <point x="269" y="697"/>
      <point x="287" y="695"/>
      <point x="307" y="691" type="curve"/>
      <point x="307" y="733" type="line"/>
      <point x="287" y="736"/>
      <point x="265" y="738"/>
      <point x="247" y="738" type="curve" smooth="yes"/>
      <point x="148" y="738"/>
      <point x="97" y="687"/>
      <point x="97" y="588" type="curve" smooth="yes"/>
      <point x="97" y="0" type="line"/>
    </contour>
    <contour>
      <point x="290" y="448" type="line"/>
      <point x="290" y="488" type="line"/>
      <point x="5" y="488" type="line"/>
      <point x="5" y="448" type="line"/>
    </contour>
  </outline>
</glyph>
<glyph name="h" format="2">
	<advance width="461"/>
	<unicode hex="0068"/>
	<note>
		h
  </note>
	<outline>
		<contour>
			<point x="113" y="0" type="line"/>
			<point x="113" y="378" type="line"/>
			<point x="148" y="433"/>
			<point x="206" y="452"/>
			<point x="251" y="452" type="curve" smooth="yes"/>
			<point x="313" y="452"/>
			<point x="355" y="421"/>
			<point x="355" y="324" type="curve" smooth="yes"/>
			<point x="355" y="0" type="line"/>
			<point x="400" y="0" type="line"/>
			<point x="400" y="324" type="line" smooth="yes"/>
			<point x="400" y="453"/>
			<point x="340" y="495"/>
			<point x="260" y="495" type="curve" smooth="yes"/>
			<point x="205" y="495"/>
			<point x="154" y="474"/>
			<point x="116" y="432" type="curve"/>
			<point x="113" y="432" type="line"/>
			<point x="113" y="729" type="line"/>
			<point x="68" y="729" type="line"/>
			<point x="68" y="0" type="line"/>
		</contour>
	</outline>
</glyph>
<glyph name="i" format="2">
	<unicode hex="0069"/>
	<advance width="183"/>
	<outline>
		<contour>
			<point x="113" y="0" type="line"/>
			<point x="113" y="488" type="line"/>
			<point x="68" y="488" type="line"/>
			<point x="68" y="0" type="line"/>
		</contour>
		<contour>
			<point x="112" y="607"/>
			<point x="126" y="620"/>
			<point x="126" y="641" type="curve" smooth="yes"/>
			<point x="126" y="662"/>
			<point x="112" y="676"/>
			<point x="90" y="676" type="curve" smooth="yes"/>
			<point x="69" y="676"/>
			<point x="55" y="662"/>
			<point x="55" y="641" type="curve" smooth="yes"/>
			<point x="55" y="620"/>
			<point x="69" y="607"/>
			<point x="90" y="607" type="curve" smooth="yes"/>
		</contour>
	</outline>
	<note>
		i
	</note>
</glyph>
<glyph name="j" format="2">
	<unicode hex="006A"/>
	<advance width="183"/>
	<outline>
		<contour>
			<point x="85" y="-117"/>
			<point x="113" y="-40"/>
			<point x="113" y="80" type="curve" smooth="yes"/>
			<point x="113" y="488" type="line"/>
			<point x="68" y="488" type="line"/>
			<point x="68" y="75" type="line" smooth="yes"/>
			<point x="68" y="-33"/>
			<point x="45" y="-104"/>
			<point x="-12" y="-187" type="curve"/>
			<point x="20" y="-208" type="line"/>
		</contour>
		<contour>
			<point x="112" y="608"/>
			<point x="126" y="621"/>
			<point x="126" y="642" type="curve" smooth="yes"/>
			<point x="126" y="664"/>
			<point x="112" y="677"/>
			<point x="90" y="677" type="curve" smooth="yes"/>
			<point x="69" y="677"/>
			<point x="55" y="664"/>
			<point x="55" y="642" type="curve" smooth="yes"/>
			<point x="55" y="621"/>
			<point x="69" y="608"/>
			<point x="90" y="608" type="curve" smooth="yes"/>
		</contour>
	</outline>
	<note>
		j
	</note>
</glyph>
<glyph name="k" format="1">
  <advance width="415"/>
  <unicode hex="006B"/>
  <note>
    k
  </note>
  <outline>
    <contour>
      <point x="363" y="0" type="line"/>
      <point x="416" y="0" type="line"/>
      <point x="227" y="257" type="line"/>
      <point x="227" y="243" type="line"/>
      <point x="402" y="488" type="line"/>
      <point x="350" y="488" type="line"/>
      <point x="179" y="249" type="line"/>
    </contour>
    <contour>
      <point x="105" y="229" type="line"/>
      <point x="202" y="229" type="line"/>
      <point x="202" y="269" type="line"/>
      <point x="105" y="269" type="line"/>
    </contour>
    <contour>
      <point x="68" y="0" type="line"/>
      <point x="113" y="0" type="line"/>
      <point x="113" y="729" type="line"/>
      <point x="68" y="729" type="line"/>
    </contour>
  </outline>
</glyph>
<glyph name="l" format="1">
  <advance width="183"/>
  <unicode hex="006C"/>
  <note>
    l
  </note>
  <outline>
    <contour>
      <point x="113" y="0" type="line"/>
      <point x="113" y="729" type="line"/>
      <point x="68" y="729" type="line"/>
      <point x="68" y="0" type="line"/>
    </contour>
  </outline>
</glyph>
<glyph name="m" format="2">
  <advance width="705"/>
  <unicode hex="006D"/>
  <note>
    m
  </note>
  <outline>
    <contour>
      <point x="113" y="0" type="line"/>
      <point x="113" y="376" type="line"/>
      <point x="146" y="433"/>
      <point x="200" y="453"/>
      <point x="240" y="453" type="curve" smooth="yes"/>
      <point x="294" y="453"/>
      <point x="333" y="424"/>
      <point x="333" y="336" type="curve" smooth="yes"/>
      <point x="333" y="0" type="line"/>
      <point x="378" y="0" type="line"/>
      <point x="378" y="338" type="line" smooth="yes"/>
      <point x="378" y="456"/>
      <point x="322" y="495"/>
      <point x="249" y="495" type="curve" smooth="yes"/>
      <point x="199" y="495"/>
      <point x="151" y="474"/>
      <point x="114" y="431" type="curve"/>
      <point x="110" y="431" type="line"/>
      <point x="106" y="488" type="line"/>
      <point x="68" y="488" type="line"/>
      <point x="68" y="0" type="line"/>
    </contour>
    <contour>
      <point x="641" y="0" type="line"/>
      <point x="641" y="337" type="line" smooth="yes"/>
      <point x="641" y="456"/>
      <point x="583" y="495"/>
      <point x="508" y="495" type="curve" smooth="yes"/>
      <point x="458" y="495"/>
      <point x="399" y="474"/>
      <point x="354" y="409" type="curve"/>
      <point x="368" y="365" type="line"/>
      <point x="401" y="433"/>
      <point x="460" y="453"/>
      <point x="500" y="453" type="curve" smooth="yes"/>
      <point x="555" y="453"/>
      <point x="596" y="424"/>
      <point x="596" y="336" type="curve" smooth="yes"/>
      <point x="596" y="0" type="line"/>
    </contour>
  </outline>
</glyph>
<glyph name="n" format="1">
  <advance width="461"/>
  <unicode hex="006E"/>
  <note>
    n
  </note>
  <outline>
    <contour>
      <point x="68" y="0" type="line"/>
      <point x="113" y="0" type="line"/>
      <point x="113" y="378" type="line"/>
      <point x="149" y="434"/>
      <point x="208" y="453"/>
      <point x="251" y="453" type="curve" smooth="yes"/>
      <point x="308" y="453"/>
      <point x="355" y="424"/>
      <point x="355" y="336" type="curve" smooth="yes"/>
      <point x="355" y="0" type="line"/>
      <point x="400" y="0" type="line"/>
      <point x="400" y="338" type="line" smooth="yes"/>
      <point x="400" y="455"/>
      <point x="334" y="495"/>
      <point x="259" y="495" type="curve" smooth="yes"/>
      <point x="202" y="495"/>
      <point x="151" y="472"/>
      <point x="114" y="431" type="curve"/>
      <point x="110" y="431" type="line"/>
      <point x="106" y="488" type="line"/>
      <point x="68" y="488" type="line"/>
    </contour>
  </outline>
</glyph>
<glyph name="o" format="1">
  <advance width="451"/>
  <unicode hex="006F"/>
  <note>
    o
  </note>
  <outline>
    <contour>
      <point x="338" y="-8"/>
      <point x="410" y="63"/>
      <point x="410" y="244" type="curve" smooth="yes"/>
      <point x="410" y="425"/>
      <point x="337" y="495"/>
      <point x="226" y="495" type="curve" smooth="yes"/>
      <point x="114" y="495"/>
      <point x="42" y="424"/>
      <point x="42" y="243" type="curve" smooth="yes"/>
      <point x="42" y="62"/>
      <point x="115" y="-8"/>
      <point x="226" y="-8" type="curve" smooth="yes"/>
    </contour>
    <contour>
      <point x="142" y="32"/>
      <point x="89" y="82"/>
      <point x="89" y="245" type="curve" smooth="yes"/>
      <point x="89" y="406"/>
      <point x="142" y="455"/>
      <point x="226" y="455" type="curve" smooth="yes"/>
      <point x="309" y="455"/>
      <point x="363" y="406"/>
      <point x="363" y="242" type="curve" smooth="yes"/>
      <point x="363" y="82"/>
      <point x="310" y="32"/>
      <point x="226" y="32" type="curve" smooth="yes"/>
    </contour>
  </outline>
</glyph>
<glyph name="p" format="2">
  <advance width="457"/>
  <unicode hex="0070"/>
  <note>
    p
  </note>
  <outline>
    <contour>
      <point x="113" y="-198" type="line"/>
      <point x="113" y="0" type="line"/>
      <point x="136" y="-3"/>
      <point x="164" y="-5"/>
      <point x="189" y="-5" type="curve" smooth="yes"/>
      <point x="315" y="-5"/>
      <point x="414" y="73"/>
      <point x="414" y="253" type="curve" smooth="yes"/>
      <point x="414" y="425"/>
      <point x="334" y="495"/>
      <point x="238" y="495" type="curve" smooth="yes"/>
      <point x="183" y="495"/>
      <point x="140" y="469"/>
      <point x="115" y="436" type="curve"/>
      <point x="110" y="436" type="line"/>
      <point x="107" y="488" type="line"/>
      <point x="68" y="488" type="line"/>
      <point x="68" y="-198" type="line"/>
    </contour>
    <contour>
      <point x="165" y="35"/>
      <point x="133" y="38"/>
      <point x="113" y="43" type="curve"/>
      <point x="113" y="385" type="line"/>
      <point x="140" y="432"/>
      <point x="187" y="454"/>
      <point x="232" y="454" type="curve" smooth="yes"/>
      <point x="306" y="454"/>
      <point x="367" y="402"/>
      <point x="367" y="248" type="curve" smooth="yes"/>
      <point x="367" y="92"/>
      <point x="283" y="35"/>
      <point x="190" y="35" type="curve" smooth="yes"/>
    </contour>
  </outline>
</glyph>
<glyph name="r" format="2">
	<advance width="289"/>
	<unicode hex="0072"/>
	<note>
		r
  </note>
	<outline>
		<contour>
			<point x="113" y="0" type="line"/>
			<point x="113" y="368" type="line"/>
			<point x="143" y="421"/>
			<point x="200" y="448"/>
			<point x="249" y="448" type="curve" smooth="yes"/>
			<point x="262" y="448"/>
			<point x="271" y="447"/>
			<point x="283" y="445" type="curve"/>
			<point x="283" y="489" type="line"/>
			<point x="274" y="491"/>
			<point x="264" y="492"/>
			<point x="251" y="492" type="curve" smooth="yes"/>
			<point x="199" y="492"/>
			<point x="147" y="468"/>
			<point x="114" y="422" type="curve"/>
			<point x="110" y="422" type="line"/>
			<point x="106" y="488" type="line"/>
			<point x="68" y="488" type="line"/>
			<point x="68" y="0" type="line"/>
		</contour>
	</outline>
</glyph>
<glyph name="s" format="2">
  <advance width="363"/>
  <unicode hex="0073"/>
  <note>
    s
  </note>
  <outline>
    <contour>
      <point x="273" y="-8"/>
      <point x="332" y="53"/>
      <point x="332" y="129" type="curve" smooth="yes"/>
      <point x="332" y="186"/>
      <point x="302" y="238"/>
      <point x="214" y="260" type="curve" smooth="yes"/>
      <point x="161" y="273" type="line" smooth="yes"/>
      <point x="105" y="287"/>
      <point x="83" y="315"/>
      <point x="83" y="362" type="curve" smooth="yes"/>
      <point x="83" y="414"/>
      <point x="126" y="455"/>
      <point x="209" y="455" type="curve" smooth="yes"/>
      <point x="243" y="455"/>
      <point x="271" y="452"/>
      <point x="308" y="442" type="curve"/>
      <point x="308" y="483" type="line"/>
      <point x="277" y="491"/>
      <point x="245" y="495"/>
      <point x="208" y="495" type="curve" smooth="yes"/>
      <point x="106" y="495"/>
      <point x="38" y="438"/>
      <point x="38" y="360" type="curve" smooth="yes"/>
      <point x="38" y="295"/>
      <point x="69" y="252"/>
      <point x="153" y="231" type="curve" smooth="yes"/>
      <point x="206" y="219" type="line"/>
      <point x="262" y="204"/>
      <point x="288" y="170"/>
      <point x="288" y="126" type="curve" smooth="yes"/>
      <point x="288" y="66"/>
      <point x="237" y="32"/>
      <point x="163" y="32" type="curve" smooth="yes"/>
      <point x="126" y="32"/>
      <point x="90" y="37"/>
      <point x="47" y="50" type="curve"/>
      <point x="47" y="10" type="line"/>
      <point x="83" y="-2"/>
      <point x="121" y="-8"/>
      <point x="163" y="-8" type="curve" smooth="yes"/>
    </contour>
  </outline>
</glyph>
<glyph name="u" format="2">
	<unicode hex="0075"/>
	<advance width="460"/>
	<outline>
		<contour>
			<point x="254" y="-8"/>
			<point x="306" y="12"/>
			<point x="344" y="55" type="curve"/>
			<point x="348" y="55" type="line"/>
			<point x="351" y="0" type="line"/>
			<point x="390" y="0" type="line"/>
			<point x="390" y="488" type="line"/>
			<point x="345" y="488" type="line"/>
			<point x="345" y="108" type="line"/>
			<point x="310" y="54"/>
			<point x="252" y="34"/>
			<point x="209" y="34" type="curve" smooth="yes"/>
			<point x="149" y="34"/>
			<point x="108" y="63"/>
			<point x="108" y="150" type="curve" smooth="yes"/>
			<point x="108" y="488" type="line"/>
			<point x="63" y="488" type="line"/>
			<point x="63" y="150" type="line" smooth="yes"/>
			<point x="63" y="31"/>
			<point x="122" y="-8"/>
			<point x="202" y="-8" type="curve" smooth="yes"/>
		</contour>
	</outline>
	<note>
		u
	</note>
</glyph>
<glyph name="v" format="2">
	<unicode hex="0076"/>
	<advance width="427"/>
	<outline>
		<contour>
			<point x="243" y="0" type="line"/>
			<point x="420" y="488" type="line"/>
			<point x="372" y="488" type="line"/>
			<point x="210" y="28" type="line"/>
			<point x="219" y="28" type="line"/>
			<point x="56" y="488" type="line"/>
			<point x="7" y="488" type="line"/>
			<point x="183" y="0" type="line"/>
		</contour>
	</outline>
	<note>
		v
	</note>
</glyph>
<glyph name="w" format="2">
  <advance width="701"/>
  <unicode hex="0077"/>
  <note>
    w
  </note>
  <outline>
    <contour>
      <point x="220" y="0" type="line"/>
      <point x="355" y="453" type="line"/>
      <point x="348" y="453" type="line"/>
      <point x="481" y="0" type="line"/>
      <point x="538" y="0" type="line"/>
      <point x="676" y="488" type="line"/>
      <point x="631" y="488" type="line"/>
      <point x="505" y="34" type="line"/>
      <point x="513" y="34" type="line"/>
      <point x="380" y="488" type="line"/>
      <point x="323" y="488" type="line"/>
      <point x="190" y="34" type="line"/>
      <point x="197" y="34" type="line"/>
      <point x="71" y="488" type="line"/>
      <point x="26" y="488" type="line"/>
      <point x="164" y="0" type="line"/>
    </contour>
  </outline>
</glyph>
<glyph name="x" format="2">
  <advance width="403"/>
  <unicode hex="0078"/>
  <note>
    x
  </note>
  <outline>
    <contour>
      <point x="394" y="0" type="line"/>
      <point x="227" y="247" type="line"/>
      <point x="201" y="283" type="line"/>
      <point x="63" y="488" type="line"/>
      <point x="10" y="488" type="line"/>
      <point x="174" y="246" type="line"/>
      <point x="200" y="211" type="line"/>
      <point x="341" y="0" type="line"/>
    </contour>
    <contour>
      <point x="60" y="0" type="line"/>
      <point x="200" y="211" type="line"/>
      <point x="227" y="247" type="line"/>
      <point x="390" y="488" type="line"/>
      <point x="339" y="488" type="line"/>
      <point x="201" y="283" type="line"/>
      <point x="174" y="246" type="line"/>
      <point x="8" y="0" type="line"/>
    </contour>
  </outline>
</glyph>
<glyph name="y" format="2">
  <advance width="427"/>
  <unicode hex="0079"/>
  <note>
    y
  </note>
  <outline>
    <contour>
      <point x="172" y="-198" type="line"/>
      <point x="420" y="488" type="line"/>
      <point x="372" y="488" type="line"/>
      <point x="210" y="28" type="line"/>
      <point x="198" y="0" type="line"/>
      <point x="126" y="-198" type="line"/>
    </contour>
    <contour>
      <point x="228" y="0" type="line"/>
      <point x="56" y="488" type="line"/>
      <point x="7" y="488" type="line"/>
      <point x="183" y="0" type="line"/>
    </contour>
  </outline>
</glyph>
<glyph name="z" format="1">
  <advance width="371"/>
  <unicode hex="007A"/>
  <note>
    z
  </note>
  <outline>
    <contour>
      <point x="346" y="0" type="line"/>
      <point x="346" y="40" type="line"/>
      <point x="74" y="40" type="line"/>
      <point x="74" y="26" type="line"/>
      <point x="341" y="461" type="line"/>
      <point x="341" y="488" type="line"/>
      <point x="31" y="488" type="line"/>
      <point x="31" y="448" type="line"/>
      <point x="293" y="448" type="line"/>
      <point x="293" y="462" type="line"/>
      <point x="26" y="27" type="line"/>
      <point x="26" y="0" type="line"/>
    </contour>
  </outline>
</glyph>
<glyph name="asciitilde" format="1">
  <advance width="472"/>
  <unicode hex="007E"/>
  <note>
    asciitilde
  </note>
  <outline>
    <contour>
      <point x="350" y="294"/>
      <point x="382" y="309"/>
      <point x="403" y="335" type="curve"/>
      <point x="403" y="382" type="line"/>
      <point x="377" y="349"/>
      <point x="348" y="334"/>
      <point x="313" y="334" type="curve" smooth="yes"/>
      <point x="290" y="334"/>
      <point x="268" y="345"/>
      <point x="244" y="358" type="curve" smooth="yes"/>
      <point x="217" y="371"/>
      <point x="188" y="386"/>
      <point x="156" y="386" type="curve" smooth="yes"/>
      <point x="120" y="386"/>
      <point x="88" y="371"/>
      <point x="67" y="345" type="curve"/>
      <point x="67" y="298" type="line"/>
      <point x="92" y="331"/>
      <point x="122" y="347"/>
      <point x="157" y="347" type="curve" smooth="yes"/>
      <point x="180" y="347"/>
      <point x="202" y="335"/>
      <point x="226" y="323" type="curve" smooth="yes"/>
      <point x="253" y="309"/>
      <point x="282" y="294"/>
      <point x="314" y="294" type="curve" smooth="yes"/>
    </contour>
  </outline>
</glyph>
<glyph name="brokenbar" format="2">
	<unicode hex="00A6"/>
	<advance width="197"/>
	<outline>
		<contour>
			<point x="119" y="377" type="line"/>
			<point x="119" y="729" type="line"/>
			<point x="77" y="729" type="line"/>
			<point x="77" y="377" type="line"/>
		</contour>
		<contour>
			<point x="119" y="-198" type="line"/>
			<point x="119" y="153" type="line"/>
			<point x="77" y="153" type="line"/>
			<point x="77" y="-198" type="line"/>
		</contour>
	</outline>
	<note>
		brokenbar
	</note>
</glyph>
<glyph name="section" format="2">
  <advance width="409"/>
  <unicode hex="00A7"/>
  <note>
    section
  </note>
  <outline>
    <contour>
      <point x="336" y="227"/>
      <point x="357" y="263"/>
      <point x="357" y="309" type="curve" smooth="yes"/>
      <point x="357" y="376"/>
      <point x="327" y="418"/>
      <point x="240" y="440" type="curve" smooth="yes"/>
      <point x="185" y="453" type="line" smooth="yes"/>
      <point x="128" y="467"/>
      <point x="106" y="495"/>
      <point x="106" y="542" type="curve" smooth="yes"/>
      <point x="106" y="594"/>
      <point x="143" y="636"/>
      <point x="234" y="636" type="curve" smooth="yes"/>
      <point x="267" y="636"/>
      <point x="295" y="632"/>
      <point x="331" y="623" type="curve"/>
      <point x="331" y="663" type="line"/>
      <point x="300" y="670"/>
      <point x="269" y="674"/>
      <point x="232" y="674" type="curve" smooth="yes"/>
      <point x="119" y="674"/>
      <point x="62" y="617"/>
      <point x="62" y="540" type="curve" smooth="yes"/>
      <point x="62" y="476"/>
      <point x="93" y="434"/>
      <point x="177" y="413" type="curve" smooth="yes"/>
      <point x="231" y="400" type="line" smooth="yes"/>
      <point x="288" y="386"/>
      <point x="316" y="360"/>
      <point x="316" y="306" type="curve" smooth="yes"/>
      <point x="316" y="271"/>
      <point x="301" y="246"/>
      <point x="273" y="228" type="curve"/>
      <point x="302" y="203" type="line"/>
    </contour>
    <contour>
      <point x="287" y="-8"/>
      <point x="346" y="43"/>
      <point x="346" y="128" type="curve" smooth="yes"/>
      <point x="346" y="194"/>
      <point x="316" y="235"/>
      <point x="229" y="257" type="curve" smooth="yes"/>
      <point x="174" y="270" type="line" smooth="yes"/>
      <point x="117" y="284"/>
      <point x="93" y="314"/>
      <point x="93" y="362" type="curve" smooth="yes"/>
      <point x="93" y="394"/>
      <point x="107" y="421"/>
      <point x="137" y="440" type="curve"/>
      <point x="107" y="463" type="line"/>
      <point x="73" y="439"/>
      <point x="52" y="403"/>
      <point x="52" y="360" type="curve" smooth="yes"/>
      <point x="52" y="294"/>
      <point x="83" y="252"/>
      <point x="166" y="231" type="curve" smooth="yes"/>
      <point x="220" y="218" type="line" smooth="yes"/>
      <point x="276" y="204"/>
      <point x="302" y="179"/>
      <point x="302" y="126" type="curve" smooth="yes"/>
      <point x="302" y="65"/>
      <point x="261" y="31"/>
      <point x="177" y="31" type="curve" smooth="yes"/>
      <point x="140" y="31"/>
      <point x="105" y="36"/>
      <point x="61" y="50" type="curve"/>
      <point x="61" y="9" type="line"/>
      <point x="97" y="-2"/>
      <point x="136" y="-8"/>
      <point x="177" y="-8" type="curve" smooth="yes"/>
    </contour>
  </outline>
</glyph>
<glyph name="copyright" format="2">
	<unicode hex="00A9"/>
	<advance width="765"/>
	<outline>
		<contour>
			<point x="584" y="-10"/>
			<point x="718" y="127"/>
			<point x="718" y="334" type="curve" smooth="yes"/>
			<point x="718" y="540"/>
			<point x="584" y="677"/>
			<point x="382" y="677" type="curve" smooth="yes"/>
			<point x="181" y="677"/>
			<point x="47" y="540"/>
			<point x="47" y="334" type="curve" smooth="yes"/>
			<point x="47" y="127"/>
			<point x="181" y="-10"/>
			<point x="382" y="-10" type="curve" smooth="yes"/>
		</contour>
		<contour>
			<point x="435" y="146"/>
			<point x="467" y="151"/>
			<point x="497" y="165" type="curve"/>
			<point x="497" y="202" type="line"/>
			<point x="460" y="188"/>
			<point x="429" y="184"/>
			<point x="403" y="184" type="curve" smooth="yes"/>
			<point x="318" y="184"/>
			<point x="266" y="231"/>
			<point x="266" y="332" type="curve" smooth="yes"/>
			<point x="266" y="431"/>
			<point x="318" y="478"/>
			<point x="412" y="478" type="curve" smooth="yes"/>
			<point x="443" y="478"/>
			<point x="469" y="473"/>
			<point x="497" y="466" type="curve"/>
			<point x="497" y="504" type="line"/>
			<point x="468" y="512"/>
			<point x="441" y="516"/>
			<point x="410" y="516" type="curve" smooth="yes"/>
			<point x="291" y="516"/>
			<point x="224" y="449"/>
			<point x="224" y="331" type="curve" smooth="yes"/>
			<point x="224" y="209"/>
			<point x="294" y="146"/>
			<point x="399" y="146" type="curve" smooth="yes"/>
		</contour>
		<contour>
			<point x="202" y="27"/>
			<point x="84" y="148"/>
			<point x="84" y="334" type="curve" smooth="yes"/>
			<point x="84" y="519"/>
			<point x="202" y="640"/>
			<point x="382" y="640" type="curve" smooth="yes"/>
			<point x="563" y="640"/>
			<point x="681" y="519"/>
			<point x="681" y="334" type="curve" smooth="yes"/>
			<point x="681" y="148"/>
			<point x="563" y="27"/>
			<point x="382" y="27" type="curve" smooth="yes"/>
		</contour>
	</outline>
	<note>
		copyright
	</note>
</glyph>
<glyph name="guillemetleft" format="2">
  <advance width="321"/>
  <unicode hex="00AB"/>
  <outline>
    <contour>
      <point x="272" y="35" type="line"/>
      <point x="208" y="139" type="line"/>
      <point x="272" y="244" type="line"/>
      <point x="256" y="253" type="line"/>
      <point x="219" y="208"/>
      <point x="186" y="170"/>
      <point x="156" y="143" type="curve"/>
      <point x="156" y="136" type="line"/>
      <point x="186" y="108"/>
      <point x="219" y="70"/>
      <point x="256" y="25" type="curve"/>
    </contour>
    <contour>
      <point x="165" y="35" type="line"/>
      <point x="101" y="139" type="line"/>
      <point x="165" y="244" type="line"/>
      <point x="149" y="253" type="line"/>
      <point x="112" y="208"/>
      <point x="78" y="170"/>
      <point x="49" y="143" type="curve"/>
      <point x="49" y="136" type="line"/>
      <point x="78" y="108"/>
      <point x="112" y="70"/>
      <point x="149" y="25" type="curve"/>
    </contour>
  </outline>
</glyph>
<glyph name="registered" format="2">
	<advance width="677"/>
	<unicode hex="00AE"/>
	<note>
		registered
  </note>
	<outline>
		<contour>
			<point x="501" y="121"/>
			<point x="613" y="234"/>
			<point x="613" y="398" type="curve" smooth="yes"/>
			<point x="613" y="562"/>
			<point x="501" y="675"/>
			<point x="338" y="675" type="curve" smooth="yes"/>
			<point x="175" y="675"/>
			<point x="63" y="562"/>
			<point x="63" y="398" type="curve" smooth="yes"/>
			<point x="63" y="234"/>
			<point x="175" y="121"/>
			<point x="338" y="121" type="curve" smooth="yes"/>
		</contour>
		<contour>
			<point x="454" y="270" type="line"/>
			<point x="376" y="386" type="line"/>
			<point x="344" y="374" type="line"/>
			<point x="416" y="270" type="line"/>
		</contour>
		<contour>
			<point x="193" y="155"/>
			<point x="98" y="250"/>
			<point x="98" y="398" type="curve" smooth="yes"/>
			<point x="98" y="545"/>
			<point x="193" y="642"/>
			<point x="338" y="642" type="curve" smooth="yes"/>
			<point x="484" y="642"/>
			<point x="578" y="545"/>
			<point x="578" y="398" type="curve" smooth="yes"/>
			<point x="578" y="250"/>
			<point x="484" y="155"/>
			<point x="338" y="155" type="curve" smooth="yes"/>
		</contour>
		<contour>
			<point x="278" y="270" type="line"/>
			<point x="278" y="371" type="line"/>
			<point x="332" y="371" type="line" smooth="yes"/>
			<point x="406" y="371"/>
			<point x="443" y="400"/>
			<point x="443" y="454" type="curve" smooth="yes"/>
			<point x="443" y="507"/>
			<point x="405" y="537"/>
			<point x="332" y="537" type="curve" smooth="yes"/>
			<point x="244" y="537" type="line"/>
			<point x="244" y="270" type="line"/>
		</contour>
		<contour>
			<point x="278" y="506" type="line"/>
			<point x="338" y="506" type="line" smooth="yes"/>
			<point x="386" y="506"/>
			<point x="409" y="489"/>
			<point x="409" y="454" type="curve" smooth="yes"/>
			<point x="409" y="418"/>
			<point x="387" y="402"/>
			<point x="338" y="402" type="curve" smooth="yes"/>
			<point x="278" y="402" type="line"/>
		</contour>
	</outline>
</glyph>
<glyph name="paragraph" format="1">
  <advance width="513"/>
  <unicode hex="00B6"/>
  <note>
    paragraph
  </note>
  <outline>
    <contour>
      <point x="338" y="0" type="line"/>
      <point x="338" y="667" type="line"/>
      <point x="305" y="671"/>
      <point x="267" y="674"/>
      <point x="228" y="674" type="curve" smooth="yes"/>
      <point x="105" y="674"/>
      <point x="41" y="604"/>
      <point x="41" y="451" type="curve" smooth="yes"/>
      <point x="41" y="306"/>
      <point x="103" y="228"/>
      <point x="239" y="228" type="curve" smooth="yes"/>
      <point x="261" y="228"/>
      <point x="277" y="229"/>
      <point x="298" y="231" type="curve"/>
      <point x="298" y="0" type="line"/>
    </contour>
    <contour>
      <point x="435" y="0" type="line"/>
      <point x="435" y="667" type="line"/>
      <point x="396" y="667" type="line"/>
      <point x="396" y="0" type="line"/>
    </contour>
  </outline>
</glyph>
<glyph name="onehalf" format="1">
  <advance width="757"/>
  <unicode hex="00BD"/>
  <note>
    onehalf
  </note>
  <outline>
    <contour>
      <point x="163" y="287" type="line"/>
      <point x="202" y="287" type="line"/>
      <point x="202" y="730" type="line"/>
      <point x="178" y="730" type="line"/>
      <point x="61" y="644" type="line"/>
      <point x="61" y="604" type="line"/>
      <point x="178" y="689" type="line"/>
      <point x="163" y="698" type="line"/>
    </contour>
    <contour>
      <point x="64" y="278" type="line"/>
      <point x="296" y="278" type="line"/>
      <point x="296" y="314" type="line"/>
      <point x="64" y="314" type="line"/>
    </contour>
    <contour>
      <point x="188" y="-61" type="line"/>
      <point x="229" y="-61" type="line"/>
      <point x="568" y="729" type="line"/>
      <point x="527" y="729" type="line"/>
    </contour>
    <contour>
      <point x="469" y="-61" type="line"/>
      <point x="711" y="-61" type="line"/>
      <point x="711" y="-25" type="line"/>
      <point x="509" y="-25" type="line"/>
      <point x="514" y="-37" type="line"/>
      <point x="628" y="122" type="line" smooth="yes"/>
      <point x="675" y="189"/>
      <point x="694" y="231"/>
      <point x="695" y="278" type="curve" smooth="yes"/>
      <point x="695" y="361"/>
      <point x="644" y="395"/>
      <point x="560" y="395" type="curve" smooth="yes"/>
      <point x="524" y="395"/>
      <point x="489" y="390"/>
      <point x="464" y="378" type="curve"/>
      <point x="464" y="342" type="line"/>
      <point x="492" y="353"/>
      <point x="522" y="359"/>
      <point x="557" y="359" type="curve" smooth="yes"/>
      <point x="620" y="359"/>
      <point x="654" y="335"/>
      <point x="654" y="275" type="curve" smooth="yes"/>
      <point x="654" y="236"/>
      <point x="637" y="198"/>
      <point x="595" y="140" type="curve" smooth="yes"/>
      <point x="469" y="-38" type="line"/>
    </contour>
  </outline>
</glyph>
<glyph name="multiply" format="2">
	<unicode hex="00D7"/>
	<advance width="437"/>
	<outline>
		<contour>
			<point x="219" y="315" type="line"/>
			<point x="354" y="179" type="line"/>
			<point x="382" y="207" type="line"/>
			<point x="246" y="343" type="line"/>
			<point x="382" y="478" type="line"/>
			<point x="354" y="506" type="line"/>
			<point x="219" y="370" type="line"/>
			<point x="82" y="506" type="line"/>
			<point x="55" y="478" type="line"/>
			<point x="191" y="343" type="line"/>
			<point x="55" y="207" type="line"/>
			<point x="82" y="179" type="line"/>
		</contour>
	</outline>
	<note>
		multiply
	</note>
</glyph>
<glyph name="divide" format="2">
  <advance width="472"/>
  <unicode hex="00F7"/>
  <note>
    divide
  </note>
  <outline>
    <contour>
      <point x="403" y="323" type="line"/>
      <point x="403" y="362" type="line"/>
      <point x="67" y="362" type="line"/>
      <point x="67" y="323" type="line"/>
    </contour>
    <contour>
      <point x="256" y="156"/>
      <point x="270" y="169"/>
      <point x="270" y="190" type="curve" smooth="yes"/>
      <point x="270" y="211"/>
      <point x="256" y="225"/>
      <point x="235" y="225" type="curve" smooth="yes"/>
      <point x="214" y="225"/>
      <point x="200" y="211"/>
      <point x="200" y="190" type="curve" smooth="yes"/>
      <point x="200" y="169"/>
      <point x="215" y="156"/>
      <point x="235" y="156" type="curve" smooth="yes"/>
    </contour>
    <contour>
      <point x="256" y="460"/>
      <point x="270" y="473"/>
      <point x="270" y="495" type="curve" smooth="yes"/>
      <point x="270" y="515"/>
      <point x="256" y="530"/>
      <point x="235" y="530" type="curve" smooth="yes"/>
      <point x="214" y="530"/>
      <point x="200" y="516"/>
      <point x="200" y="495" type="curve" smooth="yes"/>
      <point x="200" y="473"/>
      <point x="215" y="460"/>
      <point x="235" y="460" type="curve" smooth="yes"/>
    </contour>
  </outline>
</glyph>
<glyph name="sinAnusvara" format="1">
  <advance width="330"/>
  <unicode hex="0D82"/>
  <outline>
    <contour>
      <point x="12" y="254" type="curve" smooth="yes"/>
      <point x="12" y="160"/>
      <point x="75" y="63"/>
      <point x="166" y="63" type="curve" smooth="yes"/>
      <point x="259" y="63"/>
      <point x="317" y="157"/>
      <point x="317" y="254" type="curve" smooth="yes"/>
      <point x="317" y="350"/>
      <point x="258" y="445"/>
      <point x="166" y="445" type="curve" smooth="yes"/>
      <point x="74" y="445"/>
      <point x="12" y="350"/>
    </contour>
    <contour>
      <point x="56" y="254" type="curve" smooth="yes"/>
      <point x="56" y="326"/>
      <point x="99" y="403"/>
      <point x="166" y="403" type="curve" smooth="yes"/>
      <point x="236" y="403"/>
      <point x="274" y="329"/>
      <point x="274" y="254" type="curve" smooth="yes"/>
      <point x="274" y="184"/>
      <point x="230" y="105"/>
      <point x="165" y="105" type="curve" smooth="yes"/>
      <point x="97" y="105"/>
      <point x="56" y="182"/>
    </contour>
  </outline>
</glyph>
<glyph name="sinVisarga" format="1">
  <advance width="375"/>
  <unicode hex="0D83"/>
  <outline>
    <contour>
      <point x="109" y="86" type="curve" smooth="yes"/>
      <point x="109" y="40"/>
      <point x="147" y="1"/>
      <point x="194" y="1" type="curve" smooth="yes"/>
      <point x="240" y="1"/>
      <point x="278" y="39"/>
      <point x="278" y="86" type="curve" smooth="yes"/>
      <point x="278" y="133"/>
      <point x="241" y="170"/>
      <point x="194" y="170" type="curve" smooth="yes"/>
      <point x="146" y="170"/>
      <point x="109" y="132"/>
    </contour>
    <contour>
      <point x="109" y="351" type="curve" smooth="yes"/>
      <point x="109" y="305"/>
      <point x="147" y="267"/>
      <point x="194" y="267" type="curve" smooth="yes"/>
      <point x="240" y="267"/>
      <point x="278" y="304"/>
      <point x="278" y="351" type="curve" smooth="yes"/>
      <point x="278" y="399"/>
      <point x="240" y="436"/>
      <point x="194" y="436" type="curve" smooth="yes"/>
      <point x="147" y="436"/>
      <point x="109" y="398"/>
    </contour>
    <contour>
      <point x="127" y="85" type="curve" smooth="yes"/>
      <point x="127" y="122"/>
      <point x="157" y="152"/>
      <point x="193" y="152" type="curve" smooth="yes"/>
      <point x="229" y="152"/>
      <point x="260" y="122"/>
      <point x="260" y="85" type="curve" smooth="yes"/>
      <point x="260" y="47"/>
      <point x="230" y="19"/>
      <point x="193" y="19" type="curve" smooth="yes"/>
      <point x="156" y="19"/>
      <point x="127" y="48"/>
    </contour>
    <contour>
      <point x="127" y="351" type="curve" smooth="yes"/>
      <point x="127" y="388"/>
      <point x="157" y="418"/>
      <point x="193" y="418" type="curve" smooth="yes"/>
      <point x="229" y="418"/>
      <point x="260" y="388"/>
      <point x="260" y="351" type="curve" smooth="yes"/>
      <point x="260" y="313"/>
      <point x="230" y="285"/>
      <point x="193" y="285" type="curve" smooth="yes"/>
      <point x="156" y="285"/>
      <point x="127" y="314"/>
    </contour>
  </outline>
</glyph>
<glyph name="sinA" format="1">
  <advance width="520"/>
  <unicode hex="0D85"/>
  <outline>
    <contour>
      <point x="10" y="195" type="curve" smooth="yes"/>
      <point x="10" y="73"/>
      <point x="78" y="-1"/>
      <point x="199" y="-1" type="curve" smooth="yes"/>
      <point x="332" y="-1" type="line"/>
      <point x="332" y="-187" type="line"/>
      <point x="380" y="-187" type="line"/>
      <point x="380" y="-1" type="line"/>
      <point x="447" y="-1" type="line"/>
      <point x="452" y="42" type="line"/>
      <point x="380" y="42" type="line"/>
      <point x="380" y="208" type="line"/>
      <point x="500" y="208"/>
      <point x="505" y="283"/>
      <point x="505" y="304" type="curve" smooth="yes"/>
      <point x="505" y="365"/>
      <point x="468" y="389"/>
      <point x="423" y="389" type="curve"/>
      <point x="423" y="428"/>
      <point x="441" y="441"/>
      <point x="484" y="441" type="curve" smooth="yes"/>
      <point x="499" y="441" type="line"/>
      <point x="499" y="479" type="line"/>
      <point x="415" y="479"/>
      <point x="386" y="458"/>
      <point x="374" y="376" type="curve"/>
      <point x="378" y="377" type="line"/>
      <point x="378" y="451"/>
      <point x="323" y="505"/>
      <point x="216" y="505" type="curve" smooth="yes"/>
      <point x="135" y="505"/>
      <point x="50" y="472"/>
      <point x="50" y="395" type="curve" smooth="yes"/>
      <point x="50" y="389"/>
      <point x="51" y="386"/>
      <point x="52" y="384" type="curve"/>
      <point x="96" y="384" type="line"/>
      <point x="96" y="447"/>
      <point x="180" y="464"/>
      <point x="218" y="464" type="curve" smooth="yes"/>
      <point x="282" y="464"/>
      <point x="332" y="439"/>
      <point x="332" y="393" type="curve"/>
      <point x="208" y="393" type="line" smooth="yes"/>
      <point x="114" y="393"/>
      <point x="10" y="319"/>
    </contour>
    <contour>
      <point x="57" y="194" type="curve" smooth="yes"/>
      <point x="57" y="318"/>
      <point x="144" y="354"/>
      <point x="207" y="354" type="curve" smooth="yes"/>
      <point x="354" y="354" type="line"/>
      <point x="332" y="375" type="line"/>
      <point x="332" y="42" type="line"/>
      <point x="209" y="42" type="line" smooth="yes"/>
      <point x="91" y="42"/>
      <point x="57" y="125"/>
    </contour>
    <contour>
      <point x="378" y="250" type="curve"/>
      <point x="378" y="352" type="line"/>
      <point x="398" y="352" type="line" smooth="yes"/>
      <point x="446" y="352"/>
      <point x="463" y="330"/>
      <point x="463" y="300" type="curve" smooth="yes"/>
      <point x="463" y="263"/>
      <point x="424" y="250"/>
    </contour>
  </outline>
</glyph>
<glyph name="sinI" format="1">
  <advance width="532"/>
  <unicode hex="0D89"/>
  <outline>
    <contour>
      <point x="330" y="-151"/>
      <point x="407" y="-130"/>
      <point x="418" y="-43" type="curve" smooth="yes"/>
      <point x="418" y="-4"/>
      <point x="398" y="38"/>
      <point x="352" y="48" type="curve"/>
      <point x="458" y="75"/>
      <point x="503" y="145"/>
      <point x="503" y="273" type="curve" smooth="yes"/>
      <point x="503" y="423"/>
      <point x="410" y="505"/>
      <point x="232" y="505" type="curve" smooth="yes"/>
      <point x="119" y="505"/>
      <point x="15" y="416"/>
      <point x="15" y="279" type="curve" smooth="yes"/>
      <point x="15" y="164"/>
      <point x="62" y="90"/>
      <point x="179" y="90" type="curve" smooth="yes"/>
      <point x="273" y="90"/>
      <point x="312" y="127"/>
      <point x="312" y="233" type="curve" smooth="yes"/>
      <point x="312" y="331" type="line"/>
      <point x="269" y="330" type="line"/>
      <point x="269" y="222" type="line"/>
      <point x="269" y="187"/>
      <point x="254" y="134"/>
      <point x="184" y="134" type="curve" smooth="yes"/>
      <point x="105" y="134"/>
      <point x="60" y="183"/>
      <point x="60" y="273" type="curve" smooth="yes"/>
      <point x="60" y="384"/>
      <point x="123" y="466"/>
      <point x="240" y="466" type="curve" smooth="yes"/>
      <point x="403" y="466"/>
      <point x="457" y="422"/>
      <point x="457" y="253" type="curve" smooth="yes"/>
      <point x="457" y="133"/>
      <point x="366" y="67"/>
      <point x="230" y="67" type="curve" smooth="yes"/>
      <point x="189" y="67" type="line"/>
      <point x="189" y="24" type="line"/>
      <point x="260" y="24" type="line" smooth="yes"/>
      <point x="327" y="24"/>
      <point x="369" y="13"/>
      <point x="369" y="-43" type="curve" smooth="yes"/>
      <point x="369" y="-78"/>
      <point x="322" y="-108"/>
      <point x="246" y="-108" type="curve" smooth="yes"/>
      <point x="201" y="-108"/>
      <point x="110" y="-102"/>
      <point x="117" y="-44" type="curve" smooth="yes"/>
      <point x="123" y="-8" type="line"/>
      <point x="85" y="-8" type="line"/>
      <point x="78" y="-20"/>
      <point x="74" y="-34"/>
      <point x="74" y="-46" type="curve" smooth="yes"/>
      <point x="74" y="-108"/>
      <point x="124" y="-151"/>
      <point x="257" y="-151" type="curve" smooth="yes"/>
    </contour>
  </outline>
</glyph>
<glyph name="sinIi" format="1">
  <advance width="486"/>
  <unicode hex="0D8A"/>
  <outline>
    <contour>
      <point x="478" y="474" type="line"/>
      <point x="497" y="480"/>
      <point x="511" y="504"/>
      <point x="511" y="526" type="curve" smooth="yes"/>
      <point x="511" y="556"/>
      <point x="485" y="582"/>
      <point x="455" y="582" type="curve" smooth="yes"/>
      <point x="423" y="582"/>
      <point x="398" y="558"/>
      <point x="398" y="526" type="curve" smooth="yes"/>
      <point x="398" y="494"/>
      <point x="423" y="470"/>
      <point x="455" y="470" type="curve"/>
    </contour>
    <contour>
      <point x="215" y="540"/>
      <point x="238" y="564"/>
      <point x="238" y="596" type="curve"/>
      <point x="234" y="619" type="line"/>
      <point x="224" y="641"/>
      <point x="207" y="652"/>
      <point x="183" y="652" type="curve"/>
      <point x="160" y="648" type="line"/>
      <point x="142" y="639"/>
      <point x="127" y="620"/>
      <point x="127" y="596" type="curve"/>
      <point x="131" y="573" type="line"/>
      <point x="133" y="568"/>
      <point x="136" y="564"/>
      <point x="140" y="559" type="curve"/>
      <point x="143" y="556" type="line"/>
      <point x="153" y="544"/>
      <point x="167" y="540"/>
      <point x="183" y="540" type="curve" smooth="yes"/>
    </contour>
    <contour>
      <point x="162" y="565"/>
      <point x="152" y="575"/>
      <point x="152" y="595" type="curve" smooth="yes"/>
      <point x="152" y="605"/>
      <point x="157" y="613"/>
      <point x="160" y="616" type="curve"/>
      <point x="168" y="622"/>
      <point x="175" y="625"/>
      <point x="182" y="625" type="curve"/>
      <point x="202" y="620"/>
      <point x="212" y="610"/>
      <point x="212" y="596" type="curve" smooth="yes"/>
      <point x="212" y="581"/>
      <point x="198" y="565"/>
      <point x="183" y="565" type="curve" smooth="yes"/>
    </contour>
    <contour>
      <point x="434" y="495"/>
      <point x="424" y="505"/>
      <point x="424" y="525" type="curve" smooth="yes"/>
      <point x="424" y="545"/>
      <point x="437" y="555"/>
      <point x="453" y="555" type="curve" smooth="yes"/>
      <point x="474" y="555"/>
      <point x="484" y="542"/>
      <point x="484" y="526" type="curve" smooth="yes"/>
      <point x="484" y="505"/>
      <point x="470" y="495"/>
      <point x="455" y="495" type="curve" smooth="yes"/>
    </contour>
    <component base="sinRa"/>
  </outline>
</glyph>
<glyph name="sinU" format="1">
  <advance width="532"/>
  <unicode hex="0D8B"/>
  <outline>
    <contour>
      <point x="13" y="150" type="curve" smooth="yes"/>
      <point x="13" y="-30"/>
      <point x="102" y="-111"/>
      <point x="274" y="-111" type="curve" smooth="yes"/>
      <point x="405" y="-111"/>
      <point x="513" y="-64"/>
      <point x="516" y="76" type="curve"/>
      <point x="481" y="75" type="line"/>
      <point x="481" y="-28"/>
      <point x="393" y="-70"/>
      <point x="283" y="-70" type="curve" smooth="yes"/>
      <point x="140" y="-70"/>
      <point x="58" y="-1"/>
      <point x="58" y="135" type="curve" smooth="yes"/>
      <point x="58" y="298"/>
      <point x="86" y="341"/>
      <point x="239" y="341" type="curve" smooth="yes"/>
      <point x="487" y="341" type="line"/>
      <point x="487" y="466"/>
      <point x="428" y="506"/>
      <point x="292" y="506" type="curve" smooth="yes"/>
      <point x="146" y="506"/>
      <point x="82" y="466"/>
      <point x="82" y="386" type="curve"/>
      <point x="125" y="387" type="line"/>
      <point x="125" y="439"/>
      <point x="165" y="465"/>
      <point x="284" y="465" type="curve" smooth="yes"/>
      <point x="369" y="465"/>
      <point x="441" y="462"/>
      <point x="441" y="378" type="curve"/>
      <point x="205" y="378" type="line" smooth="yes"/>
      <point x="77" y="378"/>
      <point x="13" y="309"/>
    </contour>
  </outline>
</glyph>
<glyph name="sinVocalicRr" format="2">
  <advance width="1109"/>
  <unicode hex="0D8E"/>
  <outline>
    <contour>
      <point x="229" y="-2"/>
      <point x="266" y="41"/>
      <point x="272" y="67" type="curve"/>
      <point x="280" y="32"/>
      <point x="313" y="-2"/>
      <point x="372" y="-2" type="curve" smooth="yes"/>
      <point x="466" y="-2"/>
      <point x="517" y="53"/>
      <point x="524" y="163" type="curve" smooth="yes"/>
      <point x="527" y="206" type="line"/>
      <point x="526" y="229" type="line"/>
      <point x="521" y="266" type="line"/>
      <point x="513" y="295" type="line"/>
      <point x="504" y="320" type="line" smooth="yes"/>
      <point x="498" y="337"/>
      <point x="489" y="352"/>
      <point x="477" y="364" type="curve"/>
      <point x="484" y="370"/>
      <point x="488" y="375"/>
      <point x="490" y="379" type="curve"/>
      <point x="497" y="398" type="line"/>
      <point x="499" y="417" type="line"/>
      <point x="499" y="447"/>
      <point x="479" y="484"/>
      <point x="453" y="495" type="curve" smooth="yes"/>
      <point x="448" y="497" type="line"/>
      <point x="440" y="501"/>
      <point x="431" y="504"/>
      <point x="421" y="505" type="curve" smooth="yes"/>
      <point x="393" y="507" type="line"/>
      <point x="383" y="507" type="line" smooth="yes"/>
      <point x="368" y="507"/>
      <point x="352" y="505"/>
      <point x="336" y="498" type="curve" smooth="yes"/>
      <point x="320" y="491"/>
      <point x="307" y="483"/>
      <point x="297" y="474" type="curve" smooth="yes"/>
      <point x="287" y="465"/>
      <point x="280" y="452"/>
      <point x="276" y="439" type="curve"/>
      <point x="274" y="455"/>
      <point x="266" y="466"/>
      <point x="257" y="476" type="curve"/>
      <point x="233" y="500"/>
      <point x="207" y="506"/>
      <point x="165" y="506" type="curve" smooth="yes"/>
      <point x="95" y="506"/>
      <point x="44" y="474"/>
      <point x="47" y="411" type="curve" smooth="yes"/>
      <point x="48" y="393" type="line"/>
      <point x="61" y="356" type="line"/>
      <point x="45" y="340"/>
      <point x="33" y="314"/>
      <point x="25" y="286" type="curve" smooth="yes"/>
      <point x="16" y="255"/>
      <point x="12" y="222"/>
      <point x="12" y="201" type="curve" smooth="yes"/>
      <point x="12" y="194" type="line"/>
      <point x="17" y="62"/>
      <point x="54" y="-2"/>
      <point x="159" y="-2" type="curve" smooth="yes"/>
    </contour>
    <contour>
      <point x="89" y="42"/>
      <point x="63" y="90"/>
      <point x="56" y="195" type="curve"/>
      <point x="56" y="211" type="line"/>
      <point x="57" y="225" type="line"/>
      <point x="57" y="264"/>
      <point x="74" y="323"/>
      <point x="100" y="341" type="curve"/>
      <point x="102" y="342"/>
      <point x="103" y="344"/>
      <point x="105" y="345" type="curve"/>
      <point x="109" y="348"/>
      <point x="113" y="351"/>
      <point x="118" y="352" type="curve"/>
      <point x="137" y="355" type="line"/>
      <point x="356" y="356" type="line"/>
      <point x="399" y="355" type="line"/>
      <point x="462" y="348"/>
      <point x="487" y="281"/>
      <point x="487" y="229" type="curve" smooth="yes"/>
      <point x="487" y="218" type="line" smooth="yes"/>
      <point x="487" y="93"/>
      <point x="449" y="42"/>
      <point x="375" y="42" type="curve" smooth="yes"/>
      <point x="324" y="42"/>
      <point x="299" y="74"/>
      <point x="299" y="138" type="curve" smooth="yes"/>
      <point x="299" y="255" type="line"/>
      <point x="249" y="255" type="line"/>
      <point x="249" y="138" type="line" smooth="yes"/>
      <point x="249" y="81"/>
      <point x="213" y="42"/>
      <point x="156" y="42" type="curve" smooth="yes"/>
    </contour>
    <contour>
      <point x="85" y="438"/>
      <point x="110" y="465"/>
      <point x="160" y="465" type="curve" smooth="yes"/>
      <point x="207" y="465"/>
      <point x="229" y="453"/>
      <point x="245" y="412" type="curve"/>
      <point x="246" y="409"/>
      <point x="246" y="404"/>
      <point x="246" y="399" type="curve" smooth="yes"/>
      <point x="246" y="393" type="line"/>
      <point x="91" y="393" type="line"/>
    </contour>
    <contour>
      <point x="429" y="391" type="line" smooth="yes"/>
      <point x="424" y="393"/>
      <point x="414" y="393"/>
      <point x="397" y="393" type="curve" smooth="yes"/>
      <point x="301" y="393" type="line"/>
      <point x="301" y="438"/>
      <point x="341" y="465"/>
      <point x="388" y="465" type="curve" smooth="yes"/>
      <point x="421" y="465"/>
      <point x="443" y="455"/>
      <point x="452" y="435" type="curve"/>
      <point x="456" y="427"/>
      <point x="458" y="419"/>
      <point x="458" y="413" type="curve" smooth="yes"/>
      <point x="458" y="403"/>
      <point x="455" y="393"/>
      <point x="449" y="383" type="curve"/>
    </contour>
    <component base="sinMatraRr" xOffset="505"/>
  </outline>
</glyph>
<glyph name="sinVocalicl" format="1">
  <advance width="657"/>
  <unicode hex="0D8F"/>
  <outline>
    <contour>
      <point x="575" y="161"/>
      <point x="622" y="225"/>
      <point x="622" y="317" type="curve" smooth="yes"/>
      <point x="622" y="409"/>
      <point x="564" y="478"/>
      <point x="490" y="478" type="curve"/>
      <point x="520" y="437" type="line"/>
      <point x="562" y="414"/>
      <point x="583" y="360"/>
      <point x="583" y="304" type="curve" smooth="yes"/>
      <point x="583" y="245"/>
      <point x="565" y="202"/>
      <point x="533" y="150" type="curve"/>
    </contour>
    <contour>
      <point x="92" y="202"/>
      <point x="74" y="245"/>
      <point x="74" y="304" type="curve" smooth="yes"/>
      <point x="74" y="360"/>
      <point x="95" y="414"/>
      <point x="137" y="437" type="curve"/>
      <point x="167" y="478" type="line"/>
      <point x="93" y="478"/>
      <point x="35" y="409"/>
      <point x="35" y="317" type="curve" smooth="yes"/>
      <point x="35" y="225"/>
      <point x="82" y="161"/>
      <point x="124" y="150" type="curve"/>
    </contour>
    <component base="sinPa" xOffset="45"/>
  </outline>
</glyph>
<glyph name="sinE" format="1">
  <advance width="532"/>
  <unicode hex="0D91"/>
  <outline>
    <contour>
      <point x="20" y="319" type="line"/>
      <point x="79" y="319" type="line"/>
      <point x="47" y="285"/>
      <point x="39" y="231"/>
      <point x="39" y="203" type="curve" smooth="yes"/>
      <point x="39" y="73"/>
      <point x="135" y="0"/>
      <point x="260" y="0" type="curve" smooth="yes"/>
      <point x="393" y="0"/>
      <point x="510" y="107"/>
      <point x="510" y="272" type="curve" smooth="yes"/>
      <point x="510" y="452"/>
      <point x="434" y="586"/>
      <point x="281" y="643" type="curve"/>
      <point x="261" y="618" type="line"/>
      <point x="290" y="601" type="line"/>
      <point x="290" y="584"/>
      <point x="246" y="546"/>
      <point x="246" y="488" type="curve" smooth="yes"/>
      <point x="246" y="476"/>
      <point x="248" y="464"/>
      <point x="250" y="452" type="curve"/>
      <point x="233" y="465"/>
      <point x="211" y="475"/>
      <point x="179" y="475" type="curve" smooth="yes"/>
      <point x="97" y="475"/>
      <point x="69" y="412"/>
      <point x="69" y="358" type="curve"/>
      <point x="20" y="358" type="line"/>
    </contour>
    <contour>
      <point x="81" y="206" type="curve" smooth="yes"/>
      <point x="81" y="254"/>
      <point x="103" y="319"/>
      <point x="146" y="319" type="curve" smooth="yes"/>
      <point x="288" y="320" type="line"/>
      <point x="288" y="356"/>
      <point x="288" y="353"/>
      <point x="288" y="389" type="curve"/>
      <point x="264" y="420" type="line"/>
      <point x="265" y="392"/>
      <point x="307" y="360"/>
      <point x="368" y="360" type="curve" smooth="yes"/>
      <point x="418" y="360"/>
      <point x="453" y="384"/>
      <point x="468" y="401" type="curve"/>
      <point x="445" y="439" type="line"/>
      <point x="443" y="428"/>
      <point x="417" y="402"/>
      <point x="370" y="402" type="curve" smooth="yes"/>
      <point x="307" y="402"/>
      <point x="287" y="445"/>
      <point x="287" y="484" type="curve" smooth="yes"/>
      <point x="287" y="531"/>
      <point x="315" y="542"/>
      <point x="325" y="577" type="curve"/>
      <point x="410" y="515"/>
      <point x="470" y="425"/>
      <point x="470" y="281" type="curve" smooth="yes"/>
      <point x="470" y="178"/>
      <point x="403" y="42"/>
      <point x="261" y="42" type="curve" smooth="yes"/>
      <point x="163" y="42"/>
      <point x="81" y="103"/>
    </contour>
    <contour>
      <point x="108" y="358" type="line"/>
      <point x="108" y="401"/>
      <point x="133" y="436"/>
      <point x="175" y="436" type="curve" smooth="yes"/>
      <point x="219" y="436"/>
      <point x="250" y="408"/>
      <point x="250" y="365" type="curve" smooth="yes"/>
      <point x="250" y="362"/>
      <point x="249" y="360"/>
      <point x="249" y="358" type="curve"/>
    </contour>
  </outline>
</glyph>
<glyph name="sinEe" format="2">
	<unicode hex="0D92"/>
	<advance width="554"/>
	<outline>
		<contour>
			<point x="475" y="473" type="line"/>
			<point x="475" y="645" type="line"/>
			<point x="434" y="645" type="line"/>
			<point x="434" y="473" type="line"/>
		</contour>
		<component base="sinE"/>
	</outline>
</glyph>
<glyph name="sinO" format="1">
  <advance width="551"/>
  <unicode hex="0D94"/>
  <outline>
    <contour>
      <point x="75" y="453"/>
      <point x="19" y="377"/>
      <point x="19" y="234" type="curve" smooth="yes"/>
      <point x="19" y="77"/>
      <point x="73" y="-1"/>
      <point x="170" y="-1" type="curve" smooth="yes"/>
      <point x="212" y="-1"/>
      <point x="241" y="14"/>
      <point x="259" y="45" type="curve"/>
      <point x="274" y="14"/>
      <point x="313" y="-1"/>
      <point x="360" y="-1" type="curve" smooth="yes"/>
      <point x="489" y="-1"/>
      <point x="522" y="111"/>
      <point x="522" y="285" type="curve" smooth="yes"/>
      <point x="522" y="460"/>
      <point x="439" y="605"/>
      <point x="253" y="605" type="curve" smooth="yes"/>
      <point x="198" y="605"/>
      <point x="154" y="603"/>
      <point x="77" y="571" type="curve"/>
      <point x="93" y="530" type="line"/>
      <point x="153" y="556"/>
      <point x="201" y="561"/>
      <point x="246" y="561" type="curve" smooth="yes"/>
      <point x="401" y="561"/>
      <point x="481" y="456"/>
      <point x="481" y="277" type="curve" smooth="yes"/>
      <point x="481" y="159"/>
      <point x="446" y="41"/>
      <point x="361" y="41" type="curve" smooth="yes"/>
      <point x="307" y="41"/>
      <point x="278" y="73"/>
      <point x="278" y="151" type="curve" smooth="yes"/>
      <point x="278" y="200" type="line"/>
      <point x="239" y="200" type="line"/>
      <point x="239" y="152" type="line"/>
      <point x="239" y="69"/>
      <point x="225" y="39"/>
      <point x="163" y="39" type="curve" smooth="yes"/>
      <point x="96" y="39"/>
      <point x="61" y="128"/>
      <point x="61" y="237" type="curve" smooth="yes"/>
      <point x="61" y="323"/>
      <point x="80" y="418"/>
      <point x="179" y="418" type="curve" smooth="yes"/>
      <point x="197" y="418"/>
      <point x="211" y="409"/>
      <point x="210" y="385" type="curve"/>
      <point x="180" y="383"/>
      <point x="159" y="353"/>
      <point x="159" y="316" type="curve" smooth="yes"/>
      <point x="159" y="261"/>
      <point x="201" y="223"/>
      <point x="266" y="223" type="curve" smooth="yes"/>
      <point x="331" y="223"/>
      <point x="383" y="266"/>
      <point x="383" y="344" type="curve" smooth="yes"/>
      <point x="383" y="417"/>
      <point x="337" y="453"/>
      <point x="275" y="453" type="curve" smooth="yes"/>
      <point x="266" y="453"/>
      <point x="261" y="452"/>
      <point x="260" y="452" type="curve"/>
      <point x="260" y="418" type="line"/>
      <point x="308" y="418"/>
      <point x="343" y="394"/>
      <point x="343" y="346" type="curve" smooth="yes"/>
      <point x="343" y="301"/>
      <point x="314" y="267"/>
      <point x="269" y="267" type="curve" smooth="yes"/>
      <point x="227" y="267"/>
      <point x="202" y="289"/>
      <point x="202" y="320" type="curve" smooth="yes"/>
      <point x="202" y="344"/>
      <point x="218" y="356"/>
      <point x="248" y="358" type="curve"/>
      <point x="248" y="394" type="line"/>
      <point x="248" y="426"/>
      <point x="226" y="453"/>
      <point x="176" y="453" type="curve" smooth="yes"/>
    </contour>
  </outline>
</glyph>
<glyph name="sinAu" format="1">
  <advance width="897"/>
  <unicode hex="0D96"/>
  <outline>
    <contour>
      <point x="11" y="234" type="curve" smooth="yes"/>
      <point x="11" y="77"/>
      <point x="60" y="-1"/>
      <point x="157" y="-1" type="curve" smooth="yes"/>
      <point x="198" y="-1"/>
      <point x="228" y="14"/>
      <point x="246" y="45" type="curve"/>
      <point x="261" y="14"/>
      <point x="291" y="-1"/>
      <point x="336" y="-1" type="curve" smooth="yes"/>
      <point x="405" y="-1"/>
      <point x="441" y="13"/>
      <point x="477" y="83" type="curve" smooth="yes"/>
      <point x="498" y="126"/>
      <point x="509" y="193"/>
      <point x="509" y="285" type="curve" smooth="yes"/>
      <point x="509" y="449"/>
      <point x="456" y="585"/>
      <point x="259" y="585" type="curve" smooth="yes"/>
      <point x="154" y="585"/>
      <point x="131" y="561"/>
      <point x="47" y="513" type="curve"/>
      <point x="72" y="478" type="line"/>
      <point x="167" y="530"/>
      <point x="158" y="531"/>
      <point x="262" y="531" type="curve" smooth="yes"/>
      <point x="405" y="531"/>
      <point x="460" y="407"/>
      <point x="464" y="299" type="curve" smooth="yes"/>
      <point x="464" y="292"/>
      <point x="464" y="285"/>
      <point x="464" y="277" type="curve" smooth="yes"/>
      <point x="464" y="159"/>
      <point x="433" y="41"/>
      <point x="337" y="41" type="curve" smooth="yes"/>
      <point x="275" y="41"/>
      <point x="265" y="73"/>
      <point x="265" y="141" type="curve" smooth="yes"/>
      <point x="265" y="168"/>
      <point x="265" y="188"/>
      <point x="266" y="200" type="curve"/>
      <point x="226" y="200" type="line"/>
      <point x="227" y="172" type="line"/>
      <point x="227" y="142" type="line" smooth="yes"/>
      <point x="227" y="73"/>
      <point x="201" y="39"/>
      <point x="149" y="39" type="curve" smooth="yes"/>
      <point x="83" y="39"/>
      <point x="53" y="128"/>
      <point x="53" y="207" type="curve" smooth="yes"/>
      <point x="53" y="333"/>
      <point x="66" y="428"/>
      <point x="166" y="428" type="curve" smooth="yes"/>
      <point x="187" y="428"/>
      <point x="198" y="420"/>
      <point x="198" y="405" type="curve"/>
      <point x="197" y="395" type="line"/>
      <point x="167" y="383"/>
      <point x="152" y="358"/>
      <point x="152" y="321" type="curve" smooth="yes"/>
      <point x="152" y="266"/>
      <point x="184" y="238"/>
      <point x="249" y="238" type="curve" smooth="yes"/>
      <point x="329" y="238"/>
      <point x="370" y="276"/>
      <point x="370" y="354" type="curve" smooth="yes"/>
      <point x="370" y="427"/>
      <point x="333" y="463"/>
      <point x="262" y="463" type="curve" smooth="yes"/>
      <point x="253" y="463"/>
      <point x="248" y="462"/>
      <point x="247" y="462" type="curve"/>
      <point x="247" y="428" type="line"/>
      <point x="302" y="428"/>
      <point x="330" y="404"/>
      <point x="330" y="356" type="curve" smooth="yes"/>
      <point x="330" y="311"/>
      <point x="301" y="277"/>
      <point x="256" y="277" type="curve" smooth="yes"/>
      <point x="214" y="277"/>
      <point x="193" y="294"/>
      <point x="193" y="330" type="curve" smooth="yes"/>
      <point x="193" y="354"/>
      <point x="207" y="372"/>
      <point x="235" y="382" type="curve"/>
      <point x="238" y="404" type="line"/>
      <point x="238" y="443"/>
      <point x="213" y="463"/>
      <point x="163" y="463" type="curve" smooth="yes"/>
      <point x="62" y="463"/>
      <point x="11" y="387"/>
    </contour>
    <contour>
      <point x="550" y="367" type="curve" smooth="yes"/>
      <point x="550" y="297"/>
      <point x="582" y="253"/>
      <point x="646" y="253" type="curve" smooth="yes"/>
      <point x="702" y="253"/>
      <point x="729" y="275"/>
      <point x="729" y="317" type="curve" smooth="yes"/>
      <point x="729" y="329"/>
      <point x="726" y="344"/>
      <point x="719" y="362" type="curve" smooth="yes"/>
      <point x="704" y="400" type="line" smooth="yes"/>
      <point x="701" y="407"/>
      <point x="700" y="416"/>
      <point x="700" y="427" type="curve" smooth="yes"/>
      <point x="700" y="439"/>
      <point x="704" y="448"/>
      <point x="708" y="452" type="curve" smooth="yes"/>
      <point x="715" y="458"/>
      <point x="724" y="460"/>
      <point x="733" y="460" type="curve" smooth="yes"/>
      <point x="762" y="460"/>
      <point x="783" y="446"/>
      <point x="796" y="417" type="curve"/>
      <point x="801" y="411"/>
      <point x="804" y="406"/>
      <point x="806" y="401" type="curve" smooth="yes"/>
      <point x="808" y="393"/>
      <point x="812" y="385"/>
      <point x="813" y="379" type="curve" smooth="yes"/>
      <point x="816" y="366"/>
      <point x="817" y="353"/>
      <point x="819" y="340" type="curve" smooth="yes"/>
      <point x="826" y="300"/>
      <point x="829" y="271"/>
      <point x="829" y="252" type="curve" smooth="yes"/>
      <point x="829" y="249"/>
      <point x="829" y="246"/>
      <point x="829" y="243" type="curve" smooth="yes"/>
      <point x="826" y="199" type="line"/>
      <point x="818" y="155" type="line"/>
      <point x="810" y="100"/>
      <point x="769" y="37"/>
      <point x="711" y="37" type="curve" smooth="yes"/>
      <point x="709" y="37"/>
      <point x="707" y="38"/>
      <point x="705" y="38" type="curve" smooth="yes"/>
      <point x="681" y="40" type="line"/>
      <point x="659" y="44" type="line"/>
      <point x="637" y="54"/>
      <point x="623" y="74"/>
      <point x="616" y="105" type="curve"/>
      <point x="614" y="129" type="line"/>
      <point x="614" y="188" type="line"/>
      <point x="573" y="188" type="line"/>
      <point x="573" y="157" type="line" smooth="yes"/>
      <point x="573" y="134"/>
      <point x="573" y="111"/>
      <point x="578" y="87" type="curve" smooth="yes"/>
      <point x="582" y="66"/>
      <point x="593" y="45"/>
      <point x="608" y="26" type="curve" smooth="yes"/>
      <point x="626" y="4"/>
      <point x="655" y="-5"/>
      <point x="690" y="-5" type="curve" smooth="yes"/>
      <point x="694" y="-5"/>
      <point x="698" y="-4"/>
      <point x="703" y="-4" type="curve" smooth="yes"/>
      <point x="729" y="-2" type="line"/>
      <point x="751" y="2" type="line"/>
      <point x="791" y="21"/>
      <point x="819" y="48"/>
      <point x="838" y="84" type="curve" smooth="yes"/>
      <point x="848" y="103" type="line"/>
      <point x="853" y="120" type="line"/>
      <point x="861" y="159" type="line"/>
      <point x="868" y="186"/>
      <point x="871" y="224"/>
      <point x="871" y="271" type="curve" smooth="yes"/>
      <point x="871" y="365"/>
      <point x="832" y="502"/>
      <point x="756" y="502" type="curve" smooth="yes"/>
      <point x="679" y="502"/>
      <point x="658" y="478"/>
      <point x="658" y="425" type="curve" smooth="yes"/>
      <point x="658" y="417"/>
      <point x="658" y="411"/>
      <point x="660" y="407" type="curve"/>
      <point x="660" y="402"/>
      <point x="661" y="397"/>
      <point x="663" y="393" type="curve" smooth="yes"/>
      <point x="678" y="356" type="line"/>
      <point x="684" y="340" type="line"/>
      <point x="685" y="320" type="line" smooth="yes"/>
      <point x="685" y="304"/>
      <point x="674" y="296"/>
      <point x="651" y="296" type="curve" smooth="yes"/>
      <point x="626" y="296"/>
      <point x="610" y="310"/>
      <point x="601" y="335" type="curve" smooth="yes"/>
      <point x="596" y="349"/>
      <point x="594" y="359"/>
      <point x="595" y="368" type="curve" smooth="yes"/>
      <point x="599" y="413" type="line"/>
      <point x="606" y="444"/>
      <point x="625" y="460"/>
      <point x="656" y="460" type="curve"/>
      <point x="656" y="503" type="line"/>
      <point x="603" y="503"/>
      <point x="580" y="484"/>
      <point x="559" y="434" type="curve" smooth="yes"/>
      <point x="554" y="423"/>
      <point x="552" y="415"/>
      <point x="552" y="409" type="curve" smooth="yes"/>
      <point x="550" y="379" type="line" smooth="yes"/>
      <point x="550" y="375"/>
      <point x="550" y="371"/>
    </contour>
  </outline>
</glyph>
<glyph name="sinKa" format="2">
  <advance width="632"/>
  <unicode hex="0D9A"/>
  <anchor x="114" y="533" name="sinMatraI"/>
  <anchor x="522" y="52" name="sin_Rakar"/>
  <anchor x="430" y="38" name="sinMatraU"/>
  <anchor x="305" y="538" name="sinReph"/>
  <anchor x="26" y="-1" name="_cursive"/>
  <anchor x="479.03225806451616" y="462.4516129032259" name="sinVirama"/>
  <outline>
    <contour>
      <point x="541" y="-2"/>
      <point x="594" y="122"/>
      <point x="594" y="258" type="curve" smooth="yes"/>
      <point x="594.0" y="365.0"/>
      <point x="546" y="507"/>
      <point x="377" y="507" type="curve" smooth="yes"/>
      <point x="320" y="507"/>
      <point x="261" y="481"/>
      <point x="220" y="443" type="curve"/>
      <point x="227" y="423" type="line"/>
      <point x="227" y="429" type="line" smooth="yes"/>
      <point x="227" y="474"/>
      <point x="192.0" y="506.0"/>
      <point x="142" y="506" type="curve" smooth="yes"/>
      <point x="64" y="506"/>
      <point x="35" y="428"/>
      <point x="35" y="373" type="curve"/>
      <point x="75" y="373" type="line"/>
      <point x="74" y="411"/>
      <point x="90" y="464"/>
      <point x="143" y="464" type="curve" smooth="yes"/>
      <point x="163" y="464"/>
      <point x="193" y="451"/>
      <point x="192" y="422" type="curve" smooth="yes"/>
      <point x="191" y="406" type="line"/>
      <point x="-3" y="230" type="line"/>
      <point x="-3" y="198" type="line"/>
      <point x="41" y="198" type="line"/>
      <point x="31" y="181"/>
      <point x="24.0" y="152.0"/>
      <point x="24" y="122" type="curve" smooth="yes"/>
      <point x="24" y="46"/>
      <point x="63" y="0"/>
      <point x="130" y="0" type="curve" smooth="yes"/>
      <point x="168" y="0"/>
      <point x="201" y="18"/>
      <point x="211" y="52" type="curve"/>
      <point x="222" y="18"/>
      <point x="257" y="-1"/>
      <point x="297.0" y="-1.0" type="curve" smooth="yes"/>
      <point x="395.0" y="-1.0"/>
      <point x="433" y="90"/>
      <point x="433.0" y="190.0" type="curve" smooth="yes"/>
      <point x="433" y="294"/>
      <point x="382.9999999999992" y="388.99999999999875"/>
      <point x="253.00915103365085" y="392.3546025539703" type="curve" smooth="yes"/>
      <point x="228" y="393" type="line"/>
      <point x="228" y="404" type="line"/>
      <point x="259" y="436"/>
      <point x="317.0" y="464.0"/>
      <point x="369.0" y="464.0" type="curve" smooth="yes"/>
      <point x="474" y="464"/>
      <point x="551.0" y="396.0"/>
      <point x="551.0" y="260.0" type="curve" smooth="yes"/>
      <point x="551.0" y="112.0"/>
      <point x="484" y="38"/>
      <point x="427" y="38" type="curve"/>
      <point x="421" y="-2" type="line"/>
    </contour>
    <contour>
      <point x="101.0" y="42.0"/>
      <point x="61" y="60"/>
      <point x="61" y="124" type="curve" smooth="yes"/>
      <point x="61" y="152"/>
      <point x="72" y="187"/>
      <point x="87" y="202" type="curve"/>
      <point x="87.0" y="230.0" type="line"/>
      <point x="37.0" y="230.0" type="line"/>
      <point x="42.0" y="220.0" type="line"/>
      <point x="193" y="356" type="line"/>
      <point x="240.00451153181262" y="355.69477589914385" type="line" smooth="yes"/>
      <point x="339.00033731078906" y="355.0519458616176"/>
      <point x="392.0" y="293.0"/>
      <point x="392.0" y="191.0" type="curve" smooth="yes"/>
      <point x="392.0" y="106.0"/>
      <point x="363" y="40"/>
      <point x="300" y="40" type="curve" smooth="yes"/>
      <point x="262" y="40"/>
      <point x="230.32141576015158" y="65.00143486318723"/>
      <point x="229.9107214029504" y="110.9992028696692" type="curve" smooth="yes"/>
      <point x="229" y="213" type="line"/>
      <point x="192" y="213" type="line"/>
      <point x="191.090082778769" y="111.9991884434345" type="line" smooth="yes"/>
      <point x="190.63965426257604" y="62.001623146057625"/>
      <point x="168" y="42"/>
      <point x="132.0" y="42.0" type="curve" smooth="yes"/>
    </contour>
  </outline>
</glyph>
<glyph name="sinKha" format="2">
  <advance width="549"/>
  <unicode hex="0D9B"/>
  <anchor x="255" y="617" name="sinReph"/>
  <anchor x="101" y="558" name="sinVirama"/>
  <anchor x="452" y="52" name="sin_Rakar"/>
  <outline>
    <contour>
      <point x="517" y="487"/>
      <point x="402" y="594"/>
      <point x="227" y="594" type="curve" smooth="yes"/>
      <point x="150" y="594"/>
      <point x="95" y="577"/>
      <point x="44" y="561" type="curve"/>
      <point x="55" y="520" type="line"/>
      <point x="108" y="539"/>
      <point x="154.0" y="551.0"/>
      <point x="225" y="551" type="curve" smooth="yes"/>
      <point x="382" y="551"/>
      <point x="473" y="455"/>
      <point x="473" y="278" type="curve" smooth="yes"/>
      <point x="473" y="130"/>
      <point x="432.0" y="41.0"/>
      <point x="364.0" y="41.0" type="curve" smooth="yes"/>
      <point x="293.11783577950706" y="41.0"/>
      <point x="288.2879188313207" y="113.0"/>
      <point x="203" y="113" type="curve"/>
      <point x="202" y="66" type="line"/>
      <point x="264.9120514867474" y="66.0"/>
      <point x="273.2601977389675" y="-6.0"/>
      <point x="358.0" y="-6.0" type="curve" smooth="yes"/>
      <point x="477.0" y="-6.0"/>
      <point x="517" y="118"/>
      <point x="517" y="283" type="curve" smooth="yes"/>
    </contour>
    <contour>
      <point x="217" y="0" type="line"/>
      <point x="217.0" y="46.99999999999999" type="line" smooth="yes"/>
      <point x="217.0" y="94.99999999999999"/>
      <point x="221.38414831076318" y="127.34830736241146"/>
      <point x="250.0" y="160.0" type="curve" smooth="yes"/>
      <point x="292.29255818053457" y="208.25729548659766"/>
      <point x="321" y="244"/>
      <point x="321.0" y="306.0" type="curve" smooth="yes"/>
      <point x="321.0" y="394.0"/>
      <point x="266.0" y="441.0"/>
      <point x="194.0" y="441.0" type="curve" smooth="yes"/>
      <point x="87" y="441"/>
      <point x="21" y="339"/>
      <point x="19.795129425046365" y="188.99361341827267" type="curve" smooth="yes"/>
      <point x="19" y="90"/>
      <point x="46" y="-4"/>
      <point x="139" y="-4" type="curve"/>
      <point x="139" y="39" type="line"/>
      <point x="88" y="39"/>
      <point x="65.0" y="96.0"/>
      <point x="65.0" y="185.0" type="curve" smooth="yes"/>
      <point x="65.0" y="303.0"/>
      <point x="106" y="395"/>
      <point x="191.0" y="395.0" type="curve" smooth="yes"/>
      <point x="235" y="395"/>
      <point x="272" y="363"/>
      <point x="272.0" y="310.0" type="curve" smooth="yes"/>
      <point x="272" y="257"/>
      <point x="245" y="224"/>
      <point x="218" y="193" type="curve" smooth="yes"/>
      <point x="190.4073910076285" y="161.3195970828321"/>
      <point x="172.0" y="127.0"/>
      <point x="172.0" y="66.0" type="curve" smooth="yes"/>
      <point x="172" y="0" type="line"/>
    </contour>
  </outline>
</glyph>
<glyph name="sinGa" format="1">
  <advance width="570"/>
  <unicode hex="0D9C"/>
  <outline>
    <contour>
      <point x="14" y="244" type="curve" smooth="yes"/>
      <point x="14" y="81"/>
      <point x="72" y="0"/>
      <point x="190" y="0" type="curve" smooth="yes"/>
      <point x="324" y="0"/>
      <point x="382" y="75"/>
      <point x="382" y="205" type="curve" smooth="yes"/>
      <point x="382" y="284"/>
      <point x="343" y="336"/>
      <point x="272" y="340" type="curve" smooth="yes"/>
      <point x="234" y="342" type="line"/>
      <point x="251" y="430"/>
      <point x="288" y="462"/>
      <point x="363" y="462" type="curve" smooth="yes"/>
      <point x="481" y="462"/>
      <point x="509" y="376"/>
      <point x="511" y="239" type="curve" smooth="yes"/>
      <point x="511" y="91"/>
      <point x="450" y="38"/>
      <point x="361" y="38" type="curve"/>
      <point x="351" y="-3" type="line"/>
      <point x="497" y="-3"/>
      <point x="556" y="88"/>
      <point x="556" y="250" type="curve" smooth="yes"/>
      <point x="556" y="393"/>
      <point x="509" y="504"/>
      <point x="371" y="504" type="curve" smooth="yes"/>
      <point x="255" y="504"/>
      <point x="200" y="449"/>
      <point x="187" y="313" type="curve"/>
      <point x="187" y="228" type="line"/>
      <point x="231" y="228" type="line"/>
      <point x="231" y="304" type="line"/>
      <point x="268" y="302" type="line"/>
      <point x="312" y="299"/>
      <point x="337" y="265"/>
      <point x="337" y="211" type="curve" smooth="yes"/>
      <point x="337" y="107"/>
      <point x="298" y="42"/>
      <point x="204" y="42" type="curve" smooth="yes"/>
      <point x="107" y="42"/>
      <point x="58" y="105"/>
      <point x="58" y="243" type="curve" smooth="yes"/>
      <point x="58" y="388"/>
      <point x="106" y="464"/>
      <point x="183" y="466" type="curve" smooth="yes"/>
      <point x="219" y="467" type="line"/>
      <point x="218" y="505" type="line"/>
      <point x="189" y="505" type="line"/>
      <point x="79" y="505"/>
      <point x="15" y="417"/>
    </contour>
    <contour>
      <point x="448" y="479" type="move" name="sinVirama"/>
    </contour>
    <contour>
      <point x="472" y="52" type="move" name="sin_Rakar"/>
    </contour>
    <contour>
      <point x="361" y="38" type="move" name="sinMatraU"/>
    </contour>
    <contour>
      <point x="74" y="533" type="move" name="sinMatraI"/>
    </contour>
  </outline>
</glyph>
<glyph name="sinGha" format="2">
	<unicode hex="0D9D"/>
	<advance width="506"/>
	<outline>
		<contour>
			<point x="387" y="-1"/>
			<point x="413" y="12"/>
			<point x="437" y="37" type="curve" smooth="yes"/>
			<point x="472" y="74"/>
			<point x="486" y="121"/>
			<point x="489" y="179" type="curve" smooth="yes"/>
			<point x="489" y="299"/>
			<point x="461" y="339"/>
			<point x="436" y="364" type="curve"/>
			<point x="470" y="364" type="line"/>
			<point x="470" y="461"/>
			<point x="439" y="507"/>
			<point x="349" y="507" type="curve" smooth="yes"/>
			<point x="333" y="507"/>
			<point x="318" y="506"/>
			<point x="310" y="501" type="curve" smooth="yes"/>
			<point x="278" y="481" type="line"/>
			<point x="272" y="478"/>
			<point x="265" y="468"/>
			<point x="256" y="454" type="curve"/>
			<point x="234" y="485"/>
			<point x="219" y="495"/>
			<point x="199" y="500" type="curve" smooth="yes"/>
			<point x="187" y="503"/>
			<point x="175" y="506"/>
			<point x="163" y="506" type="curve" smooth="yes"/>
			<point x="119" y="506"/>
			<point x="88" y="494"/>
			<point x="69" y="470" type="curve" smooth="yes"/>
			<point x="54" y="451" type="line"/>
			<point x="45" y="428" type="line" smooth="yes"/>
			<point x="42" y="420"/>
			<point x="40" y="407"/>
			<point x="40" y="389" type="curve"/>
			<point x="-10" y="389" type="line"/>
			<point x="-10" y="352" type="line"/>
			<point x="59" y="352" type="line"/>
			<point x="48" y="340"/>
			<point x="40" y="327"/>
			<point x="35" y="313" type="curve"/>
			<point x="19" y="262" type="line"/>
			<point x="12" y="229" type="line"/>
			<point x="11" y="194" type="line"/>
			<point x="15" y="142" type="line" smooth="yes"/>
			<point x="21" y="67"/>
			<point x="68" y="0"/>
			<point x="139" y="0" type="curve" smooth="yes"/>
			<point x="213" y="0"/>
			<point x="250" y="30"/>
			<point x="250" y="91" type="curve"/>
			<point x="247" y="114" type="line"/>
			<point x="241" y="137" type="line"/>
			<point x="206" y="183" type="line"/>
			<point x="199" y="193"/>
			<point x="195" y="201"/>
			<point x="195" y="206" type="curve" smooth="yes"/>
			<point x="195" y="217"/>
			<point x="215" y="222"/>
			<point x="254" y="222" type="curve" smooth="yes"/>
			<point x="292" y="222"/>
			<point x="311" y="216"/>
			<point x="311" y="205" type="curve"/>
			<point x="309" y="196"/>
			<point x="304" y="185"/>
			<point x="292" y="175" type="curve"/>
			<point x="273" y="157"/>
			<point x="258" y="140"/>
			<point x="257" y="122" type="curve" smooth="yes"/>
			<point x="255" y="91" type="line"/>
			<point x="255" y="84" type="line" smooth="yes"/>
			<point x="255" y="27"/>
			<point x="299" y="-1"/>
			<point x="359" y="-1" type="curve" smooth="yes"/>
		</contour>
		<contour>
			<point x="124" y="40"/>
			<point x="108" y="47"/>
			<point x="94" y="60" type="curve" smooth="yes"/>
			<point x="69" y="82"/>
			<point x="54" y="123"/>
			<point x="54" y="167" type="curve" smooth="yes"/>
			<point x="54" y="182" type="line"/>
			<point x="58" y="233" type="line"/>
			<point x="61" y="248" type="line"/>
			<point x="63" y="261"/>
			<point x="65" y="272"/>
			<point x="69" y="282" type="curve" smooth="yes"/>
			<point x="76" y="299"/>
			<point x="82" y="312"/>
			<point x="87" y="320" type="curve" smooth="yes"/>
			<point x="95" y="333"/>
			<point x="105" y="341"/>
			<point x="114" y="346" type="curve"/>
			<point x="123" y="350"/>
			<point x="136" y="352"/>
			<point x="153" y="352" type="curve" smooth="yes"/>
			<point x="308" y="352" type="line"/>
			<point x="383" y="351" type="line"/>
			<point x="426" y="339"/>
			<point x="449" y="267"/>
			<point x="449" y="212" type="curve" smooth="yes"/>
			<point x="449" y="120"/>
			<point x="412" y="40"/>
			<point x="354" y="40" type="curve" smooth="yes"/>
			<point x="342" y="40"/>
			<point x="331" y="41"/>
			<point x="320" y="48" type="curve"/>
			<point x="308" y="55"/>
			<point x="302" y="62"/>
			<point x="302" y="65" type="curve"/>
			<point x="299" y="79" type="line"/>
			<point x="297" y="81"/>
			<point x="297" y="84"/>
			<point x="297" y="89" type="curve" smooth="yes"/>
			<point x="297" y="94" type="line"/>
			<point x="298" y="109" type="line"/>
			<point x="305" y="125" type="line"/>
			<point x="311" y="137"/>
			<point x="321" y="147"/>
			<point x="334" y="159" type="curve" smooth="yes"/>
			<point x="349" y="172"/>
			<point x="355" y="192"/>
			<point x="355" y="215" type="curve" smooth="yes"/>
			<point x="355" y="250"/>
			<point x="300" y="264"/>
			<point x="256" y="264" type="curve" smooth="yes"/>
			<point x="189" y="264"/>
			<point x="149" y="247"/>
			<point x="149" y="212" type="curve" smooth="yes"/>
			<point x="149" y="195"/>
			<point x="155" y="179"/>
			<point x="168" y="163" type="curve" smooth="yes"/>
			<point x="188" y="139"/>
			<point x="199" y="125"/>
			<point x="201" y="120" type="curve"/>
			<point x="205" y="113"/>
			<point x="207" y="104"/>
			<point x="207" y="93" type="curve" smooth="yes"/>
			<point x="207" y="89"/>
			<point x="207" y="86"/>
			<point x="206" y="83" type="curve" smooth="yes"/>
			<point x="196" y="54"/>
			<point x="174" y="40"/>
			<point x="141" y="40" type="curve" smooth="yes"/>
		</contour>
		<contour>
			<point x="87" y="411" type="line"/>
			<point x="91" y="426" type="line"/>
			<point x="100" y="449"/>
			<point x="124" y="465"/>
			<point x="150" y="465" type="curve" smooth="yes"/>
			<point x="154" y="465" type="line"/>
			<point x="182" y="463" type="line"/>
			<point x="209" y="458"/>
			<point x="227" y="429"/>
			<point x="227" y="400" type="curve" smooth="yes"/>
			<point x="227" y="389" type="line"/>
			<point x="86" y="389" type="line"/>
		</contour>
		<contour>
			<point x="284" y="412"/>
			<point x="290" y="431"/>
			<point x="303" y="445" type="curve" smooth="yes"/>
			<point x="317" y="460"/>
			<point x="336" y="466"/>
			<point x="355" y="466" type="curve" smooth="yes"/>
			<point x="406" y="466"/>
			<point x="424" y="420"/>
			<point x="424" y="398" type="curve" smooth="yes"/>
			<point x="424" y="394" type="line"/>
			<point x="423" y="392"/>
			<point x="423" y="391"/>
			<point x="423" y="389" type="curve"/>
			<point x="284" y="389" type="line"/>
		</contour>
	</outline>
	<anchor name="sin_Rakar" x="437" y="52"/>
	<anchor name="sinReph" x="235" y="538"/>
	<anchor name="sinVirama" x="390" y="489"/>
	<anchor name="sinMatraI" x="29" y="533"/>
</glyph>
<glyph name="sinNga" format="1">
  <advance width="573"/>
  <unicode hex="0D9E"/>
  <outline>
    <contour>
      <point x="105" y="360"/>
      <point x="82" y="369"/>
      <point x="82" y="395" type="curve" smooth="yes"/>
      <point x="82" y="414"/>
      <point x="100" y="430"/>
      <point x="127" y="430" type="curve" smooth="yes"/>
      <point x="151" y="430"/>
      <point x="168" y="418"/>
      <point x="168" y="398" type="curve" smooth="yes"/>
      <point x="168" y="372"/>
      <point x="146" y="360"/>
      <point x="122" y="360" type="curve" smooth="yes"/>
    </contour>
    <contour>
      <point x="167" y="323"/>
      <point x="208" y="356"/>
      <point x="208" y="404" type="curve" smooth="yes"/>
      <point x="208" y="412"/>
      <point x="206" y="419"/>
      <point x="202" y="426" type="curve"/>
      <point x="233" y="426"/>
      <point x="264" y="393"/>
      <point x="264" y="366" type="curve" smooth="yes"/>
      <point x="264" y="343" type="line"/>
      <point x="178" y="342" type="line"/>
      <point x="88" y="342"/>
      <point x="40" y="279"/>
      <point x="40" y="171" type="curve" smooth="yes"/>
      <point x="40" y="77"/>
      <point x="91" y="-1"/>
      <point x="180" y="-1" type="curve" smooth="yes"/>
      <point x="230" y="-1"/>
      <point x="264" y="21"/>
      <point x="283" y="63" type="curve"/>
      <point x="299" y="21"/>
      <point x="335" y="-1"/>
      <point x="390" y="-1" type="curve" smooth="yes"/>
      <point x="494" y="-1"/>
      <point x="546" y="86"/>
      <point x="546" y="260" type="curve" smooth="yes"/>
      <point x="546" y="496"/>
      <point x="462" y="602"/>
      <point x="266" y="602" type="curve" smooth="yes"/>
      <point x="200" y="602"/>
      <point x="143" y="594"/>
      <point x="77" y="576" type="curve"/>
      <point x="86" y="529" type="line"/>
      <point x="155" y="545"/>
      <point x="209" y="552"/>
      <point x="250" y="552" type="curve" smooth="yes"/>
      <point x="408" y="552"/>
      <point x="497" y="470"/>
      <point x="497" y="279" type="curve" smooth="yes"/>
      <point x="497" y="111"/>
      <point x="442" y="41"/>
      <point x="389" y="41" type="curve" smooth="yes"/>
      <point x="332" y="41"/>
      <point x="303" y="75"/>
      <point x="303" y="142" type="curve" smooth="yes"/>
      <point x="303" y="210" type="line"/>
      <point x="304" y="234" type="line"/>
      <point x="260" y="234" type="line"/>
      <point x="260" y="230"/>
      <point x="261" y="226"/>
      <point x="261" y="219" type="curve" smooth="yes"/>
      <point x="261" y="169" type="line" smooth="yes"/>
      <point x="261" y="83"/>
      <point x="233" y="41"/>
      <point x="178" y="41" type="curve" smooth="yes"/>
      <point x="125" y="41"/>
      <point x="83" y="96"/>
      <point x="83" y="182" type="curve" smooth="yes"/>
      <point x="83" y="235"/>
      <point x="97" y="306"/>
      <point x="185" y="306" type="curve" smooth="yes"/>
      <point x="305" y="306" type="line"/>
      <point x="305" y="375" type="line" smooth="yes"/>
      <point x="305" y="430"/>
      <point x="242" y="478"/>
      <point x="168" y="477" type="curve" smooth="yes"/>
      <point x="102" y="476"/>
      <point x="48" y="450"/>
      <point x="48" y="389" type="curve" smooth="yes"/>
      <point x="48" y="354"/>
      <point x="77" y="323"/>
      <point x="124" y="323" type="curve" smooth="yes"/>
    </contour>
    <contour>
      <point x="127" y="569" type="move" name="sinVirama"/>
    </contour>
  </outline>
</glyph>
<glyph name="sinNnga" format="1">
  <advance width="682"/>
  <unicode hex="0D9F"/>
  <outline>
    <contour>
      <point x="43" y="195" type="line"/>
      <point x="86" y="195" type="line"/>
      <point x="85" y="248" type="line"/>
      <point x="85" y="386"/>
      <point x="103" y="468"/>
      <point x="227" y="468" type="curve"/>
      <point x="297" y="505" type="line"/>
      <point x="207" y="503" type="line"/>
      <point x="68" y="497"/>
      <point x="43" y="410"/>
      <point x="43" y="233" type="curve"/>
    </contour>
    <component base="sinGa" xOffset="92"/>
  </outline>
</glyph>
<glyph name="sinCa" format="1">
  <advance width="538"/>
  <unicode hex="0DA0"/>
  <outline>
    <contour>
      <point x="16" y="344" type="line"/>
      <point x="16" y="304" type="line"/>
      <point x="61" y="304" type="line"/>
      <point x="38" y="281"/>
      <point x="27" y="247"/>
      <point x="27" y="200" type="curve" smooth="yes"/>
      <point x="27" y="76"/>
      <point x="115" y="0"/>
      <point x="241" y="0" type="curve" smooth="yes"/>
      <point x="429" y="0"/>
      <point x="511" y="113"/>
      <point x="511" y="303" type="curve" smooth="yes"/>
      <point x="511" y="484"/>
      <point x="393" y="601"/>
      <point x="209" y="601" type="curve" smooth="yes"/>
      <point x="159" y="601"/>
      <point x="99" y="596"/>
      <point x="46" y="566" type="curve"/>
      <point x="59" y="532" type="line"/>
      <point x="107" y="553"/>
      <point x="161" y="560"/>
      <point x="221" y="560" type="curve" smooth="yes"/>
      <point x="389" y="560"/>
      <point x="469" y="419"/>
      <point x="469" y="308" type="curve" smooth="yes"/>
      <point x="469" y="158"/>
      <point x="406" y="41"/>
      <point x="253" y="41" type="curve" smooth="yes"/>
      <point x="158" y="41"/>
      <point x="69" y="82"/>
      <point x="69" y="188" type="curve" smooth="yes"/>
      <point x="69" y="271"/>
      <point x="100" y="304"/>
      <point x="183" y="304" type="curve" smooth="yes"/>
      <point x="331" y="304" type="line"/>
      <point x="332" y="318"/>
      <point x="332" y="328"/>
      <point x="332" y="332" type="curve" smooth="yes"/>
      <point x="332" y="418"/>
      <point x="270" y="468"/>
      <point x="183" y="468" type="curve" smooth="yes"/>
      <point x="93" y="468"/>
      <point x="55" y="417"/>
      <point x="54" y="344" type="curve"/>
    </contour>
    <contour>
      <point x="101" y="345" type="line"/>
      <point x="101" y="357" type="line" smooth="yes"/>
      <point x="101" y="403"/>
      <point x="131" y="426"/>
      <point x="191" y="426" type="curve" smooth="yes"/>
      <point x="240" y="426"/>
      <point x="283" y="394"/>
      <point x="283" y="345" type="curve"/>
    </contour>
    <contour>
      <point x="128" y="579" type="move" name="sinVirama"/>
    </contour>
    <contour>
      <point x="442" y="92" type="move" name="sin_Rakar"/>
    </contour>
  </outline>
</glyph>
<glyph name="sinCha" format="1">
  <advance width="518"/>
  <unicode hex="0DA1"/>
  <outline>
    <contour>
      <point x="75" y="393"/>
      <point x="12" y="335"/>
      <point x="12" y="221" type="curve" smooth="yes"/>
      <point x="12" y="78"/>
      <point x="104" y="-1"/>
      <point x="245" y="-1" type="curve"/>
      <point x="419" y="-1"/>
      <point x="489" y="70"/>
      <point x="489" y="246" type="curve" smooth="yes"/>
      <point x="489" y="294"/>
      <point x="469" y="345"/>
      <point x="454" y="364" type="curve"/>
      <point x="461" y="378"/>
      <point x="465" y="393"/>
      <point x="465" y="410" type="curve" smooth="yes"/>
      <point x="465" y="431"/>
      <point x="459" y="458"/>
      <point x="444" y="472" type="curve"/>
      <point x="475" y="505"/>
      <point x="507" y="537"/>
      <point x="539" y="568" type="curve"/>
      <point x="487" y="568" type="line"/>
      <point x="413" y="495" type="line"/>
      <point x="402" y="500"/>
      <point x="388" y="506"/>
      <point x="353" y="506" type="curve" smooth="yes"/>
      <point x="302" y="506"/>
      <point x="259" y="474"/>
      <point x="252" y="435" type="curve"/>
      <point x="242" y="492"/>
      <point x="201" y="506"/>
      <point x="154" y="506" type="curve" smooth="yes"/>
      <point x="81" y="506"/>
      <point x="40" y="452"/>
      <point x="39" y="388" type="curve"/>
      <point x="77" y="388" type="line"/>
      <point x="77" y="448"/>
      <point x="129" y="462"/>
      <point x="159" y="462" type="curve" smooth="yes"/>
      <point x="205" y="462"/>
      <point x="219" y="429"/>
      <point x="219" y="393" type="curve"/>
      <point x="137" y="393" type="line"/>
    </contour>
    <contour>
      <point x="121" y="41"/>
      <point x="51" y="93"/>
      <point x="51" y="226" type="curve" smooth="yes"/>
      <point x="51" y="313"/>
      <point x="81" y="358"/>
      <point x="165" y="358" type="curve" smooth="yes"/>
      <point x="242" y="358" type="line"/>
      <point x="242" y="321"/>
      <point x="290" y="288"/>
      <point x="335" y="288" type="curve" smooth="yes"/>
      <point x="401" y="288"/>
      <point x="432" y="313"/>
      <point x="432" y="327" type="curve"/>
      <point x="448" y="301"/>
      <point x="451" y="267"/>
      <point x="451" y="217" type="curve" smooth="yes"/>
      <point x="451" y="123"/>
      <point x="368" y="41"/>
      <point x="264" y="41" type="curve" smooth="yes"/>
      <point x="247" y="41" type="line" smooth="yes"/>
    </contour>
    <contour>
      <point x="299" y="325"/>
      <point x="280" y="348"/>
      <point x="280" y="393" type="curve" smooth="yes"/>
      <point x="280" y="432"/>
      <point x="309" y="467"/>
      <point x="347" y="467" type="curve" smooth="yes"/>
      <point x="387" y="467"/>
      <point x="425" y="451"/>
      <point x="425" y="405" type="curve" smooth="yes"/>
      <point x="425" y="352"/>
      <point x="392" y="325"/>
      <point x="338" y="325" type="curve" smooth="yes"/>
    </contour>
    <contour>
      <point x="442" y="82" type="move" name="sin_Rakar"/>
    </contour>
    <contour>
      <point x="328" y="489" type="move" name="sinVirama"/>
    </contour>
    <contour>
      <point x="74" y="533" type="move" name="sinMatraI"/>
    </contour>
  </outline>
</glyph>
<glyph name="sinJa" format="2">
  <advance width="551"/>
  <unicode hex="0DA2"/>
  <anchor x="465" y="52" name="sin_Rakar"/>
  <anchor x="285" y="517" name="sinReph"/>
  <anchor x="381" y="489" name="sinVirama"/>
  <anchor x="122" y="514" name="sinMatraI"/>
  <outline>
    <contour>
      <point x="541" y="575" type="line"/>
      <point x="496" y="575" type="line"/>
      <point x="420" y="488" type="line"/>
      <point x="452" y="466" type="line"/>
    </contour>
    <component base="sinPa"/>
  </outline>
</glyph>
<glyph name="sinJha" format="1">
  <advance width="968"/>
  <unicode hex="0DA3"/>
  <outline>
    <contour>
      <point x="11" y="198" type="line"/>
      <point x="30" y="198" type="line"/>
      <point x="20" y="181"/>
      <point x="14" y="158"/>
      <point x="14" y="128" type="curve" smooth="yes"/>
      <point x="14" y="102"/>
      <point x="17" y="77"/>
      <point x="27" y="56" type="curve" smooth="yes"/>
      <point x="46" y="17"/>
      <point x="79" y="-1"/>
      <point x="117" y="-1" type="curve" smooth="yes"/>
      <point x="165" y="-1"/>
      <point x="193" y="16"/>
      <point x="203" y="51" type="curve"/>
      <point x="208" y="41"/>
      <point x="212" y="33"/>
      <point x="215" y="29" type="curve"/>
      <point x="238" y="10" type="line"/>
      <point x="250" y="2"/>
      <point x="265" y="-1"/>
      <point x="285" y="-1" type="curve" smooth="yes"/>
      <point x="350" y="-1"/>
      <point x="401" y="44"/>
      <point x="411" y="104" type="curve"/>
      <point x="419" y="145" type="line"/>
      <point x="421" y="167" type="line"/>
      <point x="421" y="180" type="line" smooth="yes"/>
      <point x="421" y="278"/>
      <point x="379" y="369"/>
      <point x="301" y="385" type="curve" smooth="yes"/>
      <point x="290" y="387"/>
      <point x="275" y="392"/>
      <point x="259" y="392" type="curve" smooth="yes"/>
      <point x="226" y="393" type="line"/>
      <point x="227" y="405" type="line"/>
      <point x="248" y="437"/>
      <point x="297" y="461"/>
      <point x="337" y="464" type="curve" smooth="yes"/>
      <point x="371" y="466" type="line" smooth="yes"/>
      <point x="373" y="466"/>
      <point x="375" y="466"/>
      <point x="377" y="466" type="curve" smooth="yes"/>
      <point x="408" y="466"/>
      <point x="453" y="451"/>
      <point x="475" y="432" type="curve"/>
      <point x="492" y="424"/>
      <point x="500" y="417"/>
      <point x="500" y="411" type="curve" smooth="yes"/>
      <point x="500" y="410"/>
      <point x="500" y="409"/>
      <point x="500" y="408" type="curve" smooth="yes"/>
      <point x="476" y="362" type="line"/>
      <point x="458" y="310" type="line" smooth="yes"/>
      <point x="451" y="291"/>
      <point x="447" y="268"/>
      <point x="447" y="243" type="curve" smooth="yes"/>
      <point x="447" y="236"/>
      <point x="448" y="229"/>
      <point x="448" y="222" type="curve" smooth="yes"/>
      <point x="454" y="146" type="line"/>
      <point x="460" y="115"/>
      <point x="465" y="90"/>
      <point x="473" y="75" type="curve" smooth="yes"/>
      <point x="495" y="33"/>
      <point x="516" y="0"/>
      <point x="589" y="0" type="curve" smooth="yes"/>
      <point x="614" y="0"/>
      <point x="662" y="18"/>
      <point x="675" y="35" type="curve"/>
      <point x="683" y="42"/>
      <point x="689" y="53"/>
      <point x="694" y="68" type="curve"/>
      <point x="709" y="42" type="line"/>
      <point x="730" y="21" type="line"/>
      <point x="746" y="8"/>
      <point x="769" y="1"/>
      <point x="796" y="1" type="curve" smooth="yes"/>
      <point x="833" y="1"/>
      <point x="888" y="11"/>
      <point x="925" y="94" type="curve" smooth="yes"/>
      <point x="944" y="132"/>
      <point x="952" y="210"/>
      <point x="952" y="253" type="curve" smooth="yes"/>
      <point x="952" y="438"/>
      <point x="906" y="555"/>
      <point x="814" y="603" type="curve" smooth="yes"/>
      <point x="778" y="622"/>
      <point x="735" y="631"/>
      <point x="685" y="631" type="curve" smooth="yes"/>
      <point x="631" y="631"/>
      <point x="586" y="621"/>
      <point x="549" y="595" type="curve" smooth="yes"/>
      <point x="525" y="578"/>
      <point x="509" y="559"/>
      <point x="500" y="542" type="curve"/>
      <point x="532" y="528" type="line"/>
      <point x="564" y="560"/>
      <point x="587" y="578"/>
      <point x="600" y="581" type="curve" smooth="yes"/>
      <point x="649" y="594" type="line"/>
      <point x="686" y="597" type="line" smooth="yes"/>
      <point x="693" y="598"/>
      <point x="703" y="597"/>
      <point x="716" y="594" type="curve" smooth="yes"/>
      <point x="779" y="583"/>
      <point x="822" y="553"/>
      <point x="852" y="511" type="curve" smooth="yes"/>
      <point x="882" y="468"/>
      <point x="911" y="379"/>
      <point x="911" y="314" type="curve" smooth="yes"/>
      <point x="911" y="312"/>
      <point x="911" y="309"/>
      <point x="911" y="307" type="curve" smooth="yes"/>
      <point x="909" y="212" type="line"/>
      <point x="900" y="148" type="line"/>
      <point x="892" y="126"/>
      <point x="885" y="105"/>
      <point x="874" y="87" type="curve" smooth="yes"/>
      <point x="861" y="64"/>
      <point x="847" y="53"/>
      <point x="837" y="50" type="curve" smooth="yes"/>
      <point x="814" y="42" type="line"/>
      <point x="798" y="41" type="line"/>
      <point x="758" y="41"/>
      <point x="726" y="79"/>
      <point x="724" y="109" type="curve" smooth="yes"/>
      <point x="721" y="154" type="line"/>
      <point x="721" y="266" type="line"/>
      <point x="672" y="266" type="line"/>
      <point x="673" y="168" type="line" smooth="yes"/>
      <point x="673" y="164"/>
      <point x="673" y="161"/>
      <point x="673" y="157" type="curve" smooth="yes"/>
      <point x="673" y="140"/>
      <point x="671" y="124"/>
      <point x="668" y="109" type="curve" smooth="yes"/>
      <point x="657" y="63"/>
      <point x="631" y="41"/>
      <point x="589" y="41" type="curve" smooth="yes"/>
      <point x="566" y="41"/>
      <point x="545" y="51"/>
      <point x="526" y="71" type="curve" smooth="yes"/>
      <point x="508" y="90"/>
      <point x="493" y="136"/>
      <point x="493" y="165" type="curve"/>
      <point x="490" y="190" type="line"/>
      <point x="490" y="211" type="line" smooth="yes"/>
      <point x="490" y="243"/>
      <point x="490" y="270"/>
      <point x="496" y="292" type="curve" smooth="yes"/>
      <point x="508" y="335" type="line"/>
      <point x="527" y="364" type="line" smooth="yes"/>
      <point x="541" y="385"/>
      <point x="566" y="401"/>
      <point x="602" y="401" type="curve" smooth="yes"/>
      <point x="714" y="401" type="line"/>
      <point x="714" y="437" type="line"/>
      <point x="613" y="437" type="line" smooth="yes"/>
      <point x="585" y="437"/>
      <point x="565" y="435"/>
      <point x="554" y="429" type="curve"/>
      <point x="522" y="484"/>
      <point x="451" y="507"/>
      <point x="382" y="507" type="curve" smooth="yes"/>
      <point x="318" y="507"/>
      <point x="255" y="488"/>
      <point x="224" y="456" type="curve"/>
      <point x="214" y="490"/>
      <point x="184" y="507"/>
      <point x="135" y="507" type="curve" smooth="yes"/>
      <point x="103" y="507"/>
      <point x="63" y="485"/>
      <point x="52" y="457" type="curve" smooth="yes"/>
      <point x="48" y="447"/>
      <point x="42" y="436"/>
      <point x="41" y="423" type="curve" smooth="yes"/>
      <point x="39" y="394" type="line"/>
      <point x="39" y="357" type="line"/>
      <point x="40" y="348" type="line"/>
      <point x="81" y="348" type="line"/>
      <point x="80" y="355" type="line"/>
      <point x="80" y="367" type="line"/>
      <point x="81" y="394" type="line"/>
      <point x="87" y="423" type="line" smooth="yes"/>
      <point x="89" y="437"/>
      <point x="96" y="447"/>
      <point x="105" y="455" type="curve" smooth="yes"/>
      <point x="113" y="461"/>
      <point x="124" y="466"/>
      <point x="138" y="466" type="curve" smooth="yes"/>
      <point x="158" y="466"/>
      <point x="183" y="455"/>
      <point x="182" y="437" type="curve" smooth="yes"/>
      <point x="181" y="405" type="line"/>
      <point x="11" y="247" type="line"/>
    </contour>
    <contour>
      <point x="48" y="235" type="line"/>
      <point x="182" y="356" type="line"/>
      <point x="204" y="355" type="line"/>
      <point x="272" y="355" type="line"/>
      <point x="324" y="345"/>
      <point x="356" y="312"/>
      <point x="367" y="256" type="curve"/>
      <point x="377" y="211" type="line"/>
      <point x="379" y="191" type="line"/>
      <point x="379" y="180" type="line" smooth="yes"/>
      <point x="379" y="123"/>
      <point x="359" y="67"/>
      <point x="323" y="50" type="curve" smooth="yes"/>
      <point x="312" y="44"/>
      <point x="300" y="39"/>
      <point x="290" y="41" type="curve" smooth="yes"/>
      <point x="262" y="46" type="line"/>
      <point x="243" y="53"/>
      <point x="227" y="71"/>
      <point x="224" y="101" type="curve" smooth="yes"/>
      <point x="220" y="136" type="line"/>
      <point x="220" y="213" type="line"/>
      <point x="179" y="213" type="line"/>
      <point x="177" y="97" type="line" smooth="yes"/>
      <point x="177" y="66"/>
      <point x="154" y="41"/>
      <point x="124" y="41" type="curve" smooth="yes"/>
      <point x="109" y="41"/>
      <point x="97" y="46"/>
      <point x="85" y="54" type="curve" smooth="yes"/>
      <point x="73" y="63"/>
      <point x="66" y="73"/>
      <point x="64" y="86" type="curve" smooth="yes"/>
      <point x="59" y="115" type="line"/>
      <point x="58" y="131" type="line"/>
      <point x="59" y="153" type="line"/>
      <point x="61" y="169" type="line"/>
      <point x="67" y="184" type="line"/>
      <point x="77" y="202" type="line"/>
      <point x="78" y="218" type="line"/>
      <point x="77" y="235" type="line"/>
    </contour>
  </outline>
</glyph>
<glyph name="sinNya" format="2">
	<unicode hex="0DA4"/>
	<advance width="962"/>
	<outline>
		<contour>
			<point x="80" y="188" type="line"/>
			<point x="51" y="338"/>
			<point x="71" y="459"/>
			<point x="206" y="459" type="curve"/>
			<point x="251" y="469" type="line"/>
			<point x="265" y="506" type="line"/>
			<point x="243" y="506" type="line"/>
			<point x="95" y="506"/>
			<point x="-7" y="435"/>
			<point x="43" y="178" type="curve"/>
		</contour>
		<contour>
			<point x="510" y="-1"/>
			<point x="545" y="90"/>
			<point x="545" y="186" type="curve" smooth="yes"/>
			<point x="545" y="294"/>
			<point x="498" y="389"/>
			<point x="378" y="392" type="curve" smooth="yes"/>
			<point x="343" y="393" type="line"/>
			<point x="343" y="405" type="line"/>
			<point x="374" y="437"/>
			<point x="437" y="466"/>
			<point x="485" y="466" type="curve" smooth="yes"/>
			<point x="526" y="466"/>
			<point x="558" y="456"/>
			<point x="584" y="438" type="curve" smooth="yes"/>
			<point x="612" y="470" type="line"/>
			<point x="585" y="491"/>
			<point x="547" y="507"/>
			<point x="492" y="507" type="curve" smooth="yes"/>
			<point x="435" y="507"/>
			<point x="376" y="481"/>
			<point x="335" y="443" type="curve"/>
			<point x="342" y="423" type="line"/>
			<point x="342" y="429" type="line" smooth="yes"/>
			<point x="342" y="474"/>
			<point x="306" y="507"/>
			<point x="256" y="507" type="curve" smooth="yes"/>
			<point x="172" y="507"/>
			<point x="150" y="428"/>
			<point x="150" y="373" type="curve"/>
			<point x="191" y="373" type="line"/>
			<point x="190" y="411"/>
			<point x="205" y="464"/>
			<point x="258" y="464" type="curve" smooth="yes"/>
			<point x="278" y="464"/>
			<point x="308" y="451"/>
			<point x="307" y="422" type="curve" smooth="yes"/>
			<point x="306" y="406" type="line"/>
			<point x="112" y="232" type="line"/>
			<point x="112" y="198" type="line"/>
			<point x="156" y="198" type="line"/>
			<point x="146" y="181"/>
			<point x="139" y="158"/>
			<point x="139" y="128" type="curve" smooth="yes"/>
			<point x="139" y="55"/>
			<point x="181" y="0"/>
			<point x="248" y="0" type="curve" smooth="yes"/>
			<point x="286" y="0"/>
			<point x="315" y="19"/>
			<point x="325" y="53" type="curve"/>
			<point x="341" y="17"/>
			<point x="371" y="-1"/>
			<point x="410" y="-1" type="curve" smooth="yes"/>
		</contour>
		<contour>
			<point x="221" y="41"/>
			<point x="179" y="66"/>
			<point x="179" y="130" type="curve" smooth="yes"/>
			<point x="179" y="158"/>
			<point x="187" y="187"/>
			<point x="202" y="202" type="curve"/>
			<point x="202" y="235" type="line"/>
			<point x="173" y="235" type="line"/>
			<point x="308" y="356" type="line"/>
			<point x="375" y="355" type="line" smooth="yes"/>
			<point x="462" y="355"/>
			<point x="507" y="283"/>
			<point x="507" y="187" type="curve" smooth="yes"/>
			<point x="507" y="116"/>
			<point x="478" y="41"/>
			<point x="415" y="41" type="curve" smooth="yes"/>
			<point x="377" y="41"/>
			<point x="345" y="65"/>
			<point x="345" y="101" type="curve"/>
			<point x="344" y="213" type="line"/>
			<point x="306" y="213" type="line"/>
			<point x="305" y="102" type="line" smooth="yes"/>
			<point x="305" y="62"/>
			<point x="279" y="41"/>
			<point x="249" y="41" type="curve" smooth="yes"/>
		</contour>
		<component base="sinDa" xOffset="466.843"/>
	</outline>
	<anchor name="sinReph" x="749" y="547"/>
	<anchor name="sinMatraI" x="597" y="533"/>
</glyph>
<glyph name="sinJnya" format="1">
  <advance width="872"/>
  <unicode hex="0DA5"/>
  <outline>
    <contour>
      <point x="86" y="495"/>
      <point x="21" y="405"/>
      <point x="21" y="319" type="curve" smooth="yes"/>
      <point x="21" y="275"/>
      <point x="31" y="230"/>
      <point x="52" y="184" type="curve"/>
      <point x="85" y="183" type="line"/>
      <point x="98" y="83"/>
      <point x="162" y="0"/>
      <point x="257" y="0" type="curve" smooth="yes"/>
      <point x="360" y="0"/>
      <point x="422" y="47"/>
      <point x="443" y="141" type="curve" smooth="yes"/>
      <point x="447" y="161"/>
      <point x="449" y="180"/>
      <point x="449" y="196" type="curve" smooth="yes"/>
      <point x="449" y="199"/>
      <point x="449" y="202"/>
      <point x="449" y="205" type="curve" smooth="yes"/>
      <point x="447" y="238" type="line"/>
      <point x="442" y="267" type="line"/>
      <point x="435" y="289"/>
      <point x="427" y="303"/>
      <point x="419" y="309" type="curve" smooth="yes"/>
      <point x="393" y="330" type="line" smooth="yes"/>
      <point x="387" y="334"/>
      <point x="378" y="336"/>
      <point x="367" y="338" type="curve" smooth="yes"/>
      <point x="342" y="341" type="line"/>
      <point x="298" y="339" type="line"/>
      <point x="305" y="370"/>
      <point x="311" y="389"/>
      <point x="313" y="396" type="curve" smooth="yes"/>
      <point x="330" y="442"/>
      <point x="362" y="466"/>
      <point x="408" y="466" type="curve" smooth="yes"/>
      <point x="459" y="466"/>
      <point x="493" y="435"/>
      <point x="497" y="393" type="curve"/>
      <point x="537" y="393" type="line"/>
      <point x="537" y="427"/>
      <point x="541" y="492"/>
      <point x="514" y="461" type="curve"/>
      <point x="496" y="479" type="line"/>
      <point x="481" y="490" type="line"/>
      <point x="469" y="497"/>
      <point x="456" y="500"/>
      <point x="441" y="502" type="curve" smooth="yes"/>
      <point x="423" y="504" type="line"/>
      <point x="405" y="504" type="line"/>
      <point x="364" y="500" type="line"/>
      <point x="355" y="498"/>
      <point x="349" y="495"/>
      <point x="343" y="493" type="curve" smooth="yes"/>
      <point x="314" y="478"/>
      <point x="290" y="454"/>
      <point x="279" y="426" type="curve" smooth="yes"/>
      <point x="267" y="398" type="line"/>
      <point x="261" y="381" type="line"/>
      <point x="257" y="355" type="line"/>
      <point x="254" y="313" type="line"/>
      <point x="254" y="228" type="line"/>
      <point x="297" y="228" type="line"/>
      <point x="297" y="304" type="line"/>
      <point x="308" y="304" type="line"/>
      <point x="344" y="302" type="line"/>
      <point x="384" y="293"/>
      <point x="400" y="276"/>
      <point x="405" y="229" type="curve"/>
      <point x="406" y="211" type="line" smooth="yes"/>
      <point x="406" y="208"/>
      <point x="407" y="204"/>
      <point x="407" y="200" type="curve" smooth="yes"/>
      <point x="407" y="182"/>
      <point x="403" y="161"/>
      <point x="397" y="137" type="curve" smooth="yes"/>
      <point x="379" y="74"/>
      <point x="337" y="42"/>
      <point x="271" y="42" type="curve" smooth="yes"/>
      <point x="187" y="42"/>
      <point x="129" y="117"/>
      <point x="129" y="181" type="curve"/>
      <point x="125" y="221" type="line"/>
      <point x="125" y="246" type="line"/>
      <point x="126" y="277" type="line"/>
      <point x="131" y="324" type="line" smooth="yes"/>
      <point x="135" y="363"/>
      <point x="170" y="443"/>
      <point x="218" y="458" type="curve" smooth="yes"/>
      <point x="228" y="461"/>
      <point x="237" y="464"/>
      <point x="245" y="465" type="curve" smooth="yes"/>
      <point x="250" y="466"/>
      <point x="264" y="467"/>
      <point x="286" y="467" type="curve"/>
      <point x="285" y="505" type="line"/>
      <point x="236" y="505" type="line"/>
      <point x="180" y="501" type="line" smooth="yes"/>
    </contour>
    <contour>
      <point x="70" y="226"/>
      <point x="59" y="281"/>
      <point x="59" y="307" type="curve" smooth="yes"/>
      <point x="59" y="366"/>
      <point x="91" y="439"/>
      <point x="144" y="448" type="curve"/>
      <point x="120" y="419"/>
      <point x="104" y="391"/>
      <point x="96" y="362" type="curve" smooth="yes"/>
      <point x="89" y="335" type="line"/>
      <point x="84" y="320"/>
      <point x="82" y="306"/>
      <point x="82" y="295" type="curve" smooth="yes"/>
      <point x="81" y="267" type="line"/>
      <point x="81" y="238" type="line"/>
      <point x="82" y="208" type="line"/>
    </contour>
    <component base="sinDa" xOffset="449"/>
  </outline>
</glyph>
<glyph name="sinNdja" format="2">
	<unicode hex="0DA6"/>
	<advance width="655"/>
	<outline>
		<contour>
			<point x="106" y="188" type="line"/>
			<point x="77" y="308"/>
			<point x="97" y="459"/>
			<point x="232" y="459" type="curve"/>
			<point x="277" y="469" type="line"/>
			<point x="291" y="496" type="line"/>
			<point x="269" y="506" type="line"/>
			<point x="121" y="506"/>
			<point x="19" y="405"/>
			<point x="69" y="178" type="curve"/>
		</contour>
		<component base="sinJa" xOffset="94"/>
	</outline>
	<anchor name="sinReph" x="385" y="537"/>
	<anchor name="sinMatraI" x="218" y="514"/>
	<anchor name="sinVirama" x="477" y="491"/>
</glyph>
<glyph name="sinTta" format="1">
  <advance width="555"/>
  <unicode hex="0DA7"/>
  <outline>
    <contour>
      <point x="104" y="421"/>
      <point x="43" y="341"/>
      <point x="43" y="229" type="curve" smooth="yes"/>
      <point x="43" y="85"/>
      <point x="124" y="-2"/>
      <point x="266" y="-2" type="curve" smooth="yes"/>
      <point x="433" y="-2"/>
      <point x="510" y="138"/>
      <point x="510" y="306" type="curve" smooth="yes"/>
      <point x="510" y="499"/>
      <point x="389" y="600"/>
      <point x="231" y="600" type="curve" smooth="yes"/>
      <point x="188" y="600"/>
      <point x="144" y="595"/>
      <point x="86" y="578" type="curve"/>
      <point x="88" y="534" type="line"/>
      <point x="124" y="545"/>
      <point x="156" y="555"/>
      <point x="228" y="555" type="curve" smooth="yes"/>
      <point x="358" y="555"/>
      <point x="466" y="474"/>
      <point x="466" y="304" type="curve" smooth="yes"/>
      <point x="466" y="161"/>
      <point x="397" y="48"/>
      <point x="268" y="48" type="curve" smooth="yes"/>
      <point x="162" y="48"/>
      <point x="87" y="104"/>
      <point x="87" y="230" type="curve" smooth="yes"/>
      <point x="87" y="321"/>
      <point x="144" y="376"/>
      <point x="228" y="376" type="curve" smooth="yes"/>
      <point x="257" y="376"/>
      <point x="272" y="376"/>
      <point x="275" y="376" type="curve"/>
      <point x="279" y="417" type="line"/>
      <point x="232" y="418" type="line" smooth="yes"/>
    </contour>
    <contour>
      <point x="171" y="579" type="move" name="sinVirama"/>
    </contour>
    <contour>
      <point x="448" y="102" type="move" name="sin_Rakar"/>
    </contour>
  </outline>
</glyph>
<glyph name="sinTtha" format="1">
  <advance width="515"/>
  <unicode hex="0DA8"/>
  <outline>
    <contour>
      <point x="13" y="176" type="line"/>
      <point x="16" y="138" type="line"/>
      <point x="23" y="106"/>
      <point x="28" y="87"/>
      <point x="30" y="82" type="curve" smooth="yes"/>
      <point x="46" y="45"/>
      <point x="69" y="19"/>
      <point x="100" y="6" type="curve" smooth="yes"/>
      <point x="113" y="0"/>
      <point x="128" y="-2"/>
      <point x="144" y="-1" type="curve" smooth="yes"/>
      <point x="176" y="2" type="line"/>
      <point x="205" y="13" type="line"/>
      <point x="228" y="27"/>
      <point x="242" y="42"/>
      <point x="248" y="58" type="curve"/>
      <point x="252" y="44"/>
      <point x="257" y="36"/>
      <point x="261" y="32" type="curve" smooth="yes"/>
      <point x="280" y="16" type="line" smooth="yes"/>
      <point x="289" y="9"/>
      <point x="298" y="4"/>
      <point x="306" y="3" type="curve" smooth="yes"/>
      <point x="338" y="0" type="line"/>
      <point x="372" y="4" type="line"/>
      <point x="413" y="22" type="line"/>
      <point x="455" y="53"/>
      <point x="479" y="91"/>
      <point x="489" y="136" type="curve" smooth="yes"/>
      <point x="497" y="173"/>
      <point x="501" y="207"/>
      <point x="501" y="236" type="curve" smooth="yes"/>
      <point x="501" y="276"/>
      <point x="498" y="308"/>
      <point x="491" y="332" type="curve" smooth="yes"/>
      <point x="472" y="403" type="line"/>
      <point x="432" y="516"/>
      <point x="348" y="572"/>
      <point x="220" y="572" type="curve" smooth="yes"/>
      <point x="216" y="572"/>
      <point x="212" y="572"/>
      <point x="207" y="572" type="curve" smooth="yes"/>
      <point x="200" y="572"/>
      <point x="192" y="573"/>
      <point x="186" y="573" type="curve" smooth="yes"/>
      <point x="139" y="573"/>
      <point x="94" y="563"/>
      <point x="49" y="543" type="curve"/>
      <point x="51" y="497" type="line"/>
      <point x="100" y="517"/>
      <point x="139" y="526"/>
      <point x="169" y="526" type="curve" smooth="yes"/>
      <point x="188" y="526"/>
      <point x="203" y="523"/>
      <point x="214" y="515" type="curve"/>
      <point x="221" y="515"/>
      <point x="225" y="510"/>
      <point x="225" y="501" type="curve" smooth="yes"/>
      <point x="225" y="492"/>
      <point x="217" y="451"/>
      <point x="217" y="440" type="curve" smooth="yes"/>
      <point x="217" y="396"/>
      <point x="249" y="375"/>
      <point x="313" y="375" type="curve" smooth="yes"/>
      <point x="328" y="375"/>
      <point x="351" y="381"/>
      <point x="376" y="393" type="curve" smooth="yes"/>
      <point x="397" y="402"/>
      <point x="408" y="418"/>
      <point x="413" y="433" type="curve"/>
      <point x="443" y="391"/>
      <point x="459" y="313"/>
      <point x="459" y="252" type="curve" smooth="yes"/>
      <point x="459" y="245"/>
      <point x="459" y="239"/>
      <point x="459" y="233" type="curve" smooth="yes"/>
      <point x="455" y="172" type="line"/>
      <point x="449" y="146" type="line"/>
      <point x="444" y="127" type="line"/>
      <point x="428" y="82"/>
      <point x="395" y="42"/>
      <point x="352" y="42" type="curve" smooth="yes"/>
      <point x="299" y="42"/>
      <point x="272" y="68"/>
      <point x="272" y="119" type="curve" smooth="yes"/>
      <point x="272" y="268" type="line"/>
      <point x="225" y="268" type="line"/>
      <point x="225" y="207" type="line"/>
      <point x="224" y="149" type="line"/>
      <point x="219" y="93" type="line"/>
      <point x="211" y="63"/>
      <point x="179" y="41"/>
      <point x="147" y="41" type="curve" smooth="yes"/>
      <point x="135" y="41"/>
      <point x="122" y="42"/>
      <point x="111" y="50" type="curve" smooth="yes"/>
      <point x="64" y="82"/>
      <point x="57" y="135"/>
      <point x="57" y="171" type="curve" smooth="yes"/>
      <point x="57" y="176"/>
      <point x="57" y="180"/>
      <point x="57" y="184" type="curve" smooth="yes"/>
      <point x="60" y="249" type="line" smooth="yes"/>
      <point x="64" y="356"/>
      <point x="137" y="393"/>
      <point x="205" y="393" type="curve"/>
      <point x="205" y="433" type="line"/>
      <point x="148" y="433"/>
      <point x="106" y="419"/>
      <point x="78" y="391" type="curve" smooth="yes"/>
      <point x="70" y="384"/>
      <point x="59" y="371"/>
      <point x="46" y="351" type="curve" smooth="yes"/>
      <point x="24" y="316"/>
      <point x="13" y="267"/>
      <point x="13" y="201" type="curve" smooth="yes"/>
    </contour>
    <contour>
      <point x="257" y="524" type="curve"/>
      <point x="262" y="525"/>
      <point x="268" y="526"/>
      <point x="274" y="526" type="curve" smooth="yes"/>
      <point x="324" y="526"/>
      <point x="383" y="492"/>
      <point x="384" y="460" type="curve"/>
      <point x="374" y="433"/>
      <point x="354" y="420"/>
      <point x="328" y="420" type="curve" smooth="yes"/>
      <point x="321" y="420"/>
      <point x="307" y="422"/>
      <point x="285" y="427" type="curve"/>
      <point x="269" y="437"/>
      <point x="260" y="447"/>
      <point x="260" y="459" type="curve" smooth="yes"/>
      <point x="260" y="467"/>
      <point x="270" y="493"/>
      <point x="270" y="500" type="curve" smooth="yes"/>
      <point x="270" y="509"/>
      <point x="266" y="517"/>
    </contour>
    <contour>
      <point x="399" y="479" type="move" name="sinVirama"/>
    </contour>
  </outline>
</glyph>
<glyph name="sinDda" format="1">
  <advance width="563"/>
  <unicode hex="0DA9"/>
  <outline>
    <contour>
      <point x="55" y="282"/>
      <point x="40" y="237"/>
      <point x="40" y="171" type="curve" smooth="yes"/>
      <point x="40" y="77"/>
      <point x="81" y="-1"/>
      <point x="170" y="-1" type="curve" smooth="yes"/>
      <point x="220" y="-1"/>
      <point x="254" y="21"/>
      <point x="273" y="63" type="curve"/>
      <point x="289" y="21"/>
      <point x="325" y="-1"/>
      <point x="380" y="-1" type="curve" smooth="yes"/>
      <point x="499" y="-1"/>
      <point x="536" y="123"/>
      <point x="536" y="280" type="curve" smooth="yes"/>
      <point x="536" y="487"/>
      <point x="428" y="603"/>
      <point x="246" y="603" type="curve" smooth="yes"/>
      <point x="187" y="603"/>
      <point x="113" y="589"/>
      <point x="61" y="566" type="curve"/>
      <point x="67" y="524" type="line"/>
      <point x="132" y="550"/>
      <point x="184" y="559"/>
      <point x="257" y="559" type="curve" smooth="yes"/>
      <point x="401" y="559"/>
      <point x="495" y="451"/>
      <point x="495" y="256" type="curve" smooth="yes"/>
      <point x="495" y="144"/>
      <point x="456" y="41"/>
      <point x="383" y="41" type="curve" smooth="yes"/>
      <point x="322" y="41"/>
      <point x="294" y="75"/>
      <point x="294" y="172" type="curve" smooth="yes"/>
      <point x="294" y="234" type="line"/>
      <point x="252" y="234" type="line"/>
      <point x="252" y="235"/>
      <point x="253" y="197"/>
      <point x="253" y="169" type="curve" smooth="yes"/>
      <point x="253" y="85"/>
      <point x="223" y="41"/>
      <point x="168" y="41" type="curve" smooth="yes"/>
      <point x="115" y="41"/>
      <point x="79" y="115"/>
      <point x="79" y="172" type="curve" smooth="yes"/>
      <point x="79" y="244"/>
      <point x="107" y="306"/>
      <point x="155" y="306" type="curve" smooth="yes"/>
      <point x="295" y="306" type="line"/>
      <point x="295" y="365" type="line" smooth="yes"/>
      <point x="295" y="430"/>
      <point x="247" y="467"/>
      <point x="186" y="467" type="curve" smooth="yes"/>
      <point x="114" y="467"/>
      <point x="79" y="415"/>
      <point x="77" y="342" type="curve"/>
      <point x="30" y="342" type="line"/>
      <point x="30" y="306" type="line"/>
      <point x="86" y="306" type="line"/>
    </contour>
    <contour>
      <point x="116" y="343" type="line"/>
      <point x="121" y="386"/>
      <point x="128" y="432"/>
      <point x="183" y="432" type="curve" smooth="yes"/>
      <point x="218" y="432"/>
      <point x="254" y="411"/>
      <point x="254" y="366" type="curve" smooth="yes"/>
      <point x="254" y="343" type="line"/>
    </contour>
    <contour>
      <point x="107" y="559" type="move" name="sinVirama"/>
    </contour>
    <contour>
      <point x="491" y="72" type="move" name="sin_Rakar"/>
    </contour>
  </outline>
</glyph>
<glyph name="sinDdha" format="1">
  <advance width="522"/>
  <unicode hex="0DAA"/>
  <outline>
    <contour>
      <point x="12" y="317" type="line"/>
      <point x="63" y="317" type="line"/>
      <point x="37" y="288"/>
      <point x="19" y="231"/>
      <point x="19" y="183" type="curve" smooth="yes"/>
      <point x="19" y="168" type="line"/>
      <point x="23" y="135" type="line" smooth="yes"/>
      <point x="26" y="106"/>
      <point x="44" y="68"/>
      <point x="53" y="54" type="curve" smooth="yes"/>
      <point x="73" y="22"/>
      <point x="110" y="0"/>
      <point x="157" y="0" type="curve" smooth="yes"/>
      <point x="202" y="0"/>
      <point x="244" y="22"/>
      <point x="260" y="58" type="curve"/>
      <point x="265" y="44"/>
      <point x="270" y="35"/>
      <point x="273" y="32" type="curve" smooth="yes"/>
      <point x="292" y="16" type="line" smooth="yes"/>
      <point x="300" y="10"/>
      <point x="309" y="4"/>
      <point x="318" y="3" type="curve" smooth="yes"/>
      <point x="350" y="0" type="line"/>
      <point x="385" y="4" type="line"/>
      <point x="424" y="18" type="line"/>
      <point x="439" y="25"/>
      <point x="454" y="39"/>
      <point x="468" y="59" type="curve" smooth="yes"/>
      <point x="498" y="101"/>
      <point x="513" y="159"/>
      <point x="513" y="236" type="curve" smooth="yes"/>
      <point x="513" y="430"/>
      <point x="404" y="583"/>
      <point x="223" y="595" type="curve" smooth="yes"/>
      <point x="216" y="595"/>
      <point x="208" y="596"/>
      <point x="201" y="596" type="curve" smooth="yes"/>
      <point x="149" y="596"/>
      <point x="92" y="582"/>
      <point x="30" y="554" type="curve"/>
      <point x="48" y="516" type="line"/>
      <point x="88" y="539"/>
      <point x="124" y="550"/>
      <point x="154" y="550" type="curve" smooth="yes"/>
      <point x="157" y="550"/>
      <point x="161" y="550"/>
      <point x="164" y="550" type="curve" smooth="yes"/>
      <point x="182" y="550"/>
      <point x="199" y="547"/>
      <point x="215" y="540" type="curve"/>
      <point x="226" y="528"/>
      <point x="239" y="517"/>
      <point x="239" y="498" type="curve" smooth="yes"/>
      <point x="239" y="486"/>
      <point x="235" y="469"/>
      <point x="228" y="447" type="curve"/>
      <point x="215" y="455"/>
      <point x="204" y="461"/>
      <point x="194" y="465" type="curve" smooth="yes"/>
      <point x="183" y="470"/>
      <point x="177" y="473"/>
      <point x="175" y="473" type="curve"/>
      <point x="173" y="475"/>
      <point x="168" y="475"/>
      <point x="160" y="475" type="curve"/>
      <point x="158" y="477"/>
      <point x="151" y="477"/>
      <point x="142" y="477" type="curve" smooth="yes"/>
      <point x="73" y="477"/>
      <point x="39" y="437"/>
      <point x="39" y="356" type="curve"/>
      <point x="12" y="356" type="line"/>
    </contour>
    <contour>
      <point x="97" y="41"/>
      <point x="65" y="102"/>
      <point x="65" y="165" type="curve" smooth="yes"/>
      <point x="65" y="169"/>
      <point x="65" y="174"/>
      <point x="65" y="178" type="curve" smooth="yes"/>
      <point x="67" y="221" type="line"/>
      <point x="78" y="259" type="line" smooth="yes"/>
      <point x="84" y="281"/>
      <point x="110" y="313"/>
      <point x="126" y="317" type="curve"/>
      <point x="237" y="317" type="line"/>
      <point x="237" y="403" type="line"/>
      <point x="252" y="391" type="line" smooth="yes"/>
      <point x="261" y="384"/>
      <point x="267" y="380"/>
      <point x="269" y="380" type="curve" smooth="yes"/>
      <point x="292" y="374" type="line"/>
      <point x="318" y="373" type="line"/>
      <point x="337" y="373" type="line"/>
      <point x="374" y="377"/>
      <point x="415" y="400"/>
      <point x="425" y="433" type="curve"/>
      <point x="460" y="384"/>
      <point x="472" y="287"/>
      <point x="472" y="245" type="curve" smooth="yes"/>
      <point x="472" y="242"/>
      <point x="472" y="239"/>
      <point x="472" y="236" type="curve" smooth="yes"/>
      <point x="471" y="211" type="line"/>
      <point x="467" y="172" type="line"/>
      <point x="461" y="146" type="line"/>
      <point x="456" y="127" type="line" smooth="yes"/>
      <point x="454" y="118"/>
      <point x="450" y="109"/>
      <point x="446" y="101" type="curve" smooth="yes"/>
      <point x="444" y="98"/>
      <point x="442" y="91"/>
      <point x="436" y="84" type="curve" smooth="yes"/>
      <point x="414" y="55"/>
      <point x="389" y="42"/>
      <point x="364" y="42" type="curve" smooth="yes"/>
      <point x="323" y="42"/>
      <point x="296" y="54"/>
      <point x="290" y="82" type="curve" smooth="yes"/>
      <point x="284" y="112" type="line"/>
      <point x="284" y="268" type="line"/>
      <point x="237" y="268" type="line"/>
      <point x="237" y="207" type="line"/>
      <point x="236" y="149" type="line"/>
      <point x="231" y="93" type="line"/>
      <point x="223" y="63"/>
      <point x="187" y="41"/>
      <point x="155" y="41" type="curve" smooth="yes"/>
    </contour>
    <contour>
      <point x="82" y="358" type="line"/>
      <point x="82" y="374" type="line"/>
      <point x="85" y="401" type="line"/>
      <point x="92" y="426"/>
      <point x="110" y="439"/>
      <point x="138" y="439" type="curve" smooth="yes"/>
      <point x="171" y="439"/>
      <point x="197" y="423"/>
      <point x="197" y="374" type="curve" smooth="yes"/>
      <point x="197" y="358" type="line"/>
    </contour>
    <contour>
      <point x="260" y="444"/>
      <point x="259" y="445"/>
      <point x="259" y="447" type="curve" smooth="yes"/>
      <point x="259" y="448"/>
      <point x="261" y="455"/>
      <point x="266" y="467" type="curve" smooth="yes"/>
      <point x="270" y="479"/>
      <point x="271" y="490"/>
      <point x="271" y="499" type="curve" smooth="yes"/>
      <point x="271" y="513"/>
      <point x="268" y="525"/>
      <point x="260" y="538" type="curve"/>
      <point x="285" y="534"/>
      <point x="307" y="531"/>
      <point x="327" y="527" type="curve"/>
      <point x="368" y="506"/>
      <point x="388" y="484"/>
      <point x="388" y="461" type="curve" smooth="yes"/>
      <point x="388" y="452"/>
      <point x="385" y="442"/>
      <point x="378" y="432" type="curve"/>
      <point x="362" y="424"/>
      <point x="338" y="413"/>
      <point x="316" y="413" type="curve" smooth="yes"/>
      <point x="290" y="413"/>
      <point x="271" y="425"/>
      <point x="260" y="443" type="curve" smooth="yes"/>
    </contour>
    <contour>
      <point x="408" y="489" type="move" name="sinVirama"/>
    </contour>
    <contour>
      <point x="442" y="52" type="move" name="sin_Rakar"/>
    </contour>
  </outline>
</glyph>
<glyph name="sinNna" format="1">
  <advance width="754"/>
  <unicode hex="0DAB"/>
  <outline>
    <contour>
      <point x="682" y="0"/>
      <point x="716" y="89"/>
      <point x="716" y="224" type="curve" smooth="yes"/>
      <point x="716" y="326" type="line" smooth="yes"/>
      <point x="716" y="438"/>
      <point x="690" y="507"/>
      <point x="617" y="507" type="curve" smooth="yes"/>
      <point x="582" y="507"/>
      <point x="552" y="488"/>
      <point x="539" y="445" type="curve"/>
      <point x="528" y="493"/>
      <point x="498" y="503"/>
      <point x="476" y="503" type="curve" smooth="yes"/>
      <point x="432" y="503"/>
      <point x="405" y="465"/>
      <point x="405" y="403" type="curve" smooth="yes"/>
      <point x="405" y="395"/>
      <point x="405" y="386"/>
      <point x="406" y="376" type="curve"/>
      <point x="411" y="382" type="line"/>
      <point x="381" y="463"/>
      <point x="315" y="506"/>
      <point x="240" y="506" type="curve" smooth="yes"/>
      <point x="141" y="506"/>
      <point x="56" y="446"/>
      <point x="56" y="311" type="curve" smooth="yes"/>
      <point x="56" y="206"/>
      <point x="95" y="133"/>
      <point x="195" y="133" type="curve" smooth="yes"/>
      <point x="271" y="133"/>
      <point x="308" y="176"/>
      <point x="308" y="246" type="curve" smooth="yes"/>
      <point x="308" y="311" type="line"/>
      <point x="271" y="311" type="line"/>
      <point x="271" y="244" type="line" smooth="yes"/>
      <point x="271" y="196"/>
      <point x="250" y="172"/>
      <point x="198" y="172" type="curve" smooth="yes"/>
      <point x="128" y="172"/>
      <point x="102" y="221"/>
      <point x="102" y="315" type="curve" smooth="yes"/>
      <point x="102" y="406"/>
      <point x="145" y="465"/>
      <point x="235" y="465" type="curve" smooth="yes"/>
      <point x="342" y="465"/>
      <point x="399" y="362"/>
      <point x="399" y="247" type="curve" smooth="yes"/>
      <point x="399" y="109"/>
      <point x="356" y="41"/>
      <point x="235" y="41" type="curve" smooth="yes"/>
      <point x="205" y="41"/>
      <point x="177" y="49"/>
      <point x="157" y="55" type="curve" smooth="yes"/>
      <point x="132" y="62"/>
      <point x="113" y="67"/>
      <point x="95" y="67" type="curve" smooth="yes"/>
      <point x="80" y="67"/>
      <point x="67" y="64"/>
      <point x="54" y="57" type="curve"/>
      <point x="55" y="91"/>
      <point x="70" y="120"/>
      <point x="114" y="161" type="curve"/>
      <point x="85" y="190" type="line"/>
      <point x="32" y="131"/>
      <point x="12" y="97"/>
      <point x="12" y="22" type="curve" smooth="yes"/>
      <point x="12" y="3" type="line"/>
      <point x="53" y="3" type="line"/>
      <point x="53" y="19" type="line"/>
      <point x="60" y="28"/>
      <point x="70" y="33"/>
      <point x="86" y="33" type="curve" smooth="yes"/>
      <point x="101" y="33"/>
      <point x="117" y="28"/>
      <point x="135" y="22" type="curve" smooth="yes"/>
      <point x="161" y="13"/>
      <point x="193" y="2"/>
      <point x="235" y="2" type="curve" smooth="yes"/>
      <point x="381" y="2"/>
      <point x="440" y="84"/>
      <point x="440" y="245" type="curve"/>
      <point x="437" y="337"/>
      <point x="436" y="385"/>
      <point x="436" y="390" type="curve" smooth="yes"/>
      <point x="436" y="434"/>
      <point x="448" y="465"/>
      <point x="472" y="465" type="curve" smooth="yes"/>
      <point x="499" y="465"/>
      <point x="518" y="428"/>
      <point x="518" y="365" type="curve" smooth="yes"/>
      <point x="518" y="236" type="line"/>
      <point x="558" y="236" type="line"/>
      <point x="558" y="368" type="line" smooth="yes"/>
      <point x="558" y="426"/>
      <point x="579" y="465"/>
      <point x="616" y="465" type="curve" smooth="yes"/>
      <point x="656" y="465"/>
      <point x="678" y="417"/>
      <point x="678" y="310" type="curve" smooth="yes"/>
      <point x="678" y="222" type="line" smooth="yes"/>
      <point x="678" y="160"/>
      <point x="676" y="40"/>
      <point x="576" y="40" type="curve" smooth="yes"/>
      <point x="526" y="40"/>
      <point x="502" y="68"/>
      <point x="502" y="115" type="curve"/>
      <point x="463" y="115" type="line"/>
      <point x="463" y="52"/>
      <point x="489" y="0"/>
      <point x="571" y="0" type="curve" smooth="yes"/>
    </contour>
    <contour>
      <point x="336" y="455"/>
      <point x="399" y="537"/>
      <point x="445" y="588" type="curve"/>
      <point x="392" y="588" type="line"/>
      <point x="298" y="470" type="line"/>
      <point x="328" y="443" type="line"/>
    </contour>
    <contour>
      <point x="535" y="547" type="move" name="sinReph"/>
    </contour>
    <contour>
      <point x="189" y="533" type="move" name="sinMatraI"/>
    </contour>
    <contour>
      <point x="660" y="489" type="move" name="sinVirama"/>
    </contour>
  </outline>
</glyph>
<glyph name="sinNndda" format="2">
	<advance width="644"/>
	<unicode hex="0DAC"/>
	<outline>
		<contour>
			<point x="76" y="125" type="line"/>
			<point x="76" y="266" type="line" smooth="yes"/>
			<point x="76" y="347"/>
			<point x="99" y="398"/>
			<point x="169" y="413" type="curve" smooth="yes"/>
			<point x="231" y="426" type="line"/>
			<point x="247" y="465" type="line"/>
			<point x="179" y="456" type="line" smooth="yes"/>
			<point x="85" y="443"/>
			<point x="35" y="381"/>
			<point x="35" y="264" type="curve" smooth="yes"/>
			<point x="35" y="125" type="line"/>
		</contour>
		<component base="sinDda" xOffset="63"/>
	</outline>
	<anchor name="sinReph" x="355" y="617"/>
	<anchor name="sinVirama" x="194" y="559"/>
	<anchor name="sin_Rakar" x="551" y="72"/>
</glyph>
<glyph name="sinTa" format="2">
	<unicode hex="0DAD"/>
	<advance width="664"/>
	<outline>
		<contour>
			<point x="576" y="-1"/>
			<point x="620" y="97"/>
			<point x="620" y="264" type="curve" smooth="yes"/>
			<point x="620" y="398"/>
			<point x="545" y="507"/>
			<point x="413" y="507" type="curve" smooth="yes"/>
			<point x="347" y="507"/>
			<point x="293.6954687664" y="479.4636458442"/>
			<point x="260" y="457" type="curve" smooth="yes"/>
			<point x="257" y="455" type="line"/>
			<point x="246" y="483"/>
			<point x="211" y="506"/>
			<point x="170" y="506" type="curve" smooth="yes"/>
			<point x="101" y="506"/>
			<point x="57" y="462"/>
			<point x="57" y="395" type="curve" smooth="yes"/>
			<point x="57" y="372" type="line"/>
			<point x="100" y="372" type="line"/>
			<point x="100" y="388" type="line" smooth="yes"/>
			<point x="100" y="432"/>
			<point x="114" y="465"/>
			<point x="165" y="465" type="curve" smooth="yes"/>
			<point x="198" y="465"/>
			<point x="222" y="450"/>
			<point x="222" y="430" type="curve" smooth="yes"/>
			<point x="222" y="418" type="line"/>
			<point x="15" y="237" type="line"/>
			<point x="15" y="196" type="line"/>
			<point x="64" y="196" type="line"/>
			<point x="60" y="183"/>
			<point x="57" y="167"/>
			<point x="57" y="150" type="curve" smooth="yes"/>
			<point x="57" y="57"/>
			<point x="127" y="0"/>
			<point x="246" y="0" type="curve" smooth="yes"/>
			<point x="383" y="0"/>
			<point x="444" y="104"/>
			<point x="443" y="214" type="curve" smooth="yes"/>
			<point x="442" y="317"/>
			<point x="390" y="388"/>
			<point x="285" y="388" type="curve" smooth="yes"/>
			<point x="262" y="388" type="line"/>
			<point x="262" y="414" type="line"/>
			<point x="303" y="443"/>
			<point x="358" y="467"/>
			<point x="404" y="467" type="curve" smooth="yes"/>
			<point x="533" y="467"/>
			<point x="579" y="356"/>
			<point x="579" y="262" type="curve" smooth="yes"/>
			<point x="579" y="108"/>
			<point x="531" y="43"/>
			<point x="415" y="38" type="curve"/>
			<point x="415" y="-1" type="line"/>
		</contour>
		<contour>
			<point x="157" y="44"/>
			<point x="96" y="82"/>
			<point x="96" y="155" type="curve" smooth="yes"/>
			<point x="96" y="175"/>
			<point x="102" y="187"/>
			<point x="107" y="195" type="curve"/>
			<point x="107" y="225" type="line"/>
			<point x="63" y="225" type="line"/>
			<point x="216" y="354" type="line"/>
			<point x="273" y="353" type="line" smooth="yes"/>
			<point x="365" y="351"/>
			<point x="402" y="296"/>
			<point x="402" y="218" type="curve" smooth="yes"/>
			<point x="402" y="120"/>
			<point x="351" y="44"/>
			<point x="250" y="44" type="curve" smooth="yes"/>
		</contour>
	</outline>
	<anchor name="sin_Rakar" x="508" y="40"/>
	<anchor name="sinReph" x="315" y="537"/>
	<anchor name="sinMatraU" x="415" y="38"/>
	<anchor name="sinVirama" x="496" y="471"/>
	<anchor name="sinMatraI" x="131" y="533"/>
</glyph>
